<?xml version="1.0" encoding="UTF-8"?>
<svg xmlns="http://www.w3.org/2000/svg" xmlns:xlink="http://www.w3.org/1999/xlink" version="1.1" viewBox="0 0 131.4 116.5">
  <defs>
    <style>
      .cls-1 {
        fill: none;
      }

      .cls-2 {
        fill: #ef9ba6;
      }

      .cls-3 {
        fill: #f6d2d2;
      }

      .cls-4 {
        clip-path: url(#clippath);
      }
    </style>
    <clipPath id="clippath">
      <rect class="cls-1" y="0" width="131.4" height="116.5"/>
    </clipPath>
  </defs>
  <!-- Generator: Adobe Illustrator 28.7.5, SVG Export Plug-In . SVG Version: 1.2.0 Build 176)  -->
  <g>
    <g id="Layer_1">
      <g class="cls-4">
        <path class="cls-2" d="M43.4,75.5c0-1.7.6-3.7-.3-5.1-.9-1.4-3.1-.6-4.7-.9-1.8-.4-2.6-1-2.3-3,1.8-12.8,8.3-22.5,19.8-28.5,3.1-1.6,6.4-2.2,9.8-2.4,4.6-.2,9.2-1,13.7-1.7.7-.1,1.6-.5,2,.2.4.6-.2,1.2-.4,1.8-.4,1-.8,2-1.2,3-3.8,3.3-6.8,7.3-10.5,10.6-6.5,5.9-12.7,12.3-19,18.4-1.6,1.6-3.2,3.2-4.8,4.7-.9.8-1.7,1.7-2.1,2.8"/>
        <path class="cls-3" d="M43.4,75.5c.5-1.1,1.2-2,2.1-2.8,1.6-1.5,3.2-3.2,4.8-4.7,6.3-6.2,12.5-12.5,19-18.4,3.7-3.4,6.7-7.4,10.5-10.6-1.2,8.8-4.1,17-9.7,24-5,6.3-10.7,11.8-18.6,14.4-2.1.7-4.3,1-6.6.9-2-.1-2.2-.5-1.5-2.6"/>
      </g>
    </g>
  </g>
</svg>