<?xml version="1.0" encoding="UTF-8"?>
<svg xmlns="http://www.w3.org/2000/svg" xmlns:xlink="http://www.w3.org/1999/xlink" version="1.1" viewBox="0 0 131.4 116.5">
  <defs>
    <style>
      .cls-1 {
        fill: none;
      }

      .cls-2 {
        fill: #dc6d80;
      }

      .cls-3 {
        fill: #ef9ba6;
      }

      .cls-4 {
        clip-path: url(#clippath);
      }
    </style>
    <clipPath id="clippath">
      <rect class="cls-1" y="0" width="131.4" height="116.5"/>
    </clipPath>
  </defs>
  <!-- Generator: Adobe Illustrator 28.7.5, SVG Export Plug-In . SVG Version: 1.2.0 Build 176)  -->
  <g>
    <g id="Layer_1">
      <g class="cls-4">
        <path class="cls-2" d="M57.7,92.2c-1.3,3-3.1,5.6-5,8.3-.4-2.6-.5-5.2-1-7.7-1.2-6.3-4-12.1-6.6-17.9-4-8.8-5.6-17.9-3.3-27.5,1.5-6.1,4.7-11.2,8.7-15.9,5-6,11-10.8,17.7-15,1.6-1,2.3-.8,3,.9,1.9,4.2,2.5,8.6,2.6,13.1-3.2.6-5.5,1.9-5.6,5.6,0,1.2-.3,2.4-.3,3.6,0,3.6-.6,7.1-2,10.5-1.8,4.5-3.2,9.1-4.2,13.9-1.3,6.5-1.9,13.1-3,19.6-.4,2.7-1.2,5.5-1.1,8.3"/>
        <path class="cls-3" d="M57.7,92.2c0-2.8.7-5.5,1.1-8.3,1.1-6.5,1.7-13.1,3-19.6.9-4.8,2.3-9.4,4.2-13.9,1.4-3.4,2-6.9,2-10.5,0-1.2.2-2.5.3-3.6,0-3.8,2.4-5.1,5.6-5.6.4.6,0,1.5.7,2.2,1.2-2.5,2.4-4.9,3.4-7.5.7-1.9,1.3-1.6,2.4-.3,4.8,6.2,6,13.2,4.5,20.7-2.2,10.8-7.5,20.2-13.8,29-3.9,5.5-8,10.8-12,16.2-.3.5-.7.9-1.2,1.2"/>
      </g>
    </g>
  </g>
</svg>