<?xml version="1.0" encoding="UTF-8"?>
<svg xmlns="http://www.w3.org/2000/svg" xmlns:xlink="http://www.w3.org/1999/xlink" version="1.1" viewBox="0 0 131.4 116.5">
  <defs>
    <style>
      .cls-1 {
        fill: none;
      }

      .cls-2 {
        fill: #eb8997;
      }

      .cls-3 {
        fill: #dc6d80;
      }

      .cls-4 {
        fill: #ef9ba6;
      }

      .cls-5 {
        fill: #f4c7c7;
      }

      .cls-6 {
        fill: #ba4858;
      }

      .cls-7 {
        fill: #f0b4b8;
      }

      .cls-8 {
        fill: #ca5965;
      }

      .cls-9 {
        fill: #fae0df;
      }

      .cls-10 {
        fill: #f6bec6;
      }

      .cls-11 {
        fill: #f6d2d2;
      }

      .cls-12 {
        clip-path: url(#clippath);
      }

      .cls-13 {
        fill: #f8d7d6;
      }
    </style>
    <clipPath id="clippath">
      <rect class="cls-1" y="0" width="131.4" height="116.5"/>
    </clipPath>
  </defs>
  <!-- Generator: Adobe Illustrator 28.7.5, SVG Export Plug-In . SVG Version: 1.2.0 Build 176)  -->
  <g>
    <g id="Layer_1">
      <g class="cls-12">
        <path class="cls-9" d="M85.8,101.7c-1.5,4.1-4.5,3.7-8.7,2.8-3.2-.7-5.8-2.8-8.2-4.9-5-4.3-9.6-9-13.3-14.4-1.8-2.5-1.7-2.5-4.5-1.1-3.8,1.9-8,2.8-12.2,3.4-4.5.5-9.1.7-13.6,1.5-.6.1-1.3,0-1.9,0-4.1,0-5.2-1.6-3.5-5.3,1.2-2.6,2.8-4.9,4.9-7.6-5.6,1.5-10.3,3.4-14.1,7.4-.8-1.2-.2-2.4,0-3.5,2.4-8.9,6.4-16.8,14.3-22.2,2.3-1.6,4.9-2.6,7.7-3,1.3-.2,1.6-.6,1-2-1.8-3.8-4.2-7.2-6.3-10.8-2.6-4.3-4.6-8.9-4.7-14.1,0-2.4.5-2.9,2.9-2.7,2.3.1,4.4,1.4,6.7,1.9.3,0,.7.4,1.1.1.1-1-.8-1.5-1.2-2.2-2.3-3.5-4.6-7-7.2-10.3-.9-1.1-.7-1.9.7-2.5,5-2.1,10.1-2.1,15,0,6.7,2.9,12.1,7.4,16.2,13.5.6,1,.5,2.4,1.9,2.9.3.4.8.8,1,1.3.5,1.2,1.1,1.3,2,.5,0,.4,0,.7,0,1.1-1.2.9-.9,1.7,0,2.6h0c.1.6.2,1.2.3,1.8-1.1.4-1.4,1.2-1.4,2.3,0,2,.3,4,.8,5.9.4,1.9.8,3.7,1.2,5.8-.8-.3-.8-.9-1-1.4-1.4-3.4-3-6.9-5.1-10-.5-.7-.9-1.2-1.9-.5,2.1,1,2.7,3,3.6,4.9-1.8,1.1-2.2,3.1-3.2,4.7-1.1-1.6-2.3-3.1-3.4-4.7.1-1.2-.9-1.5-1.7-2-.4-.2-.8-.5-1.2,0-.3.5,0,.8.5,1.1.7.5,1.2,1.1,2.1,1.3,1.4,2.4,3.4,4.4,4,7.3-.2.2-.3.3-.5.5-2.1-2.2-4.2-4.4-5.7-7.1-.3-.5-.5-.7-1-.6-.4.1-.9.4-.9.9,0,.5.5.5.9.5.9,0,1.2.8,1.7,1.4,2,2.5,4.1,5,6,7.6.8,1,2.1,1.7,2.2,3.2-2-.5-3.6-1.9-5.2-3.1-2.3-1.6-3.9-4-6.3-5.6-.5-.3-1.1-.3-1.5-.8-.6-.6-1.3-.6-1.9,0-.3.4-.5.8-.1,1.2.6.5,1.3.9,2.1.4.4-.3.6-.9,1.3-.7,1.1,1.9,2.7,3.3,3.9,5-.8.3-1.5-.2-2.2-.5-2.1-.9-4.1-1.8-6.5-1.7,3.4.8,6.5,2.6,9.8,3.8,2.4,1.7,5.2,2.5,7.6,4.1-5-1.2-10.3-1.3-14.9-4-1-.7-2.2-1.1-3.3-1.3-1.5-.3-1.6,1.1-2.1,1.9-.6.8-.2,1.4.8,1.6,1.3,1.1,2.8,1.7,4.3,2.3,2.3,1,4.7,1.5,6.9,2.8v.2c-.9.4-2,0-3,.2-.6.1-1.1.4-1.2,1.1,0,.4,0,.9.4,1,.8,0,1.7.8,2.4.2,1.3-1,2.5-.6,3.8-.1.5.6,1.2.4,1.8.5,0,.9.3,1.4,1.5,1.1,1.3-.3,2.7-.6,4.1-.4-3.4,4.6-6.5,9.3-5.9,15.9,4.7-4.2,9.3-7.8,10.9-13.9.5.6.3,1.4,1,2,6.1,4.9,10.8,11.2,16,16.9,1.6,1.8,2.9,3.9,3,6.3,0,2.6.6,5.1.5,7.7h0c-.4.2-.4.5,0,.8M40.6,50.5c-1-.5-1.7-.9-2.4-1.2-1.2-.6-2,.1-2.5,1-.4.9.4,1.3,1,1.5.8.4,1.8.8,2.1-.6.2-1,1.1-.4,1.8-.8M60.6,34.3c0-.7-.4-.9-1-.9-.9,0-1.3.5-1.2,1.3,0,.5,0,1.4.8,1.2.7-.2,1.4-.7,1.4-1.6M54.3,66.7c-1.4-.5-2.4-.4-3.1.5-.3.4-1,.7-.4,1.2.4.4.7-.2,1.1-.4.7-.4,1.4-.7,2.5-1.3"/>
        <path class="cls-11" d="M85.8,101c.2-2.6-.4-5.1-.5-7.7,0-2.4-1.4-4.6-3-6.3-5.2-5.7-10-11.9-16-16.9-.7-.6-.4-1.5-1-2,.2-2.5.4-2.6,2.7-1.5,2.2,1.7,5.1,2.4,7.1,4.6.3.4.7,1.2,1.4.6.5-.5.8-1.2.4-1.9-.4-.7-.9-1.7-1.6-1.8-2.1-.2-3.7-1.7-5.7-2.2-.3-.1-.5-.2-.8-.4-.5-.5-.3-.8.3-.8,1.2,0,2.2-.5,3.3-.8,3-.9,5.9-2.5,9.2-.9.9.4,1.6-.3,2-1.1.4-.7.3-1.4-.5-1.8-.8-.4-1.6-.5-2.3.1-.5.4-.6,1.4-1.6,1.1-1.4-.3-2.8-.7-4.2-1,.5-.9,1.4-.4,1.8-1,.2-.2,0-.3-.2-.3-.1,0-.3,0-.4,0,0-.1-.2-.2-.3-.3.7-.6,1.5-1.2,2.2-1.9,1.2-1.3,2.7-2.4,3.5-4.1.3-.6-.2-1.6.8-2,.8-.3,1.6-.8,2.3-.8.9,0,1.7.3,2.1-.7.4-1.1-.4-1.6-1.2-2.1-.2-.1-.2-.4-.4-.6,1.2-.2,1.8.5,2.3,1.4.3.5.5,1.1,1.1.8,2-.8,4.2-.9,6-2.3,8.9,0,15.6,3.8,19.6,11.8.9,1.7,1.5,3.6,1.6,5.5.4,5.2-1.5,8-6.7,9.2-5.3,1.1-10.7,2.3-16.2,2.2-1.9,0-3.7-.3-5.5-.7-1.3-.3-1.9-.2-1.4,1.5,2,7.1,2.9,14.2,1.2,21.5-.3,1.3-.4,2.7-1.5,3.6"/>
        <path class="cls-5" d="M94.7,46.4c-1.8,1.3-4,1.4-6,2.3-.6.3-.8-.4-1.1-.8-.5-.9-1.1-1.6-2.3-1.4-1.7.6-2.2,3.6-4.9,2.5,0,0-.2.2-.3.3-3.1,3.4-7,5.8-10.7,8.4-1.1.6-2.3,1.2-3.4,1.8-.4.2-.8.4-1,0-.2-.4.2-.7.5-1,.3-.2.5-.4.8-.6,4.2-2.7,7.8-5.9,10.4-10.2.4-.6,1.3-.9,1-1.9-.9-.1-1.2.7-1.6,1.2-.7,1-1.3,2.1-2.1,3-1.1,1.2-1.8,2.8-3.6,3.1,1.3-4.2,3-8.3,3.2-12.9,0-.9,0-1.6-.6-2.1-.5-.4-.9-.4-1.4,0-.8.6-.7,1.5-.4,2.3,1.6,5-.5,9.2-2.8,13.3-.3.5-.6,1.3-1.4.5.8-.9,1-2,1.1-3.1.2-.2.3-.5.2-.8,0-.5.1-1.1.2-1.6.5-.9.5-1.8,0-2.7v-.8c-.2-.9.5-2.1-.7-2.8h0c-.7-1.3-.6-3.2-2.4-3.9-.7-1.8.7-3.1,1.1-4.6,1-4.1,2.9-7.9,4.5-11.7,1.1-2.6,2.7-4.9,4.4-7.2,1.1-1.5,1.3-2.8.5-4.3,2.2-1.2,4.6-1.7,7-1.5,2,.1,3.1,1.4,3.7,3.2.8,2.4,1.4,4.9,2.2,7.4,1.5-2.6,2.8-5,4.3-7.4.3-.4.6-.9.9-1.3,1-1.5,2-1.3,3,0,1.3,1.7,1.8,3.7,2.1,5.7,1,6.5-.1,12.8-1.3,19.1-.6,3.5-1.7,7-3,10.4M80.7,41.4c-.8,0-1.2.5-1.3,1.2-.1.5.3,1.2-.2,1.6-.9.8,0,.8.4.9,1.7.4,1.8-1.1,2.3-2.1.6-1.1-.3-1.4-1.1-1.7"/>
        <path class="cls-13" d="M75.7,10.7c.8,1.6.6,2.8-.5,4.3-1.7,2.2-3.3,4.6-4.4,7.2-1.6,3.8-3.5,7.6-4.5,11.7-.4,1.5-1.8,2.8-1.1,4.6.9,1.6,1,3.4,1.6,5.1,0,1,.1,2,.2,3-.6,1,.3,2.3-.7,3.2-.1-1.6-.3-3.1-.4-4.7-.4-1.9-.3-3.9-2.4-5.7.7,2.2,1.2,3.9,1.7,5.6,0,.8.2,1.5.3,2.3,0,0,0,.1,0,.2,0,.1,0,.2.1.3,0,1.3,0,2.6,0,3.8,0,0-.1,0-.1,0,0,0,0,.2,0,.3-.4,1.1-.2,2.3-1.1,3.5,0-4.9-.9-9.5-1.6-14.1,0-.6-.2-1.3,0-1.7.9-1.5.3-2.7-.4-3.9,0-.7,0-1.5-.8-1.9h0c0-.8,0-1.7,0-2.6,0-.4,0-.7,0-1.1.5-.5.9-1,.9-1.8,1.2-.1,1.3-1.1,1.6-1.9,1.9-5.1,4.3-9.9,8.4-13.7,1-.9,2-1.7,3.2-2.2"/>
        <path class="cls-8" d="M62.6,28.5c0,.8-.3,1.3-.9,1.8-.9.8-1.5.7-2-.5-.2-.5-.7-.9-1-1.3.3-1.3,1.5-1.5,2.5-1.6.9-.1,1.1.9,1.4,1.6"/>
        <path class="cls-11" d="M85.8,101.7c-.4-.3-.4-.5,0-.8,0,.3,0,.5,0,.8"/>
        <path class="cls-6" d="M65.7,51.8c0-1.3,0-2.6,0-3.8,0-.2,0-.3,0-.5,0-.8-.2-1.5-.3-2.3.2,0,.4,0,.7,0,.1,1.6.3,3.1.4,4.7-.5.9-.5,1.7.3,3,.2-2.4,1.7-4.2.4-6.2,0-1-.1-2-.2-3,.3-.4.5-.8.8-1.2,0,0,0,0,0,0-.1,1,.1,1.9.7,2.8v.8c0,.9,0,1.8,0,2.7,0,.5-.1,1.1-.2,1.6l-.2.8c-.1,1.1-.3,2.2-1.1,3.1,0,1-.9,1.6-1.2,3,1.7-1.1,3-2.1,4-3.3.4,0,.8-.2.6-.8h0c1.8-.3,2.6-1.9,3.6-3.1.8-.9,1.4-2,2.1-3,.4-.5.6-1.3,1.6-1.2.3,1-.6,1.3-1,1.9-2.6,4.3-6.2,7.5-10.4,10.2-.3.2-.5.4-.8.6-.3.2-.7.6-.5,1,.2.4.7.2,1,0,1.1-.6,2.3-1.2,3.4-1.8.3.3.6.5.8.8-.7.4-1.3.8-2,1.2-.2,0-.6,0-.5.3.1.2.4,0,.6-.1,1.3,0,2.4-.6,3.6-1,.2-.1.4-.2.6-.3.1,0,.2-.1.4-.2,0,.6.4.9.8,1.3-.1,0-.2.1-.3,0-.4,0-.9,0-1.2.3-1.6.3-3.1,1.1-4.8.8-1.5-.2-2.1.5-2.1,1.9,0,.1-.2.3-.3.4,0,0,0,0,.1,0,0-.2,0-.3.1-.5,1,0,1.9-.2,2.9-.3-.4,1-.4,2.2-2,2,1,.5,2.1.8,1.8,2.2-2.2-1.1-2.4-1-2.7,1.5-1.6,6.1-6.2,9.7-10.9,13.9-.6-6.6,2.5-11.3,5.9-15.9.6-1.2,2-1.6,2.6-2.7h0c.3,0,.6,0,.7-.4.9-.8,1-1.4-.4-1.8-1.3-.3-1.8-1.4-2.7-2.3.2,0,.5,0,.5,0,0-.4-.2-.5-.5-.6h0c-.3-.4-.7-.5-1.2-.4h0c0-.3,0-.4-.4-.4h0c.2-.4,0-.6-.4-.7-.3-.2-.5-.3-.8,0h0c0-1.5-1.4-2.1-2.2-3.1-1.9-2.6-4-5-6-7.6-.5-.6-.7-1.4-1.7-1.4-.3,0-.9,0-.9-.5,0-.5.4-.8.9-.9.5-.2.8.1,1,.6,1.5,2.7,3.6,4.9,5.7,7.1.2.2.4.5.5.4.4-.3.1-.6,0-.9-.6-2.8-2.7-4.9-4-7.3.1-.1.2-.2.3-.3l3.4,4.7c1.4,5.3,4.7,9.1,9,12.2,0,.1.1.3.1.3.3,0,.2-.2,0-.4-1.1-3.4-2.2-6.8-3.3-10.3-.7-2.3-1.4-4.5-2.7-6.5-.9-1.8-1.5-3.8-3.6-4.9,1-.8,1.4-.3,1.9.5,2.1,3.1,3.6,6.5,5.1,10,.2.4.2,1,1,1.4-.4-2-.8-3.9-1.2-5.8-.5-2-.7-3.9-.8-5.9,0-1.1.3-1.9,1.4-2.3.2,0,.3,0,.5,0,.7,1.2,1.3,2.5.4,3.9-.3.4-.1,1.1,0,1.7.7,4.6,1.6,9.2,1.6,14.1.9-1.2.7-2.4,1.1-3.5,0-.1,0-.2,0-.3M63,59.9h.2c0,0-.1,0-.2,0,0,0-.1,0-.2,0,0,0,.1,0,.2,0"/>
        <path class="cls-8" d="M60.7,59c.8.9,1.4,2,2.7,2.3,1.4.3,1.3,1,.4,1.8-.3,0-.6,0-.7.4h0c-1.2-.4-2.2,1.1-3.5.4h0c0-.1,0-.3,0-.4.4-.2.8-.4,1.5-.8-3.8,0-7.1,0-10.4-.2-2.1-1.3-4.6-1.8-6.9-2.8-1.5-.7-3.1-1.3-4.3-2.3.2-.2.4-.4.6-.6,1,0,1.8.6,2.7,1,2.9,1.3,5.8,2.8,9.1,2.9,2.4,0,4.9,0,7.3,0-.8-.8-1.8-.9-2.7-1-4.5-.1-8.6-1.2-12.3-3.9,0-.2,0-.4,0-.6,4.6,2.6,9.9,2.7,14.9,4-2.4-1.6-5.2-2.4-7.6-4.1.4-.8.2-1.3-.7-1.6-.2,0-.3,0-.5,0h0c-1.3-1.7-2.9-3.1-3.9-5h.1c2.4,1.4,4,3.8,6.3,5.4,1.7,1.2,3.2,2.5,5.2,3.1h0c.1.1.2.3.4.4.2.3.5.4.8.3h0c.1.1.3.3.4.4h0c.3.4.7.5,1.2.4h0c0,.2,0,.4,0,.6"/>
        <path class="cls-5" d="M64.1,59.8c-4.3-3.1-7.7-6.9-9-12.2,1-1.6,1.4-3.6,3.2-4.7,1.3,2,2,4.3,2.7,6.5,1.1,3.4,2.2,6.8,3.3,10.3h-.2c0,0,0,0,0,0Z"/>
        <path class="cls-7" d="M50.5,62.4c3.3.3,6.7.3,10.4.2-.7.4-1.1.6-1.5.8-.3.2-.3.3,0,.4h0c-.3.2-.6.4-.8.6-1.9.2-3.8.7-5.7.2-.6-.2-1.2-.5-1.8-.7-.8-.2-.9-.7-.6-1.3v-.2Z"/>
        <path class="cls-3" d="M58.7,64.4c.3-.2.6-.4.8-.6,1.3.7,2.3-.8,3.5-.4-.6,1.1-2.1,1.5-2.6,2.7-1.4-.2-2.8.2-4.1.4-1.2.3-1.4-.2-1.5-1.1.9,0,1.7-.1,2.6-.2.7,0,.9-.1,1.3-.9"/>
        <path class="cls-8" d="M50.6,62.5c-.3.6-.2,1.1.6,1.3.6.2,1.2.5,1.8.7,0,.1,0,.2,0,.4-1.3-.5-2.5-.9-3.8.1-.7.5-1.6-.1-2.4-.2-.4,0-.4-.6-.4-1,0-.7.6-1,1.2-1.1,1-.2,2.1.2,3.1-.2"/>
        <path class="cls-8" d="M40.6,50.5c-.8.4-1.6-.2-1.8.8-.3,1.4-1.3,1-2.1.6-.6-.3-1.4-.7-1-1.5.5-.9,1.2-1.7,2.5-1,.7.4,1.5.7,2.4,1.2"/>
        <path class="cls-3" d="M44,55c0,.2,0,.4,0,.6-.4-.2-.8-.3-1.2-.5-2.1-1-2.2-.9-2.8,1.5-.2.2-.4.4-.6.6-1-.2-1.4-.8-.8-1.6.6-.8.6-2.3,2.1-1.9,1.2.3,2.3.6,3.3,1.3"/>
        <path class="cls-3" d="M50.7,53.3c.9.3,1.1.8.7,1.6-3.3-1.2-6.3-3-9.8-3.8,2.3,0,4.4.8,6.5,1.7.7.3,1.3.8,2.2.5h0c0,0,0,.2.1.2.1,0,.2-.2.3-.3"/>
        <path class="cls-8" d="M60.6,34.3c0,.9-.7,1.5-1.4,1.6-.8.2-.7-.7-.8-1.2-.1-.9.3-1.4,1.2-1.3.5,0,1,.2,1,.9"/>
        <path class="cls-8" d="M46.3,48.3c-.7-.2-.9.4-1.3.7-.8.5-1.5.2-2.1-.4-.4-.4-.2-.8.1-1.2.6-.6,1.3-.7,1.9,0,.4.5,1,.5,1.5.8,0,0-.1.1-.1.1"/>
        <path class="cls-8" d="M51.7,42.9c-.1.1-.2.2-.3.3-.9-.2-1.4-.8-2.1-1.3-.4-.3-.8-.6-.5-1.1.3-.5.8-.2,1.2,0,.8.4,1.8.7,1.7,2"/>
        <path class="cls-6" d="M54.3,66.7c-1,.5-1.8.9-2.5,1.3-.4.2-.6.9-1.1.4-.5-.5,0-.9.4-1.2.8-.9,1.7-1,3.1-.5"/>
        <path class="cls-6" d="M52.9,64.9c0-.1,0-.2,0-.4,1.9.5,3.8,0,5.8-.2-.5.7-.6.8-1.3.9-.9,0-1.7.1-2.6.2-.6,0-1.3,0-1.8-.5"/>
        <path class="cls-2" d="M61.7,31.4c0,.9,0,1.7,0,2.6-.9-.8-1.2-1.7,0-2.6"/>
        <path class="cls-2" d="M62.6,35.8c-.2,0-.3,0-.5,0-.1-.6-.2-1.2-.3-1.8.9.4.8,1.2.8,1.9"/>
        <path class="cls-8" d="M73.8,59.5c-.4-.4-.9-.6-.8-1.3,2-1.7,4.7-2.7,6.1-5.1-3.2,1.3-5.7,3.8-8.7,5.3-.3-.3-.6-.5-.8-.8,3.7-2.6,7.6-5,10.7-8.4,0,0,.2-.3.3-.3,2.6,1.2,3.1-1.9,4.9-2.5.1.2.2.5.4.6.8.5,1.6,1,1.2,2.1-.4,1.1-1.2.8-2.1.7-.8,0-1.6.5-2.3.8-1.1.4-.6,1.4-.8,2-.7,1.6-2.2,2.8-3.5,4.1-.7.7-1.5,1.3-2.2,1.9-.2.1-.3.3-.5.4.3.3.5,0,.8-.1.1,0,.3,0,.4,0,.2,0,.4,0,.2.3-.4.5-1.3,0-1.8,1,1.4.3,2.8.7,4.2,1,.9.2,1.1-.7,1.6-1.1.7-.6,1.5-.5,2.3-.1.8.4.8,1.2.5,1.8-.4.8-1.1,1.5-2,1.1-3.3-1.6-6.2,0-9.2.9-1.1.3-2.2.8-3.3.8-.6,0-.8.3-.3.8,0,.5.2.9.8.4,2,.5,3.5,2,5.7,2.2.7,0,1.2,1.1,1.6,1.8.4.7.1,1.4-.4,1.9-.7.6-1-.2-1.4-.6-2-2.2-4.8-2.9-7.1-4.6.3-1.4-.8-1.7-1.8-2.2,1.6.2,1.6-.9,2-2-1,0-2,.2-2.9.3h0c0-1.5.6-2.1,2.1-1.9,1.7.3,3.2-.6,4.8-.8h0c.4.6.8.6,1.2,0h0c.2,0,.4,0,.6,0,0-.1-.2-.3-.2-.4M83.5,49.7c-.2-.1-.4-.2-.6-.2-.2,0-.3.2-.5.3.2,0,.3.2.5.2.2,0,.3-.1.6-.3M81.9,50.1s0,0-.1,0c0,0,0,0-.1,0,0,0,0,0,.1.1,0,0,0,0,.1,0"/>
        <path class="cls-6" d="M69.5,65.7c-.6.6-.7.1-.8-.4.3.1.5.2.8.4"/>
        <path class="cls-8" d="M69.7,53.7c-1.1,1.2-2.3,2.2-4,3.3.2-1.4,1.1-2,1.2-3,.8.8,1.2,0,1.4-.5,2.3-4.2,4.4-8.4,2.8-13.3-.3-.8-.3-1.7.4-2.3.5-.4.9-.4,1.4,0,.7.6.7,1.2.6,2.1-.1,4.5-1.9,8.6-3.2,12.9h0c-.5,0-.6.4-.6.8"/>
        <path class="cls-8" d="M80.7,41.4c.8.2,1.7.6,1.1,1.7-.5.9-.6,2.4-2.3,2.1-.3,0-1.3-.1-.4-.9.5-.4.1-1.1.2-1.6.2-.7.5-1.2,1.3-1.2"/>
        <path class="cls-3" d="M67.6,42.4c-.3.4-.5.8-.8,1.2-.6-1.7-.7-3.5-1.6-5.1,1.8.7,1.6,2.5,2.4,3.9"/>
        <path class="cls-3" d="M68.3,45.2c-.6-.8-.8-1.8-.7-2.8,1.2.7.6,1.8.7,2.8"/>
        <path class="cls-3" d="M68.3,48.6c0-.9,0-1.8,0-2.7.4.9.5,1.8,0,2.7"/>
        <path class="cls-3" d="M68,51c0-.3.1-.5.2-.8.2.3,0,.5-.2.8"/>
        <path class="cls-3" d="M66,45.2c-.2,0-.4,0-.7,0-.5-1.7-1-3.4-1.7-5.6,2.1,1.8,2,3.8,2.4,5.7"/>
        <path class="cls-3" d="M67.1,46.7c1.3,2-.1,3.8-.4,6.2-.8-1.3-.8-2.2-.3-3,1-.9.1-2.2.7-3.2"/>
        <path class="cls-3" d="M65.6,47.5c0,.2,0,.3,0,.5,0-.1,0-.2-.1-.3,0,0,0-.1,0-.2"/>
        <path class="cls-3" d="M65.7,51.8c0,.1,0,.2,0,.3,0,0,0-.2,0-.3,0,0,0,0,.1,0"/>
        <path class="cls-10" d="M70.3,58.3c3.1-1.5,5.6-4,8.7-5.3-1.4,2.5-4,3.5-6.1,5.1-.1,0-.2.1-.4.2-.2.1-.4.2-.6.3-1.2.3-2.3,1-3.6,1,0,0-.1-.1-.2-.2.7-.4,1.3-.8,2-1.2"/>
        <path class="cls-4" d="M59.1,57.6c-.3,0-.6,0-.8-.3.1-.1.3-.3.4-.4.3.1.5.3.4.7"/>
        <path class="cls-4" d="M60.7,58.4c-.5.1-.9,0-1.2-.4.5-.1.9,0,1.2.4"/>
        <path class="cls-4" d="M60.7,59c0-.2,0-.4,0-.6.3,0,.6.2.5.6,0,0-.3,0-.5,0"/>
        <path class="cls-8" d="M72.2,59.9c.3-.4.8-.4,1.2-.3,0,.1,0,.2,0,.4h0c-.4,0-.8,0-1.2,0h0Z"/>
        <path class="cls-9" d="M55.4,50.5c.2.3.4.6,0,.9,0,0-.3-.3-.5-.4.2-.2.3-.3.5-.5"/>
        <path class="cls-5" d="M69.7,53.7c0-.4.1-.7.6-.8.2.6-.1.7-.6.8"/>
        <path class="cls-9" d="M58.7,56.8c-.1.1-.3.3-.4.4-.1-.2-.2-.3-.4-.5.3-.3.5-.1.8,0"/>
        <path class="cls-8" d="M64.4,59.7c.1.2.2.3,0,.4,0,0,0-.2-.1-.3,0,0,0-.2,0-.2h.2Z"/>
        <path class="cls-10" d="M68.5,59.6c-.2.2-.5.4-.6.2-.1-.3.3-.2.5-.3,0,0,.1.1.2.2"/>
        <path class="cls-11" d="M73.4,59.9c0-.1,0-.3,0-.4.1,0,.2,0,.3,0,0,.1.2.3.2.4-.2,0-.4,0-.6,0"/>
        <path class="cls-8" d="M65.3,62.6c0,.2,0,.3-.1.5,0,0,0,0-.1,0,0-.1.2-.3.3-.4,0,0,0,0,0,0"/>
        <path class="cls-3" d="M63,63.4c.2-.3.4-.4.7-.4-.1.3-.4.4-.7.4"/>
        <path class="cls-4" d="M59.5,58c-.1-.1-.3-.3-.4-.4.3,0,.4,0,.4.4"/>
        <path class="cls-8" d="M72.1,58.7c.2-.1.4-.2.6-.3-.2.1-.4.2-.6.3"/>
        <path class="cls-8" d="M63,59.9c0,0-.1,0-.2,0,0,0,.1,0,.2,0Z"/>
        <path class="cls-8" d="M63,59.9c0,0,.1,0,.2,0h-.2Z"/>
        <path class="cls-9" d="M39.9,56.7c.7-2.5.7-2.5,2.8-1.5.4.2.8.3,1.2.5,3.7,2.6,7.9,3.7,12.3,3.9.9,0,1.9.2,2.7,1-2.4,0-4.9,0-7.3,0-3.3,0-6.2-1.5-9.1-2.9-.9-.4-1.6-1-2.7-1"/>
        <path class="cls-3" d="M59.5,63.8c-.3-.1-.3-.2,0-.4,0,.1,0,.3,0,.4"/>
        <path class="cls-9" d="M50.7,53.3c-.1,0-.2.2-.3.3,0,0,0-.2-.1-.3.2,0,.3,0,.5,0"/>
        <path class="cls-11" d="M83.5,49.7c-.2.1-.4.3-.6.3-.2,0-.3-.2-.5-.2.2,0,.3-.2.5-.3.2,0,.3.1.6.2"/>
        <path class="cls-11" d="M72.3,59.9c.4,0,.8,0,1.2,0-.4.5-.8.6-1.2,0"/>
        <path class="cls-11" d="M76.3,58.9c-.2.2-.5.4-.8.1.2-.1.3-.3.5-.4,0,.1.2.2.3.3"/>
        <path class="cls-11" d="M81.9,50.1c0,0,0,0-.1,0,0,0,0,0-.1-.1,0,0,0,0,.1,0,0,0,0,0,.1,0"/>
      </g>
    </g>
  </g>
</svg>