<?xml version="1.0" encoding="UTF-8"?>
<svg xmlns="http://www.w3.org/2000/svg" xmlns:xlink="http://www.w3.org/1999/xlink" version="1.1" viewBox="0 0 131.4 116.5">
  <defs>
    <style>
      .cls-1 {
        fill: none;
      }

      .cls-2 {
        fill: #dc6d80;
      }

      .cls-3 {
        fill: #f0a9b1;
      }

      .cls-4 {
        fill: #f4c7c7;
      }

      .cls-5 {
        fill: #e7818f;
      }

      .cls-6 {
        fill: #f0afb6;
      }

      .cls-7 {
        fill: #ba4858;
      }

      .cls-8 {
        fill: #f0b4b8;
      }

      .cls-9 {
        fill: #ca5965;
      }

      .cls-10 {
        fill: #ec8f9c;
      }

      .cls-11 {
        fill: #f6d2d2;
      }

      .cls-12 {
        clip-path: url(#clippath);
      }

      .cls-13 {
        fill: #f8d7d6;
      }
    </style>
    <clipPath id="clippath">
      <rect class="cls-1" y="0" width="131.4" height="116.5"/>
    </clipPath>
  </defs>
  <!-- Generator: Adobe Illustrator 28.7.5, SVG Export Plug-In . SVG Version: 1.2.0 Build 176)  -->
  <g>
    <g id="Layer_1">
      <g class="cls-12">
        <path class="cls-11" d="M53.1,89.4c-5.3-.2-10.5.2-15.7,1.2-2.5.5-5.2.3-7.6-1.1-1.1-.6-1.8-1.2-1.3-2.7.4-1.4,0-3-.3-4.4-1.5-7.2,1.3-12.5,6.8-16.8.4-.3,1-.6.9-1.1,0-.6-.8-.5-1.3-.6-5.7-1.5-10.7-4.1-14.8-8.4-1.5-1.6-1.5-1.7.2-3,1-.8,1.1-1.5.2-2.4-1.4-1.3-2.2-3-3.1-4.7-.4-.8-.3-1.3.5-1.6,5-2.1,9.8-4.7,15.1-6.3,4.3-1.3,8.5-1,12.6.8,1.3.5,2.6,1,4.4,1.7-1.4-2.7-2.5-5.1-3.2-7.7-1.7-6.3-1.5-12.5,2.1-18.2,1.4-2.1,3.4-3.1,6-2.7,1,.2,1.7-.3,2-1.1.6-1.6,1.6-1.3,2.7-.8,3.5,1.6,6.5,4,9,6.9,3.5,4,6.1,8.6,8.4,13.4.1.2.1.5.2.8-1.2.1-3-1.5-3.5,1.2,0,.3-1.2,0-1,.6.4,1.7-.3.9-.9.5-.3-.2-.6-.4-.9.2,1,.9,2.7,1,3,2.6h0c-.3,0-.7,0-1,0-.3-1.1-.7-.5-1,0-1.1.2-1.2.8-.8,1.7.3.7.7,1.4,1,2.1.6,1.8.5,3.5-1.1,4.8-.4-.8-.7-1.7-1.2-2.4-1.2-1.9-2.3-3.9-4.1-5.4-.5-.4-1-.5-1.5,0-.4.3-.8.7-.4,1.1.8.9.6,1.9.8,2.9.8,3.7,2.3,7.1,2.8,10.9,0,0,0,.2,0,.2.1.3.2.5.3.8,0,0,0,.1,0,.2,0,0,0,.2.1.3.1.9.3,1.8.3,2.7,0,.8,0,1.7,0,2.5-1.4-4-3.4-7.7-5.6-11.2,1,3.8,2.7,7.3,3.5,11.1-1.2-.8-1.7-2.1-2.6-3.1-.4-.7-.7-1.4-1.2-2.1-2.1-2.7-4.2-5.4-6.3-8-.4-.5-.9-.9-.3-1.6.7-.8-.2-1.3-.6-1.9-.4-.4-.8-.2-1.2.1-.7.6-.7,1.3-.2,2,.5.7,1.1,1.3,1.5,2.1,2,3.4,4.6,6.4,6.9,9.5,0,.3.4.6.1,1-2.7-1.3-4.9-3.2-7.1-5.1-.3-.3-.5-.6-.3-1,.3-.9-.6-1.1-1.1-1.4-.2-.1-.5-.2-.6,0-.3.6,0,1.1.3,1.6.6.7,1.2,1.5,1.9,2.1,1.9,1.6,3.9,3.2,5.8,4.8-1,.1-1.7,1-2.7.8-.4,0-.6.3-.6.7.1,1.5-.8,1.3-1.8,1.3-5.3-.1-10.4.5-15.4,2.4-1.5.6-2.7,1.5-4.1,2.7,1.9.1,3.4,0,4.9.5,1.3.5,2.6.3,3.9.2,6.2-.5,12-2.6,18.2-3.2.4,0,1-.4,1.3,0,.3.4-.1,1-.3,1.4-.1.3-.8.4-.6.8,1.5,1.2,2.6.1,3.8-.5,0,.5-.2.9-.2,1.4-1.5.6-1.9,2.2-2.7,3.3-2.7,3.4-5.6,6.6-7.8,10.4-1.8,3.1-2.7,6.4-3.5,9.9,0,.1,0,.2,0,.4M56.8,58.3c-.2-.1-.4-.2-.5-.2-.1,0-.2.2-.3.3.1,0,.2.2.4.2.1,0,.2-.1.4-.3"/>
        <path class="cls-13" d="M120.8,80.9c2.1,1.2,2.3,2.6.6,4.3-2.7,2.8-6.1,4.2-9.8,4.6-9.1.9-17.7-.9-26-4.5-1.2-.5-2.3-1.2-3.1-2.3-.4-1.4-1.7-1.9-2.3-3.2-1.5-3.1-4.1-5.5-6.6-7.8-.5-1-.9-1.9-1.4-2.9-.2-.4-.5-.8-.2-1.1.5-.4.8.1,1.1.4,1.4,1.4,2.8,2.7,4.5,3.5.8.4,1.7.5,2.1-.3.4-.8-.4-1.3-1.1-1.6-1.4-.6-2.8-1.2-4-2.1.8.2,1.2-.7,1.8-.7,2.2,1,4.9.8,6.4,3.1.3.5.9.3,1.4.3,2.4-.2,4.7-.5,7.1-.7.5,0,.8-.2,1.2.3.7.9,1.4.3,2.1,0,.4-.2.6-.7.3-1.2-.5-.9-1.5-1-2.1-.6-1.4,1-2.9.5-4.4.8-.4,0-.9.3-1.2-.3-.7-1.6-1.9-1.7-3.4-1.3-.7.2-1.3,0-2-.1-1.9-.4-3.7-1.2-5.4-1.9,0,0-.2-.2-.3-.2,0-.2,0-.5,0-.7.1,0,.2,0,.3,0,1.1,0,2.2,0,3.2.2,2.6.5,5,.3,7.4-.9,1.4-.3,2.4-1.1,3.5-1.9.1.1.2.2.2.3.3.7.6,1.6,1.7,1.3,1-.2,1-1.1,1.1-1.9.2-1.2-.4-1.1-1.3-1.1-.5,0-.4-.7-.7-1.1,2.2.6,4.4.3,6.6.4,4.7.2,9.2,1.4,13.2,4.2,5.5,3.9,8,9.2,8.1,15.8,0,.7.4,1,1,1.1"/>
        <path class="cls-13" d="M89.6,19c2.3-1.4,3.4-1.4,5.3.4.6.6,1,.5,1.7,0,1.8-1,3.7-2,5.9-1.9,1.5,0,2.3.8,2.8,2,1.1,3,1.5,6.1,1.3,9.2-.4,5.1-1.3,10.1-3,14.9-1.4,3.9-3.1,7.7-5.9,10.8-.3.4-1,.9-.7,1.4.3.6,1,.3,1.6.3.8,0,1.6,0,2.3.3-1.5.7-3.2.1-4.8.4-1.7.3-3.6.4-4.5,2.2-.7,0-1.4-.2-2-.1-1.9.4-3.7.9-5.6,1.4-.6.1-1.2.5-1.7-.1,3.9-1.3,6.9-4.2,10.7-5.9.4-.2.8-.5.5-1.1-.3-.5-.7-.3-1.2-.2-1.7.6-3,1.8-4.6,2.6-.1-.1-.2-.3-.3-.4.4-.7,1.3-1,1.5-1.9,0,0,0,0,.1,0,0,0,0,0,0,0,0,0,0,.1-.1.2-1.7.4-2.8,1.6-4.2,2.5-3.4,2.3-7.1,3.7-11.1,4.5,1.3-1.1,2.7-2,4.1-2.9,3.2-2.1,6.2-4.4,9-7,.5-.4,1.3-1,.7-1.7-.8-.8-1.1.3-1.5.7-2.3,2.3-4.8,4.5-7.8,6-.1-.1-.2-.2-.3-.3,2.1-1.9,4.2-4,5.7-6.4h.1s0-.1,0-.1c.2-.3.4-.7.6-1,1.3-1.2,1.3-3.3,2.8-4.4.3-.2.6-.3.4-.8-.1-.2-.1-.6-.5-.6-.4,0-.6.3-.7.6-.9,1.6-1.7,3.2-2.6,4.8-.4.5-.8,1-1.3,1.5-.7.7-1,1.9-2.2,1.9.9-2.9,1.5-5.8,2.1-8.7.4-1.9,1.5-2.3,3.1-1.1.4.3.8.8,1.3.3.5-.4,1-.8,1-1.5,0-.6-.5-1-1.1-1.2-.6-.2-1.3-.2-1.9.3-.8,0-1.6-.4-2.4.3-.2.2-.8.6-1.1-.2-.3-1-1-1.9-.7-2.9.7-2.5,1.2-5.1,2.9-7.2.9-1.2,1.2-2.7,2.3-3.8.2-.2.2-.6,0-.8-1.1-1.2-.1-1.8.7-2.4.7-.5,1.5-.9,1.6-1.9.2-.3.4-.3.7-.3.5,0,1,0,1-.7M96.9,52.1c0-.9-.3-1.9-1.5-1.9-1,0-1.5.8-1.4,1.9,0,1.1.1,2.4,1.4,2.5,1.3,0,1.4-1.3,1.5-2.5M92.8,52q-2.2-1.4-3.4-.8c1,1.7,1.4,1.8,3.4.8"/>
        <path class="cls-13" d="M53.1,89.4c0-.1,0-.2,0-.4,1.4.1,2.9,0,4.1-.9,3.9-2.6,7.2-5.8,9.3-10.1,1.5-2.9,2.1-6,2.9-9.1.4,1.1.9,2.1.9,3.3-.6,0-.8.5-.8,1.1-.1,2-.6,4-1.3,5.9-.5,1.5-.6,3-.1,4.5,1.3,4.7,2.7,9.3,4.1,14,1.3,4.5,3.1,9,3.2,13.8-3.4.1-4.6-2.3-5.7-4.9-1.1-2.4-1.2-2.4-3.2-.9-.9.7-1.8,1.4-2.2,2.5-.3.8-.8.8-1.6.6-5.6-1.4-7.6-5.7-8.7-10.7-.6-2.9-.9-5.9-.7-8.9"/>
        <path class="cls-4" d="M75.3,111.6c-.1-4.8-1.9-9.3-3.2-13.8-1.4-4.7-2.7-9.3-4.1-14-.4-1.5-.4-3,.1-4.5.7-1.9,1.2-3.9,1.3-5.9,0-.6.2-1,.8-1.1,1,.1.6,1.9,1.8,1.8.3-1.2-.4-2.3-.3-3.4,1,.2.7,1.5,1.7,1.3,2.5,2.3,5.1,4.7,6.6,7.8.6,1.3,2,1.8,2.3,3.2-.4,0-.7,0-.5.6,2.8,7.3,1.4,14.4-1.4,21.4-.9,2.3-2,4.4-3.7,6.2-.5.5-.9.9-1.6.3M72.5,76.2c0,1.2.4,2,1.4,2,1.1,0,1.6-1,1.7-2,.1-1.1-.8-1.4-1.7-1.4-1,0-1.6.5-1.4,1.4"/>
        <path class="cls-7" d="M73.5,72c-1,.2-.7-1.1-1.7-1.3-.2,1.2.6,2.2.3,3.4-1.2,0-.8-1.7-1.8-1.8,0-1.2-.5-2.2-.9-3.3-1.1-1-1.9-2.1-2.3-3.5,0-.5.2-.9.2-1.4.4-.4.4-.7-.2-1-.5-.2-1.2-.5-1.1-1.1.3-1.3-.7-1.7-1.2-2.5-.5-.7-1.5-1-1.9-1.9.8-.6.8-.6-.4-1.8-.2,0-.3,0-.5,0h0c.2-.4,0-.7-.1-1,.4,0,.9,0,1.3-.1.9,1,1.3,2.3,2.6,3.1-.8-3.8-2.5-7.3-3.5-11.1,2.1,3.6,4.2,7.2,5.6,11.2,0-.8,0-1.7,0-2.5,0-.9-.2-1.8-.3-2.7,0-.1,0-.3,0-.4,0-.3-.2-.5-.3-.8.3-.4.6-.4.9,0,.3,2.1.6,4.2.9,6.6,1.3-1.3.6-2.9,1.4-3.9.3.5-.2,1.1.5,1.7,1.9-5.6,3.7-11,4.3-16.7.3,4.6-.6,9.1-2.1,13.8.5-.4.7-.5.7-.6,2.6-5.5,2.9-11.2,2.4-17.1-.1-1.4-.4-2.7.9-3.7,0,0,0,.2.1.2,0,.7,1,1.3.6,2-.7,1.4-.5,2.9-.4,4.3.2,4.9-.2,9.7-2.1,14.4-.4,1.1-.9,2.1-1.4,3.3.9,0,1.1-.6,1.4-1.1,1.3-1.9,2.5-3.9,3.8-5.8,0,.9-.3,1.7-.8,2.5-.3.5-.7,1-.3,1.7-.4,0-.6.3-.7.7,0,0,0,.1-.1.2,0,0,.1,0,.2-.1.4,0,.6-.3.7-.7.4,0,.7-.3.9-.6.2-.3.5-.4.4-.8h0c.6,0,1-.3.7-1h0c1.3,0,1.6-1.2,2.2-1.9.4-.5.8-1,1.3-1.5.3,0,.5.1.6.4-.2.3-.4.7-.6,1,0,0,0,0-.1.1-1.5,2.5-3.6,4.5-5.7,6.4-.2,0-.3.2-.5.2-.8.3-1.5.7-1.9,1.5.9-.1,1.7-.4,2.3-1.1.1-.1.3-.2.4-.4,3-1.5,5.4-3.7,7.8-6,.4-.4.8-1.5,1.5-.7.7.7-.2,1.2-.7,1.7-2.8,2.6-5.8,5-9,7-1.4.9-2.8,1.8-4.1,2.9,4-.8,7.7-2.2,11.1-4.5,1.3-.9,2.5-2.1,4.2-2.5h0c-.2.9-1.1,1.2-1.5,1.9-.2.2-.5.4-.7.6-.3.2-.6.4-.8.6-.3.2-.5.4-.8.6-.1.1-.2.2-.4.3-.1.1-.2.2-.3.4-.3,0-.5.1-.6.4,0,0-.1,0-.1,0,0,0,0,0,0,0,0,0,.1-.1.2-.2.3,0,.6,0,.7-.3.1,0,.3-.2.4-.3.1-.1.2-.2.4-.3.4,0,.7-.1.9-.5.3-.2.5-.4.8-.6.3-.2.5-.4.8-.6,1.5-.8,2.9-2,4.6-2.6.5-.2.9-.3,1.2.2.4.6-.1.9-.5,1.1-3.7,1.7-6.8,4.5-10.7,5.9-2.8,0-5,1.9-7.8,1.8.9.3,1.7.3,2.6.3,2.2,0,4.4,0,6.7,0-1,.4-2,.7-3.1.7-2,.3-3.9.4-6.3.4.9.9,1.7.4,2.2.9-.1,0-.2,0-.3,0h-2.4c.9.9,1.7.6,2.3.7,0,0,.2.2.3.2-.7.3-.3.8-.2,1.2-1.2-.6-2.4-1.1-3.6-1.7-.3-.1-.6-.2-.8,0-.2.3,0,.5.1.8.7.8,1.4,1.6,2.4,2.1,1.2,1,2.7,1.5,4,2.1.7.3,1.5.8,1.1,1.6-.4.8-1.3.7-2.1.3-1.8-.9-3.2-2.2-4.5-3.6-.3-.3-.6-.8-1.1-.4-.3.3,0,.7.2,1.1.5,1,.9,1.9,1.4,2.9M70.8,60.7c-.1,0-.3.2-.4.3-.4.1-1,0-1,.7.5,0,.9-.2,1.1-.6.1-.1.2-.2.3-.4.1-.1.2-.2.3-.3.6,0,1.1-.2,1.3-.9-.8,0-1.1.4-1.4.9-.1.1-.2.2-.3.3M72.9,53.9c.2-.1.3-.3.3-.5,0,0,0,0-.1,0,0,.2-.1.4-.2.6,0,.1-.2.2-.3.3,0,0,.1,0,.2.1,0-.1,0-.3.1-.4M74,58.4c.4,0,.6-.3.7-.7,0,0,.2-.2.2-.2-.1-.2-.2,0-.3,0-.4,0-.6.3-.7.7,0,0,0,.2-.1.2,0,0,.2,0,.2-.1M71.7,69.8c0,.1,0,.2,0,.3,0,.2.1.2.2,0,0,0,0-.1,0-.2,0,0-.1-.1-.2-.2M71.7,67.6s.1,0,.1-.1c0,0,0,0,0-.1,0,0-.1,0-.1.1,0,0,0,0,0,.1M65.9,58.5h0c0,0,0,0,0,0h0ZM73.8,56.4s0,0,0-.1c0,0,0,0,0,0,0,0,0,0,0,.1,0,0,0,0,0,0M70.4,56.5h0c0,0,0,0,0,0h0Z"/>
        <path class="cls-4" d="M91.6,59.2c1-1.8,2.8-2,4.5-2.2,1.6-.2,3.2.4,4.8-.4,6.1.3,12.1,1,17.8,3.5,4.8,2.1,8.7,5.5,10.1,10.9.6,2.2.8,4.7-1.3,6.5-1.3,1.1-3,1.4-4.6,1.3-1.6-.1-2.4.4-2,2.1-.7,0-1-.3-1-1.1-.1-6.6-2.6-12-8.1-15.8-4-2.8-8.5-4-13.2-4.2-2.2,0-4.4.2-6.6-.4,0,0-.1-.1-.2-.2"/>
        <path class="cls-4" d="M79,49c-1.3,1.9-2.5,3.9-3.8,5.8-.3.4-.5,1.1-1.4,1.1.5-1.1,1-2.2,1.4-3.3,1.9-4.6,2.3-9.4,2.1-14.4,0-1.4-.3-2.9.4-4.3.4-.7-.5-1.3-.6-2,.6-.2,1-.6,1.3-1.2,2-3.6,4.2-7.1,7.6-9.7.6-.4,1.1-.9,1.9-1.1,0,1-.9,1.4-1.6,1.9-.8.6-1.8,1.3-.7,2.4.2.2.2.6,0,.8-1.1,1.1-1.4,2.6-2.3,3.8-1.7,2.1-2.2,4.7-2.9,7.2-.3,1,.3,2,.7,2.9.2.7.9.4,1.1.2.7-.7,1.6-.4,2.4-.3,0,.5-.3.5-.7.6-1.1.2-2.6.6-2.8,1.8-.5,2.6-1.4,5.1-2,7.7"/>
        <path class="cls-8" d="M77,31.7c-1.2,1-1,2.3-.9,3.7.6,5.9.2,11.7-2.4,17.1,0,.1-.2.2-.7.6,1.5-4.7,2.4-9.2,2.1-13.8-.6,5.7-2.4,11.1-4.3,16.7-.7-.6-.2-1.3-.5-1.7-.8,1.1,0,2.7-1.4,3.9-.3-2.4-.6-4.5-.9-6.6.5-.4.5-.7-.2-.7,0-.2-.2-.5-.2-.7.5-1.1,1.8-1.4,2.2-2.6,1,.8.6,1.8.8,2.6.2.8.3.2.4,0,1.2,0,1.6-.7,1.2-1.8-.1-.3-.1-.5-.2-.8.3-.2,0-.3,0-.4-.1-.3-.2-.6-.4-.8.7-.6.2-.7-.3-.8-.2-.3-.3-.5-.5-.8,1.6-1.3,1.7-3,1.1-4.8-.3-.7-.6-1.4-1-2.1-.4-.9-.3-1.5.8-1.7h0c0,.5-.3,1.1.3,1.5.1,0,.5,0,.7-.2.6-.4.2-.9,0-1.3h0c.3,0,.7,0,1,0,0,0,0,0,.1.1,0,0,0,0-.1-.1-.3-1.7-2-1.8-3-2.6.3-.6.6-.4.9-.2.6.4,1.3,1.2.9-.5-.1-.6,1-.2,1-.6.4-2.6,2.2-1,3.5-1.2,0,.3,0,.7,0,1"/>
        <path class="cls-4" d="M89.6,19c0,.7-.5.7-1,.7.2-.4.5-.7,1-.7"/>
        <path class="cls-6" d="M67.1,65.5c.4,1.4,1.3,2.5,2.3,3.5-.9,3.1-1.5,6.2-3,9.1-2.2,4.3-5.4,7.5-9.3,10.1-1.2.8-2.6,1-4.1.9.7-3.4,1.7-6.8,3.5-9.9,2.2-3.8,5.1-7,7.8-10.4.9-1.1,1.2-2.7,2.7-3.3"/>
        <path class="cls-3" d="M62.9,57.7c.4.9,1.3,1.2,1.9,1.9.6.7,1.5,1.2,1.2,2.5-.1.6.6.9,1.1,1.1.6.3.6.6.2,1-1.2.6-2.3,1.6-3.8.5-.2-.5.5-.5.6-.8.2-.5.6-1,.3-1.4-.3-.4-.8,0-1.3,0-6.2.6-12,2.7-18.2,3.2-1.3.1-2.6.2-3.9-.2-1.5-.5-3-.4-4.9-.5,1.4-1.2,2.6-2.1,4.1-2.7,5-1.9,10.1-2.5,15.4-2.4.9,0,1.9.2,1.8-1.3,0-.4.2-.7.6-.7,1.1.2,1.8-.7,2.7-.8.1,0,.3,0,.4,0,.2.3.6.4,1,.4h0c.1.3.4.4.7.3h0Z"/>
        <path class="cls-9" d="M70.7,44.5c.2.3.3.5.5.8.1.3.2.6.3.8.1.3.2.6.4.8,0,.1,0,.3,0,.4,0,.3,0,.6.2.8.4,1.1,0,1.7-1.2,1.8.1-1,0-1.9-.3-2.8-1.1-2.9-2.5-5.6-3.9-8.3-.3-.5-.5-1.4-1.5-.8-.8.4-.9.9-.7,1.8,1.1,3.4,2,6.8,3,10.3,0,.2.2.5.2.7-.2.3-.4.6-.8.6-.5-3.7-2.1-7.2-2.8-10.9-.2-1,0-2-.8-2.9-.4-.4,0-.8.4-1.1.5-.4,1-.3,1.5,0,1.8,1.5,2.9,3.5,4.1,5.4.5.8.8,1.6,1.2,2.4"/>
        <path class="cls-9" d="M63.1,54.9c-.4,0-.9,0-1.3,0-2.3-3.2-4.9-6.1-6.9-9.5-.4-.7-1-1.4-1.5-2.1-.5-.7-.5-1.4.2-2,.4-.3.8-.5,1.2-.1.4.5,1.3,1,.6,1.9-.6.7-.1,1.1.3,1.6,2.1,2.7,4.2,5.3,6.3,8,.5.6.8,1.4,1.2,2.1"/>
        <path class="cls-9" d="M61.3,56.9c-.1,0-.3,0-.4,0-1.9-1.6-3.9-3.1-5.8-4.8-.7-.6-1.3-1.4-1.9-2.1-.4-.5-.6-1-.3-1.6.1-.3.4-.2.6,0,.5.3,1.4.5,1.1,1.4-.1.5,0,.8.3,1,2.2,1.9,4.4,3.9,7.1,5.1h0c0,.1,0,.2,0,.4h0c-.4,0-.6.2-.6.6"/>
        <path class="cls-4" d="M67,51.4c.4,0,.6-.3.8-.6.7,0,.7.3.2.7-.3-.3-.6-.3-.9,0,0,0,0-.2,0-.2"/>
        <path class="cls-3" d="M56.8,58.3c-.2.1-.3.3-.4.3-.1,0-.2-.1-.4-.2.1-.1.2-.3.3-.3.1,0,.3.1.5.2"/>
        <path class="cls-8" d="M71.5,35.8c.3-.5.7-1.1,1,0h0c-.3,0-.7,0-1,0h0"/>
        <path class="cls-9" d="M67.4,52.4c0,.1,0,.3,0,.4,0,0,0-.2-.1-.3,0,0,0,0,0-.2"/>
        <path class="cls-2" d="M91.6,59.2c0,0,.1.1.2.2.2.4.1,1.1.6,1.1.8,0,1.5,0,1.3,1.1-.2.8-.1,1.7-1.1,1.9-1,.2-1.3-.6-1.7-1.3,0,0-.1-.2-.2-.3-1.1.8-2.1,1.7-3.5,1.9,0-.3-.1-.6-.4-.7.7-.7,1.8-.9,2.6-1.5.4-.3,1.4-.2,1-1-.2-.5-.9,0-1.4,0-1.8.5-3.4,1.5-5.3,1.8-2.2,0-4.4,0-6.7,0-.8,0-1.7,0-2.6-.3,2.8,0,5-1.9,7.8-1.8.5.6,1.1.3,1.7.1,1.9-.5,3.7-1,5.6-1.4.6-.1,1.3,0,2,.1"/>
        <path class="cls-9" d="M76.3,66.7c0-.4-.5-.9.2-1.2,1.8.8,3.5,1.5,5.4,1.9.7.1,1.3.3,2,.1,1.5-.4,2.7-.3,3.4,1.3.2.6.7.4,1.2.3,1.4-.3,3,.1,4.4-.8.5-.4,1.6-.3,2.1.6.3.5.1,1-.3,1.2-.7.3-1.4.9-2.1,0-.4-.5-.7-.3-1.2-.3-2.4.3-4.7.5-7.1.7-.5,0-1.1.2-1.4-.3-1.5-2.3-4.3-2.1-6.4-3.1,0-.2,0-.4,0-.5"/>
        <path class="cls-9" d="M86.8,63.1c.3.1.4.4.4.7-2.4,1.1-4.8,1.4-7.4.9-1-.2-2.1-.1-3.2-.2-.5-.6-1.3,0-2.2-.9,2.3,0,4.3-.1,6.3-.4,2,1.2,4.1.7,6.1,0"/>
        <path class="cls-6" d="M76.3,66.7c0,.2,0,.4,0,.5-.7,0-1.1.9-1.8.7-1-.5-1.7-1.3-2.4-2.1-.2-.2-.3-.5-.1-.8.2-.3.5-.2.8,0,1.2.5,2.4,1.1,3.6,1.7"/>
        <path class="cls-9" d="M76.2,65.2c-.7-.1-1.4.2-2.3-.7h2.4c0,.2,0,.5,0,.7"/>
        <path class="cls-9" d="M79,49c.7-2.6,1.5-5.1,2-7.7.2-1.3,1.7-1.6,2.8-1.8.5-.1.7,0,.7-.6.6-.4,1.3-.4,1.9-.3.6.1,1,.5,1.1,1.2,0,.7-.5,1.1-1,1.5-.6.5-.9,0-1.3-.3-1.6-1.2-2.7-.8-3.1,1.1-.6,2.9-1.3,5.8-2.1,8.7h0c-.6,0-.7.6-.7,1h0c-.4.1-.4.5-.4.8-.2.3-.5.6-.9.6,0,0-.1,0-.1-.1-.4-.6,0-1.2.3-1.7.5-.7.8-1.5.8-2.5"/>
        <path class="cls-9" d="M96.9,52.1c0,1.2-.2,2.6-1.5,2.5-1.3,0-1.4-1.4-1.4-2.5,0-1.1.5-1.9,1.4-1.9,1.2,0,1.5,1,1.5,1.9"/>
        <path class="cls-9" d="M84.2,47.8c-.1-.3-.4-.4-.6-.4.9-1.6,1.7-3.2,2.6-4.8.2-.3.3-.6.7-.6.4,0,.4.4.5.6.2.4-.1.6-.4.8-1.4,1.1-1.5,3.2-2.8,4.4"/>
        <path class="cls-9" d="M92.8,52c-2,1-2.5.9-3.4-.8q1.2-.6,3.4.8"/>
        <path class="cls-7" d="M89,53.6c0,0,0-.1.1-.2,0,0,0,0,0,0,0,0,0,0-.1,0h0"/>
        <path class="cls-9" d="M83.5,48.9c0,0,0-.1.1-.1,0,0,0,.1,0,.1h-.1Z"/>
        <path class="cls-9" d="M72.5,76.2c-.1-.9.4-1.5,1.4-1.4.9,0,1.8.3,1.7,1.4-.1,1-.6,2-1.7,2-1,0-1.4-.8-1.4-2"/>
        <path class="cls-13" d="M86.8,63.1c-2,.7-4.1,1.2-6.1,0,1.1,0,2.1-.3,3.1-.7,1.9-.3,3.5-1.3,5.3-1.8.5-.1,1.1-.6,1.4,0,.4.8-.6.7-1,1-.8.6-1.9.8-2.6,1.5"/>
        <path class="cls-5" d="M77.7,56.1c-.6.6-1.4.9-2.3,1.1.4-.8,1.2-1.2,1.9-1.5.1.2.3.3.4.5"/>
        <path class="cls-9" d="M62.5,55.9c1.2,1.1,1.2,1.2.4,1.8h0c-.1-.3-.4-.4-.7-.4,0,0,0,0,0,0,0-.4-.2-.7-.4-1h0c.3,0,.4-.2.5-.4"/>
        <path class="cls-5" d="M71.2,60.4c.3-.4.6-.9,1.4-.9-.2.8-.7.9-1.3.9h0Z"/>
        <path class="cls-5" d="M70.6,61.1c-.3.4-.6.7-1.1.6,0-.7.6-.6,1-.7,0,0,0,0,.1.1"/>
        <path class="cls-5" d="M74.7,57.7c0,.4-.4.6-.7.7h-.1c0-.5.3-.7.7-.8,0,0,.1.1.2.2"/>
        <path class="cls-9" d="M78.1,53.3c0,.4-.3.6-.7.7h0c0-.5.3-.7.7-.8,0,0,0,.1.1.1"/>
        <path class="cls-13" d="M79.4,51.9c0-.5.1-.9.7-1,.2.7-.1.9-.7,1"/>
        <path class="cls-13" d="M86.7,56.1c.2-.2.5-.4.7-.6.1.1.2.3.3.4-.3.2-.5.4-.8.6-.1-.1-.2-.2-.3-.3"/>
        <path class="cls-10" d="M86.2,57c-.2.3-.6.4-.9.5,0,0-.1-.1-.2-.2.3-.2.5-.4.8-.6.1.1.2.2.3.3"/>
        <path class="cls-13" d="M86.2,57c-.1-.1-.2-.2-.3-.3.3-.2.6-.4.8-.6.1.1.2.2.3.3-.3.2-.5.4-.8.6"/>
        <path class="cls-13" d="M79,52.7c0-.4,0-.7.4-.8.2.4-.2.6-.4.8"/>
        <path class="cls-8" d="M72.9,53.9c0-.2.1-.4.2-.6,0,0,.1,0,.1,0,0,.2,0,.4-.3.5h0Z"/>
        <path class="cls-8" d="M72.9,53.9c0,.1,0,.3-.1.4,0,0-.1,0-.2-.1,0-.1.2-.2.3-.3h0"/>
        <path class="cls-13" d="M77.7,56.1c-.1-.2-.3-.3-.4-.5.2,0,.3-.2.5-.2.1.1.2.2.3.3-.1.1-.3.2-.4.4"/>
        <path class="cls-10" d="M83.8,58.4c0-.3.3-.4.6-.4,0,0,.1.1.1.1-.2.3-.4.3-.7.3h0Z"/>
        <path class="cls-4" d="M71.7,69.8c0,0,.1.1.2.2,0,0,0,.1,0,.2,0,.2-.2.2-.2,0,0,0,0-.2,0-.3"/>
        <path class="cls-13" d="M71.7,67.6s0,0,0-.1c0,0,0,0,.1-.1,0,0,0,0,0,.1,0,0,0,0-.1.1"/>
        <path class="cls-5" d="M70.9,60.8c-.1.1-.2.2-.3.4,0,0,0,0-.1-.1.1,0,.3-.2.4-.3h0"/>
        <path class="cls-5" d="M71.2,60.4c-.1.1-.2.2-.3.3,0,0,0,0,0,0,.1-.1.2-.2.3-.3,0,0,0,0,0,0"/>
        <path class="cls-10" d="M83.8,58.3c0,0-.1.1-.2.2,0,0,0,0,0,0,0,0,0,0,.1,0h0"/>
        <path class="cls-5" d="M74,58.4c0,0-.2,0-.2.1,0,0,0-.2.1-.2,0,0,.1.1.1.1"/>
        <polygon class="cls-9" points="65.9 58.5 65.9 58.5 65.8 58.5 65.9 58.5"/>
        <path class="cls-10" d="M85,57.8c-.1,0-.3.2-.4.3,0,0-.1-.1-.1-.1.1-.1.2-.2.3-.4,0,0,.1.1.2.2"/>
        <path class="cls-10" d="M85.3,57.5c-.1.1-.2.2-.4.3,0,0-.1-.1-.2-.2.1-.1.2-.2.4-.3,0,0,.1.1.2.2"/>
        <path class="cls-5" d="M74.5,57.6c0,0,.2-.3.3,0,0,0-.1.1-.2.2,0,0-.1-.1-.2-.2"/>
        <path class="cls-4" d="M73.8,56.4s0,0,0,0c0,0,0,0,0-.1,0,0,0,0,0,0,0,0,0,0,0,.1"/>
        <polygon class="cls-8" points="70.4 56.5 70.3 56.5 70.3 56.4 70.4 56.5"/>
        <path class="cls-11" d="M62.5,55.9c0,.2-.3.4-.5.4,0-.1,0-.2,0-.4.2,0,.3,0,.5,0"/>
        <path class="cls-9" d="M77.4,54c0,0-.1,0-.2.1,0,0,0-.1.1-.2,0,0,0,0,0,0"/>
        <path class="cls-4" d="M67.6,50.1c-1-3.4-2-6.9-3-10.3-.3-.9-.2-1.3.7-1.8,1-.5,1.2.3,1.5.8,1.4,2.7,2.9,5.4,3.9,8.3.3.9.4,1.9.3,2.9-.1.2-.2.9-.4,0-.2-.8.2-1.8-.8-2.6-.4,1.2-1.7,1.6-2.2,2.6"/>
        <path class="cls-11" d="M71.5,35.8c.3,0,.7,0,1,0,.2.4.6.9,0,1.3-.2.1-.6.3-.7.2-.6-.4-.2-1-.3-1.5"/>
        <path class="cls-11" d="M71.4,46.1c-.1-.3-.2-.6-.3-.8.5.1,1,.3.3.8"/>
        <path class="cls-11" d="M71.9,47.4c0-.1,0-.3,0-.4.2.1.4.2,0,.4"/>
        <path class="cls-11" d="M73.6,35.8s0,0,.1.1c0,0,0,0-.1-.1h0"/>
        <path class="cls-7" d="M61.9,56.4c.2.3.4.6.4,1-.4,0-.7,0-1-.4,0-.4.2-.6.6-.5"/>
        <path class="cls-7" d="M62.3,57.3c.3,0,.6,0,.7.4-.3,0-.6,0-.7-.4"/>
      </g>
    </g>
  </g>
</svg>