<?xml version="1.0" encoding="UTF-8"?>
<svg xmlns="http://www.w3.org/2000/svg" xmlns:xlink="http://www.w3.org/1999/xlink" version="1.1" viewBox="0 0 131.4 116.5">
  <defs>
    <style>
      .cls-1 {
        fill: none;
      }

      .cls-2 {
        fill: #eb8997;
      }

      .cls-3 {
        fill: #ef9ba6;
      }

      .cls-4 {
        fill: #f0a9b1;
      }

      .cls-5 {
        fill: #f4c7c7;
      }

      .cls-6 {
        fill: #e7818f;
      }

      .cls-7 {
        fill: #f0afb6;
      }

      .cls-8 {
        fill: #ba4858;
      }

      .cls-9 {
        fill: #f0b4b8;
      }

      .cls-10 {
        fill: #ca5965;
      }

      .cls-11 {
        fill: #f6bec6;
      }

      .cls-12 {
        fill: #f6d2d2;
      }

      .cls-13 {
        clip-path: url(#clippath);
      }
    </style>
    <clipPath id="clippath">
      <rect class="cls-1" y="0" width="131.4" height="116.5"/>
    </clipPath>
  </defs>
  <!-- Generator: Adobe Illustrator 28.7.5, SVG Export Plug-In . SVG Version: 1.2.0 Build 176)  -->
  <g>
    <g id="Layer_1">
      <g class="cls-13">
        <path class="cls-12" d="M72.2,91.4c-2.4,5.4-6.6,8.8-11.9,11.1-1.5.7-2.7.3-3.7-.9-.4-.5-.8-1-1.2-1.5q-1.4-1.8-3.4-.8c-.6.3-1.3.6-1.9.9-2.5.9-4.3,0-4.9-2.6-.8-3.4-1.1-6.9-1.5-10.4-.3-2.2-.5-4.5,0-6.7.2-1.1,0-1.6-1.3-.9-2,1-4.1,1.9-6.4,2.2-3.3.4-5.7-1.6-8.1-3.3-.4-.3-.7-.5-1.1-.8-1.8-1.2-2.1-1.9-1.6-4.1.6-2.1-.6-3.5-1.8-5-.4-.5-.8-1-1.2-1.5-1.7-2.4-1.6-3.2.9-4.7,4.6-2.8,9.2-5.5,14.5-6.7,2.3-.5,4.7-.6,7-.4,0,.3,0,.5.3.7,3,3.1,6.4,5.8,10.4,7.5.1,0,.2.2.4.3.9,1,2.4,1.3,3.3,2.4-1.5-.2-2.9.4-4.2.8-1.7.5-3.2,1.6-3.9,3.4-.4.2-.7.5-1,.9-2.5.6-5.4,4.2-5.8,7.1.9,0,1.5-.5,2.2-1.1,2.1-2,4-4.2,6.8-5.1.4-.1.8-.3.8-.8,1.7,0,3-.8,4.5-1.4,0,.4-.1.8.3,1.2.5-.8.9-1,1.3.2.2.6.6,1.3,1.4,1.4h0c0,.2,0,.4,0,.6,0,.2,0,.5.3.6.7,4.2,4,6.3,7.2,8.4,1.6-.5,2.5,1.2,3.9,1.3.6,0,.7.6.7,1.2-.6,1.4-.6,2.8-.6,4.3,0,.2,0,.4,0,.6-.1.1-.2.2-.3.3,0,0,0,.2,0,.3-.2.1-.3.4-.3.6h0c-.3.2-.3.4,0,.6"/>
        <path class="cls-12" d="M71.3,38.1c.5,0,.5-.4.6-.7,3-6.2,7.5-10.8,14.3-12.7,1.3-.4,2.7-.6,4.2-.4.7,0,1.7,0,1.7,1.2,0,.8.7.5,1.2.6,2.4.3,4.6.8,6.3,2.7.7.8.8,1.4.2,2.3-.6.9-1.1,1.9-1.7,2.8-.3.5-.4.8.4.9,1,0,2.1.3,3.1.3,1.1,0,1.4.4,1.3,1.4-.1,3.7-1.2,7.2-2.5,10.6-1.5,4.1-3.7,7.8-6.9,10.8-.8.8-1.8,1.5-2.9,1.7-.7-1.3-2.1-1.4-3.4-1.8-.2-.6-.7-.5-1.1-.5-1.6.1-3.2.3-4.6,1.1-2.2.7-4.1,1.9-6.2,2.9-1.6.7-3.1,1.8-4.9,2,2.1-1.8,4.7-2.8,7-4.2.9-.5,1.1-1.3,1.6-2,.2-.3,0-.7-.2-1-.3-.3-.6-.1-1,0-.7.3-1.2.8-1.6,1.3-2.1,2.5-5.1,3.4-7.8,4.8-.2.1-.4,0-.5-.2.7-.5,1.4-1,1.9-1.7h0s0-.1,0-.1c.2-.3.5-.6.7-.9.4-.1.6-.5.8-.8,2.7-3.2,4.1-7.1,6.1-10.7.4-.6.7-1.4,0-2.1-.2-.3-.6-.5-.9-.3-.8.4-1.1,1.1-1.2,1.9,0,.2-.1.4,0,.6.7,1.2,0,2.2-.5,3.2-.9,1.8-1.8,3.4-3,5-.3.4-.5,1.1-1.3,1.1,1.2-3.1,1.4-6.2,1.4-9.4,0-1.7-.4-3.5,0-5.1.4-1.7-.4-2.2-1.5-2.8,1.1-.2,1.3-.9.9-1.9M82.3,53.8c-.6.4-1.4.8-1.4,1.6,0,.7.5,1.3,1.2,1.2.8,0,1.5-.5,1.5-1.4,0-.8-.6-1.2-1.3-1.4"/>
        <path class="cls-5" d="M89.1,60.6c-.2.9.5,1.4,1,1.9,3.3,3.3,6.8,6.4,9.3,10.4,2.9,4.7,4,9.6,3,15.1-.2,1.1-.6,2.1-1.1,3.1-1,2.1-2.5,2.6-4.7,1.5-1-.5-1.4-.3-1.7.7-1,2.5-1.7,2.8-4.2,1.8-4.7-1.8-8.7-4.7-12.7-7.7-1.4-1-2.7-2.1-4-3.2-.1-1.8-1.4-2.9-2.3-4.2-.6-.9-1.5-1.8-1.3-3.1.9,0,1.9,0,1.6-1.1-.5-1.6-.6-3.6-2.4-4.6-.2-.1-.5-.3-.2-.6.7-.1,1.4.2,2,.4,2.8.8,5.5,2.1,8.5,1.7.3,0,.6,0,.6.3.2.9.7,1.1,1.6.8.9-.3,1.6-.8,1.7-1.8,0-.7,0-1.4-.8-1.7-.8-.3-1.3.2-1.6.7-.4.5-.7,1.1-1.4,1.2-3.2.4-5.9-1.2-8.7-2.2,2.9-.2,5.8,1.1,9,0-4.2-1-8.4-.5-12.4-1.5,4.3.3,8.5-.3,12.4-2-1-.7-2.1-.2-3.2-.4,1.6-.7,3.1-1.4,4.7-2.1,1-.5,1.2-1.6.5-2.1-.5-.4-1,.2-1.6,0,0-.3.3-.3.3-.5.9-.4,1.9-.7,2.8-1.1,1.9-.9,3.7-1.7,5.3.3M96.1,82.2c1.8-4.3-.2-13.2-3.3-14.2,2.9,4.3,2.8,9.1,3.3,14.2M83.7,66.7c1,0,1.9-.4,1.9-.9,0-.6-1.5-1.6-2.4-1.5-.5,0-1.1,0-1,.9,0,1.2.7,1.4,1.5,1.4"/>
        <path class="cls-12" d="M45.1,20.9c.5,0,.9.2,1.2.6-.3,1.1-.1,1.8,1.1,2,.6.1,1.2.4,1.6,1,1.2,1.7,2.9,2.6,4.7,3.2,1.4.5,2.6,1.3,3.7,2.2,2,1.6,3.8,3.5,5.7,5.3.4.4.7.8.9,1.4.7,1.8,1.4,3.6,2.1,5.4.2.6.4.9-.4,1.3-.9.4-.6,1,0,1.6.9.9,1.8,0,2.7,0,.2,3.9.1,7.7-.8,11.5-.4,1.8-1.1,3.6-2.6,5,.4-3.8.7-7.6,1.1-11.4-1.7,3.1-1.8,6.4-2.3,10-.8-1.3-.6-2.5-.4-3.7.2-1.4.5-2.8.1-4.3,0-1.2-.4-2.2-.7-3.3-.3,1.3-1.1,2.5-.5,3.9v5.8c-1-3.6-1.7-7.2-2.9-10.8.2,4.5,1.3,8.9,1.8,13.6-1-.7-.6-1.8-1.3-2.4h0c0-.1,0-.3,0-.5-.9-2.7-2.1-5.3-3.7-7.7.9,3.2,1.6,6.4,3.4,9.3,0,.5.6,1,.3,1.6-2.8-3.2-4.8-6.7-6.1-10.8-.2-.6-.4-1.2.1-1.7.4-.4.8-.8,0-1.3-.7-.5-1.3-.3-2,.1-.7.5-.3,1,0,1.4.9.8,1.2,1.9,1.6,3,.6,1.7,1.3,3.2,2.1,4.8.6,1.2,1.3,2.4,2.3,3.8-1.6-.5-2.2-1.8-3.3-2.3h0c0-.2-.1-.3-.3-.3h0c-.1-.5-.6-.7-.9-1,0,0,0-.1-.1-.1-.2-.2-.4-.5-.8-.3h0c.1-.3-.1-.5-.3-.7-.9-1-1.9-2-2.6-3.3-.7-1.3-1.8-2.6-3.7-2.3-.4-1.6-1.8-2.5-2.7-3.8-2-2.7-3.1-5.7-3.4-9-.3-4.2-.2-8.5,1-12.6.3-1,.7-1.9,1.1-2.8,0-.1.2-.2.3-.3,0,0,.2-.2.3-.3.9,0,1.2-1.2,2.2-.9M62,45.2c-.1-.6-.4-1-1-1-.5,0-1.2,0-1.2.8,0,.8.8,1,1.2,1.1.4,0,.8-.5,1-1M61.9,48.5c0,0,0-.2,0-.3,0,0,0,.2,0,.3,0,0,0,0,0,.1,0,0,0,0,.1-.1M61.6,47.3c0,0,0-.2,0-.3,0,0,0,.1,0,.2,0,0,0,0,0,.1,0,0,0,0,.1-.1"/>
        <path class="cls-5" d="M68.5,44.9c-.9-.1-1.8.8-2.7,0-.6-.6-.9-1.2,0-1.6.7-.4.6-.7.4-1.3-.7-1.8-1.4-3.6-2.1-5.4-.2-.5-.5-1-.9-1.4-1.9-1.8-3.6-3.7-5.7-5.3-1.1-.8-2.3-1.6-3.7-2.2-1.8-.7-3.5-1.6-4.7-3.2-.4-.6-1-.9-1.6-1-1.3-.2-1.5-.9-1.1-2,.6,0,1.1.5,1.6.8.3.2.7.8,1.1.5.4-.3.2-.8.3-1.3,0-.6,0-1.1,0-1.7,0-2,.4-2.3,2.4-1.8,2.2.6,4.1,1.6,5.8,3.1,4.1,3.6,8,7.2,11.3,11.6,1.2,1.6,2.3,3.3,2.5,5.4.4,1,.2,1.7-.9,1.9-.3,0-.6,0-.8,0-.1.1-.3.2-.4.3-.7.8-1.2,1.6-.7,2.7.2.4.1.8,0,1.2,0,0-.2,0-.2,0,0,0,.1.2.2.3,0,.2,0,.3,0,.5"/>
        <path class="cls-8" d="M55,58.5c1.1.5,1.7,1.7,3.3,2.3-.9-1.4-1.6-2.6-2.3-3.8-.8-1.6-1.6-3.1-2.1-4.8-.4-1.1-.7-2.2-1.6-3-.4-.4-.8-.9,0-1.4.6-.5,1.3-.6,2-.1.7.5.3.9,0,1.3-.5.5-.3,1.1-.1,1.7,1.2,4,3.3,7.6,6.1,10.8.3-.6-.2-1.1-.3-1.6.2-.4.3-.7.5-1.1.7.5.3,1.7,1.3,2.4-.5-4.7-1.6-9.1-1.8-13.6,1.2,3.5,1.8,7.2,2.9,10.8v-5.8c.7,1.6,0,3.2.4,4.9.6-1.8.2-3.7.8-5.4.3,1.4.1,2.9-.1,4.3-.2,1.1-.4,2.3.4,3.7.5-3.5.5-6.9,2.3-10-.4,3.8-.7,7.6-1.1,11.4-.3.4-.2.8,0,1.3.5,0,.8-.3,1.1-.7,0-.1,0-.2,0-.4h0c.2,0,.3,0,.3-.3h0c.2,0,.4,0,.3-.3h0c.2,0,.4,0,.3-.3h0c.9,0,.9-.9,1.5-1.2,0-.1.2-.2.3-.3h0c.6,0,1.2,0,1.7,0-.2.3-.5.6-.7.9,0,0,0,.1,0,.1-.5.7-1.3,1.2-1.9,1.7-1.6,1.2-3.2,2.5-5,3.8,1.2.3,2.1.5,3,.7.4.3,1,.1,1.2.6-.7.2-1.2.8-2,0-.7-.6-2.1-1.2-2.5-.4-.6,1.1.6,1.8,1.6,2.2.2.2.4.4.8.3h0c0,.2.1.3.3.3h0c.7.7,1.6,1,2.4,1.5h0c.1.2.3.3.6.3h0c.1.1.2.2.3.4,0,.2.4.4,0,.6-.4-.1-.8-.2-1.2-.3-.6-.4-1.1-.6-1.9-.5.3.9,1.1,1.2,1.6,1.7-.3,0-.6.1-.7.4-.8-.4-1.7-.9-2.7-1.4.3,1.3.7,2.4,1.4,3.3.5.8,1.3,1.4,2,2,.6.5.4,1,0,1.6-.6.8-.8-.1-1.1-.3-1.5-1-2.2-2.7-3.2-4.1-.2-.3-.4-.6-.5-.9h0c-.5-1.3-1-2.6-1.5-3.9,0,0,0-.2,0-.3-.4-.4,0-1.4-.7-1.4-.8,0-.3,1-.8,1.3-.2,0-.4,0-.5,0,.6-1,.1-1.5-.9-1.7q1.5-.6,1.2-1.6c-.9-1.1-2.4-1.4-3.3-2.4h0c1.4,0,2.4,1.2,3.6,1.5,0,0,0,0,.1,0,0,0,0,0-.1,0-.4-1.1-3-2.6-3.9-2.3,0,0,0,.3,0,.5h0c-4-1.7-7.4-4.3-10.4-7.4-.2-.2-.3-.4-.3-.7,2.6-.8,4.9-.1,7.1,1.1h0s0,0,0,0c0,0,0,.1,0,.2,1,.9,2.1,1.8,3.2,2.5.2.3.3.7,1.2.8-.5-.4-.8-.6-1-.9,0-.2,0-.4,0-.6M56.4,60.6c0,0-.1,0-.2-.1,0,0,0,.1,0,.2,0,0,0,0,0,0,0,0,0,0,.1-.1"/>
        <path class="cls-4" d="M62.8,74.5c1.1,1.4,1.8,3.1,3.2,4.1.3.2.5,1.1,1.1.3.4-.5.6-1.1,0-1.6-.7-.6-1.5-1.2-2-2-.6-.9-1.1-2-1.4-3.3,1,.5,1.9,1,2.7,1.4.6.8,1.6.7,2.4,1,.9.3,2.1.4,1.3,1.9,0,0,.2.3.3.5-.2,1.3.7,2.1,1.3,3.1.9,1.3,2.1,2.5,2.3,4.2,0,.2,0,.4,0,.6-.2,0-.3,0-.5,0,0-.5,0-1.1-.7-1.2-1.4-.2-2.3-1.8-3.9-1.3-3.2-2.1-6.5-4.1-7.2-8.4.1-.3.4-.3.6-.3h0c0,.4,0,.9.5.9"/>
        <path class="cls-10" d="M89.1,60.6c-1.7-2-3.5-1.2-5.3-.3-.9.4-1.8.7-2.8,1.1,0-.3,0-.5,0-.8,1.7-1.1,3.5-1.7,5.5-1.9.7,0,1-.3.9-1h0c1.2.4,2.6.5,3.4,1.8-.4.5-.5,1.5-1.6,1.1"/>
        <path class="cls-10" d="M46.4,50.5c1.9-.3,3,1,3.7,2.3.7,1.3,1.6,2.2,2.6,3.3.2.2.4.3.3.6-.3.1-.5-.2-.8-.3-.2-.1-.3-.1-.5,0h0c0-.1.1-.3,0-.4-1.5-1.2-2.4-3.1-4.5-3.6-.9-.2-1.5-.9-.9-1.9"/>
        <path class="cls-5" d="M73.4,84.8c.2,0,.3,0,.5,0-.1,1.5-.3,3-1.1,4.3,0-1.5,0-2.9.6-4.3"/>
        <path class="cls-5" d="M45.1,20.9c-1-.2-1.3.9-2.2.9.4-1.2,1.1-1.5,2.2-.9"/>
        <path class="cls-5" d="M72.2,90.8c0-.3,0-.5.3-.6,0,.3,0,.5-.3.6"/>
        <path class="cls-5" d="M72.2,91.4c-.3-.2-.3-.4,0-.6,0,.2,0,.4,0,.6"/>
        <path class="cls-5" d="M72.5,90c0-.1.2-.2.3-.3,0,.1-.2.2-.3.3"/>
        <path class="cls-5" d="M42.7,22.1c0,.1-.2.2-.3.3,0-.1.2-.2.3-.3"/>
        <path class="cls-9" d="M53.8,71.3c0,.5-.4.7-.8.8-2.9.9-4.8,3.1-6.8,5.1-.6.6-1.2,1.1-2.2,1.1.4-2.9,3.3-6.5,5.8-7.1.8.3-.1,1,.4,1.4,1-1.1,2.1-1.6,3.6-1.4"/>
        <path class="cls-2" d="M53.8,71.3c-1.4-.2-2.6.3-3.6,1.4-.6-.4.3-1.2-.4-1.4.2-.4.5-.7,1-.9,2.4-.7,4.5-2.3,7-2.7,1,.2,1.5.7.9,1.7-.1.2-.2.3-.3.5-1.5.6-2.8,1.5-4.5,1.4"/>
        <path class="cls-9" d="M57.8,67.7c-2.5.4-4.6,2-7,2.7.7-1.8,2.2-2.9,3.9-3.4,1.4-.4,2.7-1,4.2-.8q.3,1-1.2,1.6"/>
        <path class="cls-9" d="M58.3,69.9c.1-.2.2-.3.3-.5.2,0,.4,0,.5,0,.5,0,1,0,1.5,0,0,0,0,.2,0,.3-.2,1.1.4,2,.6,3-.8-.2-1.2-.9-1.4-1.4-.4-1.1-.8-1-1.3-.2-.4-.4-.2-.8-.3-1.2"/>
        <path class="cls-11" d="M61.3,72.7c-.2-1-.8-2-.6-3,.5,1.3,1,2.6,1.5,3.9-.3,0-.5,0-.6.3-.2-.1-.3-.4-.3-.6.3-.2.3-.4,0-.6h0Z"/>
        <path class="cls-9" d="M61.3,72.7c.3.2.3.4,0,.6,0-.2,0-.4,0-.6"/>
        <path class="cls-8" d="M55.6,63.7c-.1,0-.2-.2-.3-.3,0,0,0,0,0,0,.2,0,.3.1.3.3h0Z"/>
        <path class="cls-10" d="M66.2,61.9c-.3.4-.6.7-1.1.7-.2-.4-.2-.9,0-1.3,1.5-1.3,2.1-3.1,2.6-5,.9-3.8,1-7.6.8-11.5,0-.2,0-.3,0-.5,0-.1,0-.2,0-.3.2-.4.2-.8,0-1.2-.5-1.1,0-1.9.7-2.7.1-.1.3-.2.4-.3.3,0,.6,0,.8,0,1.2.6,2,1.1,1.5,2.8-.4,1.6,0,3.4,0,5.1,0,3.2-.2,6.3-1.4,9.4.9,0,1-.7,1.3-1.1,1.2-1.6,2.2-3.2,3-5,.5-1,1.3-2,.5-3.2,0-.1,0-.4,0-.6,0-.9.4-1.5,1.2-1.9.4-.2.7,0,.9.3.6.7.3,1.5,0,2.1-2,3.6-3.4,7.5-6.1,10.7-.3.3-.4.7-.8.8-.6,0-1.2,0-1.7,0,0-.1,0-.3,0-.4,2.7-4.7,2.5-9.8,2.4-15,0-1-.6-.8-1.2-.8s-.8,0-.8.8c0,5.7.3,11.5-2.3,17h0c-.2,0-.3.1-.3.3h0c-.2,0-.3.1-.3.3h0c-.1,0-.2.2-.3.3h0c-.3.1-.3.2,0,.3"/>
        <path class="cls-10" d="M65.9,66.4c-.9-.2-1.8-.4-3-.7,1.8-1.4,3.4-2.6,5-3.8.1.2.3.3.5.2,2.7-1.4,5.8-2.3,7.8-4.8.4-.5,1-1,1.6-1.3.3-.1.7-.3,1,0,.3.3.4.6.2.9-.5.7-.7,1.4-1.6,2-2.3,1.4-4.9,2.4-7,4.2h0c-.3-.1-.6-.1-.6.3h0c-.4-.1-.8-.2-.9.5-.1,0-.3,0-.4.1-.3,0-.8-.3-.8.4-1,.5-2.1.4-3.6.8,1,.2,1.6-.2,2.2.1-.1.4-.3.7-.4,1.1"/>
        <path class="cls-8" d="M68.4,64c.1,0,.3,0,.4-.1.3,0,.7,0,.9-.5h0c.3,0,.5,0,.6-.3h0c1.8-.2,3.3-1.2,4.9-1.9,2.1-.9,4-2.2,6.2-2.9,0,.2,0,.4,0,.6-2.3,1.2-4.6,2.4-6.9,3.6-.8.1-1.5.5-2.2.9-.2,0-.5,0-.5.4-.2,0-.5,0-.7.1,0,0,0,.1,0,.1.3,0,.5,0,.6-.2.2,0,.5-.1.7-.2,1,0,1.9-.3,2.7-.8,2-.5,3.8-1.4,5.6-2.1,0,.3,0,.5,0,.8,0,.2-.4.2-.3.5h0c-.7-.2-1.4.2-2,.4-4,1.6-8,2.7-12.3,3-.6-.3-1.2.1-2.2-.1,1.4-.4,2.6-.3,3.6-.8.3-.1.5-.3.8-.4M69.8,64.3c-.2,0-.4,0-.6,0,0,0,0,.1,0,.1.2,0,.3-.1.5-.2.2,0,.5.1.6-.2-.3,0-.5,0-.6.2"/>
        <path class="cls-10" d="M82.3,53.8c.7.3,1.3.7,1.3,1.4,0,.9-.7,1.3-1.5,1.4-.7,0-1.2-.6-1.2-1.2,0-.8.8-1.2,1.4-1.6"/>
        <path class="cls-10" d="M81.5,58.9c0-.2,0-.4,0-.6,1.4-.8,3-1,4.6-1.1.4,0,.9,0,1.1.5h0c-2,.1-3.9.5-5.7,1.2"/>
        <polygon class="cls-10" points="69.8 60.2 69.9 60.1 69.9 60.2 69.8 60.2"/>
        <path class="cls-10" d="M70.4,76.9c0-.2-.3-.4-.3-.5.9-1.5-.4-1.5-1.3-1.9-.8-.3-1.8-.3-2.4-1,.1-.3.4-.4.7-.4.3,0,.6,0,.9,0h0c0,.2.2.3.3,0,.3.1.6.2.8.3h.1c0,.2.2.2.2.3h0c.1.1.2.2.3.3.4,0,.6.5,1.2.3-.6-.9-1.4-1.5-2.4-1.9,0,0,0-.1,0-.2.4-.2,0-.4,0-.6.3-.5,0-.4-.3-.4h0c0-.3-.3-.3-.6-.3h0c-.4-1.2-1.4-1.4-2.4-1.5h0c0-.2-.1-.3-.3-.3h0c-.2-.3-.5-.3-.8-.3-1-.4-2.2-1.1-1.6-2.2.4-.7,1.8-.2,2.5.4.8.7,1.4,0,2,0,.3,0,.5,0,.8,0,.5.3.9,1,1.5.1.4,0,.8,0,1.2,0,.3,1,1,.1,1.5.3-.3,0-.5-.2-.8-.2,1.6-.4,3.3.2,4.8-.8h0c.4,0,.7.2.9-.3h0c1.1.2,2.2-.3,3.2.4-4,1.7-8.1,2.3-12.4,2,4,1,8.2.6,12.4,1.5-3.1,1-6-.2-9,0,2.8,1,5.5,2.6,8.7,2.2.7-.1,1-.7,1.4-1.2.4-.5.9-1,1.6-.7.8.3.9,1,.8,1.7-.1,1-.8,1.5-1.7,1.8-.9.3-1.3,0-1.6-.8,0-.3-.4-.3-.6-.3-3,.4-5.7-.9-8.5-1.7-.7-.2-1.3-.6-2-.4-.2.3,0,.5.2.6,1.8,1,1.9,2.9,2.4,4.6.3,1-.8,1.2-1.6,1.1"/>
        <path class="cls-10" d="M80.6,61.9c.5.2,1-.4,1.6,0,.7.6.5,1.6-.5,2.1-1.5.7-3.1,1.4-4.7,2.1h0c-.3,0-.7,0-.9.3h0c-2.4,0-4.8.4-7.2.3-.6-.4-1.4,0-2.2-.7,1-.4,1.9-.2,2.7-.2,3.3,0,6.6-.4,9.7-1.7,1.1-.5,1.8-1,1.5-2.2h0Z"/>
        <path class="cls-10" d="M83.7,66.7c-.8,0-1.5-.2-1.5-1.4,0-.9.5-.9,1-.9.8-.1,2.4.9,2.4,1.5,0,.4-.9.9-1.9.9"/>
        <path class="cls-10" d="M60.2,58.8c-.2.4-.3.7-.5,1.1-1.7-2.9-2.4-6.1-3.4-9.3,1.6,2.4,2.8,5,3.7,7.7-.3.2-.2.4.1.6h0Z"/>
        <path class="cls-10" d="M63.7,52c-.5,1.8-.1,3.6-.8,5.4-.4-1.6.3-3.3-.4-4.9-.7-1.4.2-2.6.5-3.9.3,1.1.8,2.1.7,3.3"/>
        <path class="cls-10" d="M62,45.2c-.2.5-.6,1-1,1-.5-.1-1.2-.3-1.2-1.1,0-.8.7-.8,1.2-.8.6,0,.9.3,1,1"/>
        <path class="cls-4" d="M52.1,56.4c.3.1.4.4.8.3h0c.1.4.4.5.7.3,0,0,.1,0,.1.1h0c-.4.2-.1.4,0,.5.3.2.5.7,1,.5h0c0,.3,0,.4.3.3h0c0,.2,0,.4,0,.6,0,0,0,0-.1.1-1.1-.7-2.2-1.5-3.2-2.5.1-.1.3-.2.4-.4"/>
        <path class="cls-8" d="M54.7,58.3c-.5.2-.7-.3-1-.5,0-.1,0-.3,0-.4,0,0,0-.1,0-.1.3.4.8.5.9,1"/>
        <path class="cls-10" d="M61.9,48.5s0,0-.1.1c0,0,0,0,0-.1,0,0,0-.2,0-.3,0,0,0,.2,0,.3"/>
        <path class="cls-10" d="M61.6,47.3s0,0-.1.1c0,0,0,0,0-.1,0,0,0-.2,0-.2,0,0,0,.2,0,.3"/>
        <path class="cls-8" d="M60.2,58.8c-.3-.1-.4-.3-.1-.6,0,.2,0,.4.1.6"/>
        <path class="cls-10" d="M53.7,57.1c-.4.2-.6,0-.7-.3.4-.2.5.1.7.3"/>
        <path class="cls-8" d="M55,58.6c-.3,0-.4,0-.3-.3.2,0,.3,0,.3.3"/>
        <path class="cls-12" d="M68.5,44.1c0,.1,0,.2,0,.3,0,0-.1-.2-.2-.3,0,0,.2,0,.2,0"/>
        <path class="cls-12" d="M69.5,39.9c-.1.1-.3.2-.4.3.1-.1.3-.2.4-.3"/>
        <path class="cls-5" d="M67.1,60.7c2.5-5.4,2.3-11.2,2.3-17,0-.8.2-.8.8-.8s1.2-.2,1.2.8c0,5.1.2,10.3-2.4,15,0,.1,0,.3,0,.4h0c0,.1-.2.2-.3.3-.6.3-.6,1.3-1.5,1.2"/>
        <path class="cls-12" d="M80.6,61.9c.2,1.3-.4,1.8-1.5,2.2-3.1,1.3-6.3,1.8-9.7,1.7-.8,0-1.7-.1-2.7.2.7.7,1.6.2,2.2.7,0,0,0,.2,0,.3-.3,0-.6,0-.9,0-.3,0-.5,0-.8,0-.3-.5-.9-.3-1.2-.6.1-.4.3-.7.4-1.1,4.3-.3,8.3-1.5,12.3-3,.6-.3,1.3-.6,2-.4"/>
        <path class="cls-3" d="M55.6,63.7c0-.2-.1-.3-.3-.3,0-.2,0-.5,0-.5,1-.2,3.5,1.3,3.9,2.3h0c-1.3-.3-2.2-1.5-3.6-1.5"/>
        <path class="cls-6" d="M68,73c-.3,0-.6,0-.9,0-.5-.6-1.3-.9-1.6-1.7.7-.1,1.3.1,1.9.5,0,0,0,.2,0,.2-.4.7.5.6.6,1"/>
        <path class="cls-2" d="M60.7,69.4c-.5,0-1,0-1.5,0,.6-.3,0-1.4.8-1.3.7,0,.4,1,.7,1.4"/>
        <path class="cls-7" d="M65.3,69.4c1,.1,2.1.3,2.4,1.5-.8-.5-1.8-.8-2.4-1.5"/>
        <path class="cls-11" d="M67.4,72.1c0,0,0-.2,0-.2.4.1.8.2,1.2.3,0,0,0,.1,0,.2,0,0-.1.2-.2.3-.3-.2-.7-.4-1-.6"/>
        <path class="cls-4" d="M55,59.2c.3.2.5.4,1,.9-.9,0-1-.4-1.2-.8,0,0,0,0,.1-.1"/>
        <path class="cls-11" d="M62.8,74.5c-.6,0-.6-.5-.5-.9.2.3.4.6.5.9"/>
        <path class="cls-4" d="M56.4,60.6s0,.1-.1.1c0,0,0,0,0,0,0,0,0-.1,0-.2,0,0,.1,0,.2.1"/>
        <path class="cls-7" d="M68.3,71.2c.3,0,.6,0,.3.4-.1-.1-.2-.2-.3-.4"/>
        <path class="cls-7" d="M67.7,70.9c.3,0,.5,0,.6.3-.3,0-.5,0-.6-.3"/>
        <path class="cls-7" d="M64.2,68.8c.3,0,.6,0,.8.3-.3,0-.6-.1-.8-.3"/>
        <path class="cls-7" d="M65,69.1c.2,0,.3,0,.3.3-.2,0-.3-.1-.3-.3"/>
        <path class="cls-3" d="M59.2,65.2s0,0,.1,0c0,0,0,0-.1,0h0"/>
        <path class="cls-5" d="M66.2,61.9c-.3-.1-.3-.2,0-.4,0,.1,0,.2,0,.4"/>
        <path class="cls-5" d="M66.2,61.6c.1-.1.2-.2.3-.3,0,.2,0,.3-.3.3"/>
        <path class="cls-5" d="M66.5,61.3c0-.2.1-.3.3-.3,0,.2,0,.3-.3.3"/>
        <path class="cls-5" d="M66.8,61c0-.2,0-.3.3-.3,0,.3,0,.4-.3.3"/>
        <path class="cls-10" d="M68.6,59.5c0-.1.2-.2.3-.3,0,.1-.2.2-.3.3"/>
        <path class="cls-12" d="M81.5,58.9c1.9-.7,3.8-1.1,5.7-1.2.1.7-.2.9-.9,1-2,.2-3.8.8-5.5,1.9-1.8.8-3.6,1.7-5.6,2.1-.2,0-.4-.2-.6-.2,2.3-1.2,4.6-2.4,6.9-3.6"/>
        <path class="cls-12" d="M68.4,64c-.3.1-.5.3-.8.4,0-.7.4-.4.8-.4"/>
        <path class="cls-12" d="M69.8,63.4c-.2.4-.6.4-.9.5,0-.6.5-.6.9-.5"/>
        <path class="cls-12" d="M70.4,63.1c0,.4-.3.4-.6.3,0-.4.3-.4.6-.3"/>
        <path class="cls-3" d="M74.7,62.4c.2,0,.4.2.6.2-.8.5-1.8.7-2.7.8,0,0-.1-.1-.2-.2.7-.4,1.4-.7,2.2-.9"/>
        <path class="cls-3" d="M69.8,64.3c-.2,0-.3.1-.5.2,0,0,0,0,0-.1.2,0,.4,0,.6,0h0"/>
        <path class="cls-3" d="M69.8,64.3c.1-.2.3-.3.6-.2-.1.4-.4.1-.6.2h0"/>
        <path class="cls-3" d="M71.9,63.7c-.1.2-.4.3-.6.2,0,0,0,0,0-.1.2,0,.5,0,.7-.1h0Z"/>
        <path class="cls-3" d="M71.9,63.7c0-.3.3-.3.5-.4,0,0,.1.1.2.2-.2,0-.5.1-.7.2h0"/>
        <path class="cls-5" d="M68.9,67c0,0,0-.2,0-.3,2.4.1,4.8-.2,7.2-.3-1.5,1-3.2.4-4.8.8-.2,0-.5,0-.7,0-.4,0-.8,0-1.2,0-.2,0-.4,0-.6-.1"/>
        <path class="cls-11" d="M68.6,72.4c1,.3,1.7,1,2.4,1.9-.6.2-.8-.2-1.2-.3-.1,0-.2-.2-.3-.3,0,0,0,0,0,0,0,0-.2-.1-.2-.2,0,0-.1,0-.1,0-.2-.2-.4-.5-.7-.7,0,0,.1-.2.2-.3"/>
        <path class="cls-8" d="M68.4,72.6c.2.2.4.5.7.7-.3-.1-.6-.2-.8-.3,0,0-.2,0-.3,0h0c0-.4-1-.3-.6-1,.3.2.7.4,1,.6"/>
        <path class="cls-8" d="M70.7,67.2c.2,0,.5,0,.7,0,.3,0,.6.2.8.2-.5-.1-1.2.7-1.5-.3"/>
        <path class="cls-8" d="M68.9,67c.2,0,.4,0,.6.1-.6.9-1,.2-1.5-.1.3,0,.6,0,.9,0"/>
        <path class="cls-5" d="M76.1,66.4c.2-.4.6-.3.9-.3-.2.5-.6.4-.9.3"/>
        <path class="cls-8" d="M69.5,73.7c.1,0,.2.2.3.3-.1,0-.2-.2-.3-.3"/>
        <path class="cls-8" d="M69.2,73.4c0,0,.2.1.2.2,0,0-.2-.1-.2-.2"/>
        <path class="cls-6" d="M68,73c0,0,.2,0,.3,0-.1.3-.2.2-.3,0"/>
        <path class="cls-10" d="M53.8,57.3c0,.1,0,.3,0,.4-.1-.1-.4-.3,0-.4"/>
      </g>
    </g>
  </g>
</svg>