<?xml version="1.0" encoding="UTF-8"?>
<svg xmlns="http://www.w3.org/2000/svg" xmlns:xlink="http://www.w3.org/1999/xlink" version="1.1" viewBox="0 0 131.4 116.5">
  <defs>
    <style>
      .cls-1 {
        fill: none;
      }

      .cls-2 {
        fill: #ef9ba6;
      }

      .cls-3 {
        fill: #f6bec6;
      }

      .cls-4 {
        clip-path: url(#clippath);
      }
    </style>
    <clipPath id="clippath">
      <rect class="cls-1" y="0" width="131.4" height="116.5"/>
    </clipPath>
  </defs>
  <!-- Generator: Adobe Illustrator 28.7.5, SVG Export Plug-In . SVG Version: 1.2.0 Build 176)  -->
  <g>
    <g id="Layer_1">
      <g class="cls-4">
        <path class="cls-2" d="M62.9,46.3c.2.7.3,1.4,1.2,1.9.4-4.1,3.2-6.7,5.6-9.5,1.3-1.5,2.4-1.2,3.7-.2,2,1.7,3.5,3.8,3.9,6.4,2.3,13.3.8,25.9-7.8,37-4.3,1.4-7.7,4.1-10.6,7.5-1.6,1.8-3.2,3.5-5,5-1.5,1.3-3.2,2.5-4,4.4-.4.2-.8.3-1.1.6-3.3,1.9-4,1.6-5-2.2.5-.9.8-1.8,1-2.8,2.2-10.1,5-20,8.7-29.7,2.4-6.5,6.3-12.3,9.6-18.4"/>
        <path class="cls-3" d="M62.9,46.3c-3.3,6.1-7.1,11.9-9.6,18.4-3.6,9.7-6.4,19.6-8.7,29.7-.2,1-.5,2-1,2.8-2.4-3.7-3.2-7.9-3.7-12.1-1.4-11.8.9-22.9,6.5-33.3,2.8-5.2,6.2-9.9,11.3-13.3.4-.3.8-.6,1.3-.8,2.8-1.5,3.9-.9,3.9,2.4,0,2,0,4.1,0,6.1"/>
        <path class="cls-3" d="M49.9,98.9c.8-2,2.5-3.1,4-4.4,1.8-1.6,3.4-3.2,5-5,2.9-3.3,6.3-6.1,10.6-7.5-4.7,7.7-10.9,13.8-19.6,16.9"/>
      </g>
    </g>
  </g>
</svg>