<?xml version="1.0" encoding="UTF-8"?>
<svg xmlns="http://www.w3.org/2000/svg" xmlns:xlink="http://www.w3.org/1999/xlink" version="1.1" viewBox="0 0 131.4 116.5">
  <defs>
    <style>
      .cls-1 {
        fill: none;
      }

      .cls-2 {
        fill: #eb8997;
      }

      .cls-3 {
        fill: #ef9ba6;
      }

      .cls-4 {
        fill: #e7818f;
      }

      .cls-5 {
        fill: #ba4858;
      }

      .cls-6 {
        fill: #ca5965;
      }

      .cls-7 {
        fill: #fae0df;
      }

      .cls-8 {
        fill: #ec8f9c;
      }

      .cls-9 {
        clip-path: url(#clippath);
      }
    </style>
    <clipPath id="clippath">
      <rect class="cls-1" y="0" width="131.4" height="116.5"/>
    </clipPath>
  </defs>
  <!-- Generator: Adobe Illustrator 28.7.5, SVG Export Plug-In . SVG Version: 1.2.0 Build 176)  -->
  <g>
    <g id="Layer_1">
      <g class="cls-9">
        <path class="cls-2" d="M24.8,93.6c.9-6.3,4.4-11.4,8.4-16.1,1-1.2,2.1-2.3,3.5-3.7-5.3-.2-10.1-1-14.4-3.5-3.2-1.8-6-4.1-7.6-7.5-1.5-3-1.1-4.6,1.5-6.6q4-3-.2-6.1c-.1,0-.2-.2-.3-.3-3.3-2.4-3.4-2.6.3-4.8,10.9-6.5,22.2-8.6,33.9-2.2,1.1.6,2.2,1,3.3,1.5,0,1.6.8,2.8,2.1,3.7.9.5,1,1.6,1.7,2.2,0,.4,0,.9,0,1.3h-.2c-.5.2-1.1-.1-1.5.5.4.9,1.1,1.4,1.7,2,2.1,2.2,4.3,4.3,6.3,6.6.5.5,1.5,1.2.8,2-.6.6-1.2-.3-1.9-.6-2.9-1.3-4.9-3.5-6.8-5.9-1.3-1.5-3.4-2.4-3.7-4.8-.1-.9-1.2-.3-1.8-.1-1.2.4-1.2,1.3-1.1,2.2,0,.6.8,1,1.1.7,1.7-1.5,1.9.4,2.6,1.1,1.7,1.7,3.2,3.5,4.8,5.3.5.6,1.7,1.3,1.1,2.1-.6.8-1.6,0-2.4-.4-1.2-.5-2.3-1.2-3.5-1.7-1-.4-2.1-2.2-2.7-1.1-.6.9,1.4,1.7,2.5,2.2,3.1,1.4,6.2,2.8,9.6,4.3-4,1.4-11.7,0-16.1-2.8,1.6-.9,1.1-2,0-3-1.1-1-2-.2-2.7.7-1,1.3-.7,2.3,1.3,3,3.8,1.5,7.7,2.9,11.6,4.3h0c2.5,1.9,5.3,1.8,8.2,1.6,0,0,.1.1.2.2-2.9,2.9-5.8,5.9-10.4,3.2-.8-.4-2.3-.8-2.3,1.1-.7,1.3-1.9,1.9-3.1,2.6-7.1,4.1-14.1,8.4-19.9,14.4-1,1.1-2.2,2.6-4.1,2.4"/>
        <path class="cls-3" d="M56.1,44.3c-4.5-10.8-3.7-23.9,4.1-33.2.5-.6,1.1-1.1,1.7-1.7,3.8-3.2,3.8-3.2,5.6,1.5,1,2.6,1.9,5.2,3.4,8,1.4-2.8,2.7-5.7,4.1-8.5.6-1.2.8-3.3,1.8-3.4,1.2-.1,1.9,1.8,2.6,2.9,2.3,3.6,4.8,7.1,6.8,10.8,5,9.4,4.4,18.9.4,28.5-.7,0-1.4,0-1.9.6-1.9,1.1-1.1,2.3,0,3.5-2.8,5-7.8,7.4-12.1,10.7.3-1.3,1.1-2.2,2.1-2.9,2.5-1.8,4-4.7,7.1-6.4-1.3-.1-2-.3-2-1.4,0-.4-.3-.8-.8-.8-.5,0-.6.4-.7.7-.4,3.1-2.5,5.3-4.5,7.4-1,.4-1.3,1.8-2.7,1.9,1-5.3,1.9-10.5,2.3-16.2-.7.9-.8,1.7-1,2.5-.7,3.4-1.6,6.7-2.8,10-.1.4,0,1.2-.8,1-.6,0-1.1-.3-1.2-1-.2-3.1-1.6-6.2.2-9.3.1-.2.2-.6.2-.8,0-.4,0-.9-.5-1.1-.5-.2-.8.2-1,.6-.6,1.1-1,2.2-1.1,3.5,0,2.5.3,4.9.3,7.4-1.5-1.9-2.5-4.1-4.1-5.9-.7-1.1-.7-2.6-1.9-3.4h0c0-1.4-.9-2.9.6-4.3.5-.4-.1-1.5-.7-2.1-.6-.6-1.1-.4-1.7,0-.6.3-1.3.6-1.9.9M68.9,41.4c-.9.2-1.5.9-1.5,1.9,0,.8.5,2,1.4,1.9.9-.2,1.7-1.3,1.8-2.4.1-1-.7-1.3-1.7-1.4M74.6,55.8c.1,0,.4,0,.4-.3-.2-1.8,1.5-2.8,1.9-4.4.2-.7.7-1.6,0-1.9-.8-.3-.9.7-1.2,1.2-.6,1.4-1.1,2.8-1.7,4.2-.3.7-.2,1.1.7,1.2M77.6,46.8c.9-.1,1.2-.8,1-1.4-.1-.7,0-1.8-1-1.9-.9,0-1.2.8-1.2,1.5,0,.8.2,1.6,1.2,1.8"/>
        <path class="cls-8" d="M84.7,53.4c-1-1.2-1.8-2.4,0-3.5-.2,1.2-.2,2,1.3,1.1.7-.4,1.5-.8,2-1.6,2-1.1,3.8-.2,5.6.6,4.4,1.9,7.3,5.5,9.3,9.7,3.7,7.6,6.6,15.5,7.9,23.8,1,6.3-1.8,8.7-7.3,9-7.5.4-14.6-1.9-21.7-3.9-3.4-.9-6.8-2-10.4-.8-1.4.5-1.9-.6-2-1.8.2-3.7,2.4-6.8,2.8-10.4.2-2.2.7-4.4,1.2-6.6.2-.8.2-1.8,1.4-1.8,2.4-.1,4.8-1,7.2-.4.6.1,1,0,1.4-.5,1.1-1.1,1.4-2.3.5-3.7-.6-1-1.5-1.2-2.6-.8-1.6.7-1.7,1.8-.7,3.4-2.4-.3-4.3.2-6.3.4,0,0-.2-.2-.2-.3,1.1-2,3.7-1.7,5.1-3.6,2.2-2.9,4.5-5.8,7.6-7.8.5-.4,1.1-.9.3-1.6-.5-.5-1.2-.5-1.7,0-.3.3-.5.7-.7,1"/>
        <path class="cls-3" d="M24.8,93.6c1.9.2,3.1-1.3,4.1-2.4,5.8-6,12.8-10.3,19.9-14.4,1.2-.7,2.4-1.3,3.1-2.6,1.1.2,1.9,1,2.7,1.7,1,.9,2.2,1.8,3-.3.2-.5.5-.6,1-.6,1.9,0,3.4-1.1,4.8-2.2,1.3-.9,2.4-2,3.8-3.2-.2,4.1,0,7.9,1.2,11.6.3.8,0,1.7,0,2.6-6.1,4.7-12.4,9.3-18.3,14.2-5,4.1-10.6,5.2-16.9,4.3-2.2-.3-4.3-.5-6.5,0-1.3.3-2-.2-2.3-1.5-.4-2.4-.6-4.9.3-7.2"/>
        <path class="cls-5" d="M68.5,83.7c0-.9.2-1.8,0-2.6-1.2-3.7-1.3-7.5-1.2-11.6-1.4,1.2-2.5,2.3-3.8,3.2-1.4,1.1-3,2.1-4.8,2.2-.5,0-.8.1-1,.6-.8,2.1-1.9,1.2-3,.3-.8-.7-1.5-1.5-2.7-1.7,0-1.9,1.5-1.5,2.3-1.1,4.7,2.7,7.5-.3,10.4-3.2,0,0,.2-.2.2-.3-.2-.2-.3,0-.4,0-2.9.1-5.7.3-8.2-1.6,1-.2,1.8.3,2.7.5,2.1.6,3.9,0,5.6-1.3-2.4,0-4.8.7-7.3,0-.6-.2-.9.2-1,.8-3.9-1.4-7.7-2.8-11.6-4.3-2-.8-2.3-1.7-1.3-3,.7-.9,1.6-1.7,2.7-.7,1,.9,1.5,2,0,3,4.3,2.7,12,4.2,16.1,2.8-3.4-1.5-6.5-2.9-9.6-4.3-1.1-.5-3-1.2-2.5-2.2.7-1.1,1.8.7,2.7,1.1,1.2.5,2.3,1.3,3.5,1.7.8.3,1.8,1.2,2.4.4.6-.8-.6-1.5-1.1-2.1-1.6-1.8-3.1-3.6-4.8-5.3-.6-.7-.9-2.6-2.6-1.1-.3.2-1.1-.1-1.1-.7,0-.9,0-1.9,1.1-2.2.7-.2,1.7-.8,1.8.1.3,2.4,2.4,3.3,3.7,4.8,1.9,2.3,4,4.6,6.8,5.9.6.3,1.3,1.2,1.9.6.7-.8-.3-1.5-.8-2-2.1-2.2-4.2-4.4-6.3-6.6-.6-.6-1.3-1.1-1.7-2,.4-.6,1-.2,1.5-.3,0,.2,0,.6.3.5.3-.1,0-.4-.2-.6,0-.4,0-.9,0-1.3.5.2,1.1.3,1.4.8-.1,3.2,2.1,4.9,4.7,6.9-.3-2-1.8-3-1.9-4.5,0,0,.2-.2.3-.2,1.6,1.8,2.6,4,4.1,5.9,0-2.5-.4-4.9-.3-7.4,0-1.3.5-2.4,1.1-3.5.2-.4.5-.7,1-.6.5.2.5.6.5,1.1,0,.3,0,.6-.2.8-1.8,3.1-.4,6.2-.2,9.3,0,.8.6.9,1.2,1,.8.1.7-.6.8-1,1.1-3.3,2.1-6.6,2.8-10,.2-.8.3-1.5,1-2.5-.4,5.6-1.3,10.9-2.3,16.2,1.4-.2,1.7-1.6,2.7-1.9.4,0,.7.1.9.5-.9.8-1.7,1.6-2.1,2.9,4.2-3.3,9.3-5.7,12.1-10.7.2-.4.4-.7.7-1,.5-.5,1.2-.5,1.7,0,.7.7.2,1.2-.3,1.6-3.1,2.1-5.5,4.9-7.6,7.8-1.4,1.9-4.1,1.6-5.1,3.6-.2.1-.6.1-.4.4.2.2.5,0,.7-.2,2-.2,4-.8,6.3-.4-1-1.5-.9-2.7.7-3.4,1.1-.5,2-.2,2.6.8.9,1.4.6,2.6-.5,3.7-.4.4-.8.6-1.4.5-2.5-.6-4.8.3-7.2.4-1.3,0-1.3,1.1-1.4,1.8-.5,2.2-1,4.4-1.2,6.6-.4,3.6-2.6,6.8-2.8,10.4-1-.5-.9-1.4-.9-2.3M71.6,65c.1-.1.3-.3.4-.4,0,0-.1-.2-.2-.3-.1.1-.3.2-.4.4,0,0,.1.2.3.3M64,58.4s-.1,0-.1,0c0,0,0,.1,0,.2,0,0,.1,0,.2,0,0,0,0-.1,0-.2"/>
        <path class="cls-5" d="M56.1,44.3c.6-.3,1.3-.6,1.9-.9.6-.3,1.2-.5,1.7,0,.5.6,1.2,1.6.7,2.1-1.5,1.4-.7,2.9-.6,4.3-.7-.3-.7-1-.9-1.6-.6-1.9-1.8-2.7-3.7-2.1-.1,0-.2,0-.3-.1,0,0,0,.2.1.3.2.5.3,1.1.5,1.6-1.3-.9-2.1-2.1-2.1-3.7.4,0,.8.2,1.2.2.2,0,.3,0,.5,0,.4,0,.7-.1,1.1-.2"/>
        <path class="cls-5" d="M88,49.4c-.4.8-1.2,1.2-2,1.6-1.5.8-1.6,0-1.3-1.1.5-.5,1.2-.5,1.9-.6.4,0,.9,0,1.3.1"/>
        <path class="cls-3" d="M55,44.5c-.2,0-.3,0-.5,0,.2-.2.3-.2.5,0"/>
        <path class="cls-7" d="M55.4,48c-.2-.5-.3-1.1-.5-1.6,0,0,.1,0,.2-.2,2-.6,3.2.1,3.7,2.1.2.6.2,1.3.9,1.6h0c.1.7.3,1.4.4,2.1-.5-.3-1.1-.6-1.6-1-.3-.5-.9-.6-1.4-.8-.7-.7-.8-1.8-1.7-2.2"/>
        <path class="cls-6" d="M74.6,61.2c-.2-.4-.5-.5-.9-.5,2-2.2,4.1-4.3,4.5-7.4,0-.3.2-.7.7-.7.5,0,.8.4.8.8,0,1.1.7,1.2,2,1.4-3.1,1.7-4.6,4.6-7.1,6.4"/>
        <path class="cls-5" d="M68.9,41.4c1,.1,1.8.4,1.7,1.4-.1,1.1-.9,2.2-1.8,2.4-.9.2-1.3-1-1.4-1.9,0-1,.6-1.7,1.5-1.9"/>
        <path class="cls-6" d="M74.6,55.8c-.9,0-.9-.5-.7-1.2.6-1.4,1.1-2.8,1.7-4.2.2-.5.4-1.5,1.2-1.2.8.4.3,1.2,0,1.9-.4,1.5-2.2,2.5-1.9,4.4,0,.4-.2.2-.4.3"/>
        <path class="cls-5" d="M77.6,46.8c-.9-.2-1.2-1-1.2-1.8,0-.7.3-1.6,1.2-1.5,1,0,.9,1.2,1,1.9.1.6-.2,1.3-1,1.4"/>
        <path class="cls-5" d="M60.2,52c-.1-.7-.3-1.4-.4-2.2,1.2.8,1.2,2.3,1.9,3.4,0,0-.2.2-.3.2-.8-.2-.6-1.1-1.2-1.5"/>
        <path class="cls-4" d="M60.2,52c.6.3.4,1.3,1.2,1.5.1,1.5,1.6,2.5,1.9,4.5-2.6-2.1-4.8-3.7-4.7-6.9.5.3,1.1.6,1.6,1"/>
        <path class="cls-4" d="M56.3,68.1c0-.6.4-1,1-.8,2.4.7,4.8,0,7.3,0-1.7,1.3-3.5,1.9-5.6,1.3-.9-.3-1.7-.7-2.7-.5h0"/>
        <path class="cls-3" d="M71.6,65c-.1-.1-.3-.3-.3-.3.1-.1.3-.3.4-.4,0,0,.2.2.2.3,0,.2-.2.3-.4.4"/>
        <path class="cls-8" d="M74.3,65.6c-.2.2-.5.4-.7.2-.2-.3.3-.3.4-.4,0,0,.2.2.2.3"/>
        <path class="cls-4" d="M64,58.4c0,0,0,.1,0,.2,0,0-.1,0-.2,0,0,0,0-.1,0-.2,0,0,0,0,.1,0"/>
        <path class="cls-2" d="M57.2,51.5c.2.2.5.5.2.6-.3.2-.3-.3-.3-.5,0,0,.1-.1.1-.1"/>
        <path class="cls-2" d="M64.5,69.7c.1-.1.3-.3.4,0,0,0-.1.2-.2.3,0,0-.1-.1-.2-.2"/>
        <path class="cls-2" d="M55.1,46.2c0,0,0,.1-.2.2,0,0,0-.2-.1-.3.1,0,.2,0,.3.1"/>
      </g>
    </g>
  </g>
</svg>