<?xml version="1.0" encoding="UTF-8"?>
<svg xmlns="http://www.w3.org/2000/svg" xmlns:xlink="http://www.w3.org/1999/xlink" version="1.1" viewBox="0 0 131.4 116.5">
  <defs>
    <style>
      .cls-1 {
        fill: none;
      }

      .cls-2 {
        fill: #ef9ba6;
      }

      .cls-3 {
        fill: #ec8f9c;
      }

      .cls-4 {
        clip-path: url(#clippath);
      }
    </style>
    <clipPath id="clippath">
      <rect class="cls-1" y="0" width="131.4" height="116.5"/>
    </clipPath>
  </defs>
  <!-- Generator: Adobe Illustrator 28.7.5, SVG Export Plug-In . SVG Version: 1.2.0 Build 176)  -->
  <g>
    <g id="Layer_1">
      <g class="cls-4">
        <path class="cls-3" d="M51.4,94c-1.9-.2-2.8-1.7-3.6-3.1-2.1-3.4-2.9-7.3-3.2-11.2-1.2-15.2,4.2-27.8,15.5-37.9,4.7-4.2,9.9-7.8,15.8-10.2,2.8-1.1,5.7-1.6,8.6-2,1.4-.2,1.9.5,2.3,1.7.7,2.4,0,4.9.8,7.3,0,.9-.4,1.7-.9,2.4-1,1.5-1.9,3-2.7,4.6-2.8,5.7-4.8,11.8-8.6,16.9-3.7,5-6.1,10.7-9.8,15.6-4.3,5.6-9.3,10.6-14.1,15.7"/>
        <path class="cls-2" d="M51.4,94c4.8-5.2,9.8-10.1,14.1-15.7,3.7-4.9,6.2-10.7,9.8-15.6,3.8-5.2,5.9-11.2,8.6-16.9.8-1.6,1.7-3.2,2.7-4.6.5-.7.9-1.5.9-2.4.2-.2.5-.3.7-.5,1.2-.8,2.3-2.2,3.8-1.4,1.4.7,1.5,2.4,1.5,3.9,0,6.9-2.1,13.2-5.4,19.2-6.2,11.1-14.6,20.4-24.2,28.7-2.5,2.2-5.4,3.8-8.4,5.3-1.4.7-2.8.8-4.2.2"/>
      </g>
    </g>
  </g>
</svg>