<?xml version="1.0" encoding="UTF-8"?>
<svg xmlns="http://www.w3.org/2000/svg" xmlns:xlink="http://www.w3.org/1999/xlink" version="1.1" viewBox="0 0 131.4 116.5">
  <defs>
    <style>
      .cls-1 {
        fill: none;
      }

      .cls-2 {
        fill: #ef9ba6;
      }

      .cls-3 {
        fill: #f6bec6;
      }

      .cls-4 {
        clip-path: url(#clippath);
      }
    </style>
    <clipPath id="clippath">
      <rect class="cls-1" y="0" width="131.4" height="116.5"/>
    </clipPath>
  </defs>
  <!-- Generator: Adobe Illustrator 28.7.5, SVG Export Plug-In . SVG Version: 1.2.0 Build 176)  -->
  <g>
    <g id="Layer_1">
      <g class="cls-4">
        <path class="cls-2" d="M47.8,22.4c8.8,1.7,16.6,5.6,23.3,11.4,11,9.5,15.9,21.9,16.8,36.1.4,6.9-.4,13.6-3.5,19.8-2.2,4.3-3,4.3-6,.5-.8-1-1.6-2.1-2.3-3.1.1-1-.5-1.8-.9-2.6-1.8-3.8-3.3-7.7-4.4-11.7-1.3-4.9-2.9-9.8-4.8-14.6-3.9-9.8-9.6-18.6-14.3-27.9-1.3-2.6-3.4-4.9-3.9-7.9"/>
        <path class="cls-3" d="M47.8,22.4c.5,3,2.5,5.3,3.9,7.9,4.7,9.3,10.4,18.2,14.3,27.9,1.9,4.8,3.5,9.6,4.8,14.6,1.1,4.1,2.6,8,4.4,11.7.4.8,1,1.6.9,2.6-2,1.7-2.8,4-2.9,6.5,0,2.2-1.5,2-2.8,1.7-3.7-1-7-2.7-9.9-5.3-10.3-9.4-15.3-21-15.4-35,0-7.3.9-14.4,1.7-21.5.4-3.2.3-6.5,0-9.7-.1-1.1,0-1.5,1.1-1.4"/>
      </g>
    </g>
  </g>
</svg>