<?xml version="1.0" encoding="UTF-8"?>
<svg xmlns="http://www.w3.org/2000/svg" xmlns:xlink="http://www.w3.org/1999/xlink" version="1.1" viewBox="0 0 131.4 116.5">
  <defs>
    <style>
      .cls-1 {
        fill: none;
      }

      .cls-2 {
        fill: #eb8997;
      }

      .cls-3 {
        fill: #dc6d80;
      }

      .cls-4 {
        fill: #f4c7c7;
      }

      .cls-5 {
        fill: #ba4858;
      }

      .cls-6 {
        fill: #ca5965;
      }

      .cls-7 {
        fill: #fae0df;
      }

      .cls-8 {
        fill: #f6d2d2;
      }

      .cls-9 {
        clip-path: url(#clippath);
      }

      .cls-10 {
        fill: #f8d7d6;
      }
    </style>
    <clipPath id="clippath">
      <rect class="cls-1" y="0" width="131.4" height="116.5"/>
    </clipPath>
  </defs>
  <!-- Generator: Adobe Illustrator 28.7.5, SVG Export Plug-In . SVG Version: 1.2.0 Build 176)  -->
  <g>
    <g id="Layer_1">
      <g class="cls-9">
        <path class="cls-7" d="M31,61.8c-3.2-1.1-5.7-3.3-8.4-5.3-.8-.6-1.5-1.4-2.4-2-1.1-.7-.6-1.1.1-1.6,0,0,.2,0,.3-.1,2.5-1.2,2.6-1.3.5-3-3.6-3.1-2.6-6,1.3-7.9,4.2-2.1,8.7-3.3,13.4-3.3,2.3,0,4.7.4,7.2,1.2-.9-2.8-.9-5.5-.8-8.2.2-5.3,1.9-10,5.8-13.8.8-.8,1.4-.9,2.1,0,.7,1,1.3,1,2.3.1,2.8-2.3,3.1-2.3,6,0,1.9,1.5,3,3.7,4.5,5.6,2.6,3.3,5.4,6.5,7.1,10.4.4.9,1,1.8.9,2.9-.2.6-.7.3-1.1.3-1.8,0-2.7,1-2.4,2.8.4,2.7.3,5.5.1,8.2-.1,1.8-.5,3.5-1.7,5,.2-3.4.6-6.9-.5-10.6-.2,3.8-.4,7.2-.6,10.5-.4,1-.4,2-.5,3.1-.3.2-.6.3-.6-.1,0-2.8-1.3-5.6-.5-8.5.2-.9-.3-1.4-.9-1.8-.3-.2-.6-.2-.8,0-.5.6-.3,1.1,0,1.7.8,1.4,1,3.6.7,4.9-1-2.9-2.4-5.4-3.1-8.3-.2-1.1-.1-1.5,1-1.6.8,0,1.5-.4,1.3-1.4-.1-.7-.6-1.1-1.4-1.1-1.2,0-.7,1-.7,1.6-.6.1-1-.3-1.5-.4-.1-.2-.2-.3-.3-.5-.2-.4-.2-1.3-.8-1.2-.6,0-1,.7-1,1.4,0,.3,0,.7,0,1,.9.3,1.2-.9,2-.6.4.8.7,1.6.9,2.4.9,3.3,1.7,6.7,2.9,9.9.1.6.3,1.2.4,1.8,0,0,0,.2,0,.3,0,.9.2,1.8.3,2.7-.1,0-.2,0-.3,0l-2.4-3.3c-1.1-2.4-2.3-4.8-2.6-7.8-.8,1.3-.4,2.3-.1,3.2.3,1.1.8,2.2,1.2,3.3,0,0-.2.2-.3.2-2-1.8-4.6-3.1-4.7-6.3,0-.4-.3-.7-.8-.7-.5,0-.8.3-1.1.7-.2.3-.2.6,0,.8,2.1,1.5,2.9,4,5.1,5.4.3.2,1.1.4.6,1.2-2.7-.8-4.9-2.5-7.2-3.9-.6-.4-1.4-.8-.6-1.7.1-.2,0-.4-.1-.5-.5-.2-.8.2-1.2.4-.5.3-.9.7-.9,1.3,0,.7.6.2.9.2.3,0,.6,0,.8.2,2.4,1.5,4.8,3.1,7.2,4.6-.4.2-.9.3-1.3.1-1.5-.6-2.8,0-4.1.5-3.3,1.4-6.5,3-9.8,4.4-2.9,1.2-5.8,2.6-8.8.3-.5-.4-.4.4-.5.7M48,45.9c.4,0,1.1,0,1.1-.5,0-.7-.7-.8-1.3-.9-.4,0-1,0-1,.6,0,.6.6.8,1.2.9"/>
        <path class="cls-10" d="M31,61.8c0-.3,0-1.1.5-.7,3.1,2.3,6,.9,8.8-.3,3.3-1.4,6.5-3,9.8-4.4,1.3-.6,2.6-1.1,4.1-.5.4.2.9,0,1.3-.1,0,0,0,0,0,0,0,0,0,.2,0,.2,0,0,.1-.1.2-.2,1.5,1.2,3.3,2,5,3.1-5.9,1.4-11.7,2.8-17.4,5.3.5.1.8.2,1.1.2.5,0,1,.1,1.5.1,4.8.3,9.5-.2,14-2,.5-.2.9-.4,1.3.3,1.7,3.6,3.5,7.2,5.2,10.9-1,1.2-1.1,2.7-1.4,4.1-1.5,6.4-4.6,12-9.3,16.5-3.8,3.7-8.2,6.3-13.4,7.6-1.3.3-2.2,0-2.6-1.3-.2-.5-.4-.8-1-.9-4.4-1-5.7-3.7-6.2-8-.5-4.4.6-8.6,1.3-12.9.3-1.4.5-2.9.7-4.3.5-3.6,2.7-6.1,5.3-8.3.3-.2.5-.4.8-.6,0,0,.2-.2.3-.5-3.6-.4-7-1.3-10-3.2"/>
        <path class="cls-4" d="M97.7,56.8c.6,0,1,.2,1.4.6.1,0,.2.2.3.3,0,0,.2,0,.3,0,0,.6.5.6.9.6,0,0,0,0,0,0,.1,0,.2.2.3.3.1,0,.2.2.3.3,1.6.9,2.9,2.1,4.1,3.6,0,.2,0,.5.3.6h0c.1,0,.2.2.3.3.8.6,1.4,1.4,1.8,2.3,0,.1.2.2.3.3,2.2,2.8,3.4,6.1,4.3,9.5.2.8-.5,1.1-1.1,1.4-2,1-4.3.8-6.4,1.2-.2,0-.5,0-.8,0,.3.9.8,1.6.9,2.5.5,2.9-1.3,5-4.4,5.2-1.9.1-3.7-.3-5.2-1.2-1.7-1-3.5-1.5-5.4-1.8-2.9-.5-5.6-1.6-8.4-2.7-3.6-1.4-7.4-2.2-11.2-2.9-.5,0-1-.3-1.6-.4.3-3.3-.9-6.3-1.5-9.5.8-.2,1.7.5,2.5-.3-1.8-.4-3.1-1.2-3.6-3,0,0,0-.1.1-.2,1.9,1.6,4.2,2.3,6.4,3.3-.4.9-.3,1.8.5,2.1.6.2,1.5-.1,1.9-.8.5-.9-.2-1.8-.7-2.3-.6-.6-.9.3-1.3.7-2.2-1-4.5-1.9-6.3-3.7,2.2.1,4.4.3,6.5.8,2.3.5,4.7-.3,6.9.7.3.2.3-.1.5-.3.8-1.2,2.8-1.3,3.8-.4.4.4.9.7,1.4.2.3-.3.8-.5.7-1-.2-.7-.8-.7-1.3-.6-1.9.2-3.8.5-5.7.7-2.9.3-5.8.3-8.9-.5,2-1.1,3.8-2,5.8-2.6,1.8-.5,3.5-1.2,5.2-2.1.2.2.4.2.6.2,2.4-.5,4.4-2.1,6.7-2.8.2,0,.4,0,.6,0,2.5.4,5,.3,7.4,1.1,0,0,.2,0,.3,0,.1,0,.2.2.3.3M84.3,59.5c-.3,0-.7,0-.6.4.2.7.9.8,1.5.9.3,0,.8,0,.7-.5-.2-.8-1.1-.6-1.6-.8"/>
        <path class="cls-7" d="M73,37.9c-.2-1,.5-1.5,1-2.2,2.7-4,5.6-7.9,9.5-10.9.8-.6,1.7-1.1,2.7-1.4,1.1-.3,2.1-.4,3.1.4,1,.8,0,1.6,0,2.5,1.9-.3,3.6-1.2,5.5-1.5.9-.1,1.8-.2,2.6-.1,1.5.1,2.3,1.4,2.4,3.2.2,3.5-.7,6.9-1.5,10.2-1,4-2.5,7.9-4.6,11.5-.3.5-.7,1-1.2,1.3-.3.1-.3.3-.3.6h0c-.4,0-.6.2-.6.6h0c-.1,0-.2.2-.3.3,0,0,0,0,0,0-.2.1-.3.3-.3.6h0c-.4,0-.6.2-.6.6h0c0,0-.2.2-.3.3h0c-.4,0-.8.3-1.1.2-1.9-.5-3.6,0-5.2.8-.6.3-1.1.1-1.7-.1,1.8-1,3.6-1.9,5.4-3,.5-.3,1.1-.8.7-1.4-.4-.7-1.2-.4-1.8-.1-.5.2-1.3.5-.8,1.2.5.7,0,.7-.4,1-3.9,1.9-7.8,3.9-11.9,5.4-.2,0-.3.1-.5.2-.1,0-.2,0-.3,0-.9.2-1.8.5-2.7.7,0-.2,0-.3,0-.5,3.3-1.7,5.9-4.3,8.3-7.1.6,0,1.1.4,1.6.6.5.2.9.4,1.3,0,.4-.4.3-.9.2-1.4-.4-1.1-1.2-1.2-2.1-1.1-1.2.2-1,1.1-1,1.9-1.2,0-1.9.9-2.7,1.6-1.7,1.6-3.4,3.1-5.5,4.1-.1-.1-.2-.2-.4-.3,1.2-1.2,2.3-2.4,3.5-3.6,0-.1.2-.2.3-.3,0,0,.2-.2.3-.3,1.1-1.2,2.2-2.4,2.1-4.2.5-.7.8-1.5.5-2.4-.4-1.4-.2-2.7-.3-4.1.7-1,0-1.5-.6-2.1-.7-.7-1.9-.6-2.2-1.7M76.3,43.4c0,1.1.3,2.2,1.6,2.1,1,0,1.5-.8,1.7-1.7.2-.9-1.1-2.7-1.8-2.6-1.2.2-1.4,1.3-1.5,2.2"/>
        <path class="cls-5" d="M72.9,53c-1.2,1.2-2.3,2.4-3.5,3.6,0,0-.1.1-.2.2-.2,0-.5.2-.4.4.2.3.5.1.7,0,.1,0,.2-.1.4-.2,2.1-1,3.8-2.5,5.5-4.1.8-.7,1.5-1.6,2.6-1.6h0c-2.4,2.7-5,5.3-8.3,7-1.1.3-2.1.6-3.2,1,1.2.1,2.2,0,3.2-.5.9-.2,1.8-.5,2.7-.7.1,0,.2,0,.3,0,.2,0,.3-.1.5-.2,0,.2,0,.3,0,.5-2.2,1-4.5,1.6-6.8,2,5.1.7,9.7-1,14.2-3,.5,0,1-.1,1.4-.2,0,.4-.1.6-.3.9-1.6.9-3.4,1.6-5.2,2.1-2,.6-3.8,1.5-5.8,2.6,3,.8,6,.8,8.9.5,1.9-.2,3.8-.5,5.7-.7.5,0,1.2,0,1.3.6.1.5-.4.8-.7,1-.5.5-1,.1-1.4-.2-1.1-.9-3-.8-3.8.4-.1.2-.2.5-.5.3-2.2-1.1-4.6-.3-6.9-.7-2.1-.4-4.2-.6-6.5-.8,1.8,1.8,4.1,2.7,6.3,3.7-.1.1-.2.2-.3.3-2.2-1-4.5-1.7-6.4-3.3,0-.2-.2-.4-.5-.4,0,0,0,0,0,.1,0,.3.2.4.4.5.5,1.7,1.8,2.5,3.6,3-.9.7-1.7,0-2.5.3.6,3.2,1.8,6.2,1.5,9.5-1,.2-1-.8-1.5-1.3-.4-.5-.7-1-1-1.5-1.8-3.6-3.5-7.2-5.2-10.9-.4-.8-.7-.6-1.3-.3-4.5,1.8-9.2,2.4-14,2-.5,0-1,0-1.5-.1-.3,0-.6-.1-1.1-.2,5.7-2.5,11.5-4,17.4-5.3-1.7-1.2-3.5-1.9-5-3.1,0,0-.1-.1-.2,0,0,0,0,0,0,0-2.4-1.5-4.8-3.1-7.2-4.6-.2-.1-.5-.2-.8-.2-.3,0-.8.5-.9-.2,0-.6.4-1,.9-1.3.4-.2.7-.6,1.2-.4.2,0,.2.4.1.5-.7.9,0,1.3.6,1.7,2.3,1.4,4.5,3.1,7.2,3.9,0,0,0,0,0,0,0,.3.3.4.6.3h0c0,.4.3.4.6.3h0c0,.5.4.7.9.6h0c0,.2.1.3.3.4,0,.5.5.4.8.5,0,0,.2.2.3.3,0,0,.1,0,.2,0,0,0,0-.1,0-.2,0,0-.2-.2-.3-.3-.1-.7-1.2-1.1-.7-2,.8,1.1,1.6,2.2,2.4,3.3,0,.2.1.5.4.3.2-.1,0-.3,0-.4,0-.9-.2-1.8-.3-2.7,0,0,0,0,0,0,0,0,0-.1-.1-.2-.1-.6-.3-1.2-.4-1.8.6,0,.8.2,1.1.7.7,1.1.7,2.4,1.2,3.7.4-.7.9-1.2.6-1.9.1-1,.1-2.1.5-3.1.2.9,1.2,1.5,1.1,2.6-.2.3-.3.7-.5,1,0,.1,0,.3-.1.4-.1.2-.3.3-.4.5-.2.3-.6.6-.3,1,.2.3.5.1.7-.2.1-.2.2-.4.4-.5,3.1-2.1,4.3-5.2,4.8-8.7.3-2.3.1-4.7.8-7,.4,0,.5.4.8.5,0,.2.1.4.2.6,0,.5,0,1-.1,1.5-1.1,3.3-.9,6.9-2.4,10.2,1.4-.7,2.3-1.8,3.3-2.8.2,0,.4.2.5.3,0,0-.2.2-.3.3,0,.1-.2.2-.3.3M68.4,57.5s0,0,0,0c0,0,0,0,0,0,0,0,0,0,.1,0,0,0,0,0,0,0"/>
        <path class="cls-7" d="M64.8,57.4c.1-.2.3-.3.4-.5.2,0,.2-.2.1-.4.2-.3.3-.7.5-1,.2-.3.4-.6.6-1,2.1-4.1,2.2-8.5,1.8-12.9-.3-3.3-.3-3.3,3-3.8.5.1.8.7,1.4.7-.1.6-.4,1.1-.1,1.7-1.4,0-1.3,1-1.3,1.9-.7,2.3-.5,4.7-.8,7-.4,3.6-1.7,6.6-4.8,8.7-.2.1-.2.3-.4.5-.5-.1-.4-.5-.5-.9"/>
        <path class="cls-6" d="M71.2,37.9c-3.2.5-3.3.5-3,3.8.4,4.5.3,8.8-1.8,12.9-.2.3-.4.7-.6,1,0-1-.9-1.7-1.1-2.6.2-3.4.4-6.7.6-10.5,1.1,3.8.7,7.2.5,10.6,1.2-1.5,1.6-3.3,1.7-5,.2-2.7.3-5.5-.1-8.2-.2-1.7.6-2.7,2.4-2.8.4,0,.9.3,1.1-.3.1.4.5.7.2,1.1"/>
        <path class="cls-8" d="M81.7,58c.2-.3.4-.5.3-.9-.1-.7-.1-1.5-.6-2.1.2,0,.4-.2.5-.3.5.3,1.1.4,1.7.1,1.7-.7,3.4-1.2,5.2-.8.3,0,.8-.1,1.1-.2,0,.7-.7.9-.9,1.5-2.3.7-4.3,2.3-6.7,2.8-.3,0-.5,0-.6-.2"/>
        <path class="cls-6" d="M72.5,40.3c-.3-.6,0-1.2.1-1.7.1-.2.3-.4.4-.6.3,1.1,1.5,1.1,2.2,1.7.6.6,1.3,1.1.6,2.1-.2,0-.5,0-.5-.2-.2-1.1-.8-.8-1.4-.4-.1,0-.3,0-.4,0-.2-.2-.4-.4-.6-.5-.1-.1-.3-.2-.4-.3"/>
        <path class="cls-8" d="M97.1,56.5c-2.4-.8-4.9-.7-7.4-1.1,2.6-.7,5.1-.3,7.4,1.1"/>
        <path class="cls-8" d="M100.6,58.3c-.4,0-.9,0-.9-.6.4,0,.7.2.9.6"/>
        <path class="cls-8" d="M91.5,52.1c0-.4.2-.6.6-.6,0,.4-.2.6-.6.6"/>
        <path class="cls-8" d="M90.3,53.6c0-.4.2-.6.6-.6,0,.4-.2.6-.6.6"/>
        <path class="cls-8" d="M92.1,51.5c0-.3,0-.5.3-.6-.1.2-.2.4-.3.6"/>
        <path class="cls-8" d="M90.9,53c0-.2,0-.5.3-.6,0,.2,0,.5-.3.6"/>
        <path class="cls-8" d="M105.6,63c-.3-.1-.3-.3-.3-.6.2.1.3.3.3.6"/>
        <path class="cls-8" d="M91.2,52.4c0-.1.2-.2.3-.3-.1.1-.2.2-.3.3"/>
        <path class="cls-8" d="M90,53.9c0-.1.2-.2.3-.3-.1.1-.2.2-.3.3"/>
        <path class="cls-8" d="M97.7,56.8c-.1,0-.2-.2-.3-.3.1,0,.2.2.3.3"/>
        <path class="cls-8" d="M99.5,57.7c-.1,0-.2-.2-.3-.3.1,0,.2.2.3.3"/>
        <path class="cls-8" d="M100.9,58.6c-.1,0-.2-.2-.3-.3.1,0,.2.2.3.3"/>
        <path class="cls-8" d="M101.2,58.8c-.1,0-.2-.2-.3-.3.1,0,.2.2.3.3"/>
        <path class="cls-8" d="M105.9,63.3c-.1,0-.2-.2-.3-.3.1,0,.2.2.3.3"/>
        <path class="cls-8" d="M108,65.9c0-.1-.2-.2-.3-.3,0,.1.2.2.3.3"/>
        <path class="cls-6" d="M64.1,56c.3.7-.2,1.2-.6,1.9-.5-1.3-.5-2.6-1.2-3.7-.3-.5-.5-.8-1.1-.7-1.2-3.2-2-6.6-2.9-9.9-.2-.8-.4-1.7-.9-2.4,0,0,.1-.1.2-.2.5.1.8.5,1.5.4,0-.6-.5-1.5.7-1.6.7,0,1.2.4,1.4,1.1.2,1-.5,1.3-1.3,1.4-1.1,0-1.3.5-1,1.6.7,2.9,2.1,5.5,3.1,8.3.3-1.4,0-3.5-.7-4.9-.3-.6-.5-1.2,0-1.7.2-.3.5-.3.8,0,.6.5,1.1,1,.9,1.8-.7,2.9.4,5.7.5,8.5,0,.5.4.3.6.1"/>
        <path class="cls-6" d="M59.3,55c-.5.9.5,1.3.7,2h0c-.4,0-.7,0-.8-.4,0-.3,0-.4-.3-.5h0c-.2-.4-.3-.8-.9-.6h0c0-.5-.2-.6-.6-.3h0c0-.5-.2-.6-.6-.3h0c.4-.7-.3-.9-.6-1.2-2.2-1.4-3-4-5.1-5.4-.3-.2-.2-.5,0-.8.3-.4.6-.7,1.1-.7.5,0,.8.3.8.7,0,3.2,2.7,4.5,4.7,6.3.1,0,.2,0,.4.1v-.4c-.5-1.1-.9-2.2-1.3-3.3-.3-.9-.6-1.9.1-3.2.2,3,1.4,5.4,2.6,7.8"/>
        <path class="cls-6" d="M57.5,41.2c-.8-.3-1.1.9-2,.6,0-.3,0-.6,0-1,0-.7.4-1.3,1-1.4.7,0,.6.7.8,1.2,0,.2.2.3.3.5,0,0-.1.1-.2.2"/>
        <path class="cls-6" d="M48,45.9c-.6,0-1.1-.2-1.2-.9,0-.6.5-.7,1-.6.6.1,1.3.3,1.3.9,0,.5-.6.5-1.1.5"/>
        <path class="cls-6" d="M62,58.3c.2.1.3.3,0,.4-.3.2-.4-.1-.4-.3.1,0,.2,0,.3,0"/>
        <path class="cls-6" d="M61.7,55.3c0,0,0,.1.1.2,0,0,0,0,0,0,0,0,0-.2,0-.3"/>
        <path class="cls-7" d="M55.6,55.8c0,0,.2,0,.2,0,0,0-.1.1-.2.2,0,0,0-.2,0-.2"/>
        <path class="cls-6" d="M72.8,67.1c.1-.1.2-.2.3-.3.4-.4.8-1.2,1.3-.7.5.6,1.2,1.4.7,2.3-.4.7-1.3,1.1-1.9.8-.9-.3-.9-1.3-.5-2.1"/>
        <path class="cls-5" d="M84.3,59.5c.5.3,1.4,0,1.6.8.1.4-.4.6-.7.5-.6-.1-1.3-.2-1.5-.9-.2-.4.2-.4.6-.4"/>
        <path class="cls-8" d="M73.5,41.1c.1,0,.3,0,.4,0,.6-.3,1.2-.7,1.4.4,0,0,.3.1.5.2,0,1.4-.1,2.7.3,4.1.2.8,0,1.6-.5,2.4-1.1,1.2-1.7,2.6-2.7,3.9-1,1-1.9,2.1-3.3,2.8,1.4-3.3,1.3-6.9,2.4-10.2,0,0,.2-.2.3-.3.7-1,1.1-2.1,1.2-3.3"/>
        <path class="cls-6" d="M81.9,54.7c-.2,0-.4.2-.5.3-.6.3-1.2.6-1.8.9-2.1.8-4.2,1.9-6.4,2.4,0-.2,0-.3,0-.5,4.1-1.4,8-3.5,11.9-5.4.5-.2.9-.3.4-1-.5-.8.2-1,.8-1.2.6-.3,1.4-.6,1.9.1.4.6-.2,1.1-.7,1.4-1.8,1-3.6,2-5.4,3"/>
        <path class="cls-6" d="M76.3,43.4c.2-.9.3-1.9,1.5-2.2.7-.1,1.9,1.7,1.8,2.6-.2.9-.7,1.7-1.7,1.7-1.3,0-1.5-1-1.6-2.1"/>
        <path class="cls-5" d="M77.9,51.2c0-.8-.2-1.7,1-1.9.9-.1,1.8,0,2.1,1.1.2.5.2,1-.2,1.4-.4.5-.9.3-1.3,0-.5-.2-1-.6-1.6-.6h0Z"/>
        <path class="cls-3" d="M72.9,52.1c.9-1.3,1.6-2.7,2.7-3.9.1,1.8-1,3-2.1,4.2-.2,0-.4-.2-.5-.3"/>
        <path class="cls-2" d="M69.6,58.7c-1,.5-2.1.6-3.2.5,1.1-.3,2.1-.6,3.2-1,0,.2,0,.3,0,.5"/>
        <path class="cls-3" d="M72.9,53c0-.1.2-.2.3-.3,0,.1-.2.2-.3.3"/>
        <path class="cls-6" d="M72.6,57.9c-.1,0-.2,0-.3,0,.1,0,.2,0,.3,0"/>
        <path class="cls-8" d="M73.2,58.3c2.2-.5,4.3-1.6,6.4-2.4.6.3,1,.7,1,1.4-4.5,2-9.1,3.7-14.2,3,2.3-.5,4.6-1.1,6.8-2"/>
        <path class="cls-4" d="M72.5,40.3c.1.1.3.2.4.3,0,.8.2,1.8-.9,2.1-.3-.2-.4-.5-.8-.5,0-.9,0-1.9,1.3-1.9"/>
        <path class="cls-7" d="M80.6,57.3c0-.7-.4-1.1-1-1.4.6-.3,1.2-.6,1.8-.9.5.6.5,1.3.6,2.1-.5,0-1,.1-1.4.2"/>
        <path class="cls-7" d="M71.9,42.7c1.2-.3.9-1.3.9-2.1.2.2.4.4.6.5-.1,1.2-.5,2.3-1.2,3.3,0-.4.1-.8-.2-1.2,0-.2-.1-.4-.2-.6"/>
        <path class="cls-6" d="M64.8,57.4c0,.3,0,.8.5.9-.2.3-.5.4-.7.2-.3-.4,0-.7.3-1"/>
        <path class="cls-4" d="M72.1,43.3c.3.4.1.8.2,1.2,0,0-.2.2-.3.3,0-.5,0-1,.1-1.5"/>
        <path class="cls-7" d="M57.9,55.6c.6-.2.7.2.9.6-.5,0-.8,0-.9-.6"/>
        <path class="cls-4" d="M66.3,64c-.3,0-.4-.2-.4-.5,0,0,0-.1,0-.1.3,0,.4.2.5.5,0,0,0,.1-.1.2"/>
        <path class="cls-7" d="M56.7,55c.4-.3.6-.2.6.3-.3.1-.5,0-.6-.3"/>
        <path class="cls-7" d="M57.3,55.3c.4-.3.6-.2.6.3-.3.1-.5,0-.6-.3"/>
        <path class="cls-6" d="M65.3,56.5c0,.2,0,.3-.1.4,0-.1,0-.3.1-.4"/>
        <path class="cls-7" d="M69.4,57.2c-.2.2-.5.4-.7,0,0-.2.2-.3.4-.4,0,.1.1.2.2.3"/>
        <path class="cls-7" d="M58.7,56.2c.3,0,.4.2.3.5-.2-.1-.4-.2-.3-.5"/>
        <path class="cls-7" d="M69.2,56.9c0,0,.2-.1.2-.2.1.1.2.2.4.3-.1,0-.2.1-.4.2,0-.1-.1-.2-.2-.3"/>
        <path class="cls-6" d="M60,57.1c0,0,.2.2.3.3h0c0,0-.2-.1-.3-.2,0,0,0,0,0,0"/>
        <path class="cls-6" d="M60.3,57.4c0,0,0,.1,0,.2,0,0-.1,0-.2,0h0"/>
        <path class="cls-7" d="M68.4,57.5s0,0,0,0c0,0,0,0-.1,0,0,0,0,0,0,0,0,0,0,0,0,0"/>
        <path class="cls-7" d="M57.7,53.7c0,.1,0,.2.1.3-.1,0-.2,0-.4-.1,0,0,.2-.2.3-.2"/>
      </g>
    </g>
  </g>
</svg>