<?xml version="1.0" encoding="UTF-8"?>
<svg xmlns="http://www.w3.org/2000/svg" xmlns:xlink="http://www.w3.org/1999/xlink" version="1.1" viewBox="0 0 131.4 116.5">
  <defs>
    <style>
      .cls-1 {
        fill: none;
      }

      .cls-2 {
        fill: #dc6d80;
      }

      .cls-3 {
        fill: #ef9ba6;
      }

      .cls-4 {
        fill: #ba4858;
      }

      .cls-5 {
        fill: #ca5965;
      }

      .cls-6 {
        fill: #ec8f9c;
      }

      .cls-7 {
        clip-path: url(#clippath);
      }
    </style>
    <clipPath id="clippath">
      <rect class="cls-1" y="0" width="131.4" height="116.5"/>
    </clipPath>
  </defs>
  <!-- Generator: Adobe Illustrator 28.7.5, SVG Export Plug-In . SVG Version: 1.2.0 Build 176)  -->
  <g>
    <g id="Layer_1">
      <g class="cls-7">
        <path class="cls-6" d="M54.4,64.2c-3.1.8-6,1.9-9.1,2.6-6.3,1.3-12.6,2.5-19,3-4.1.3-8.1-.6-11.9-2.3-1.1-.5-1.2-1.1-.9-2.2.8-2.7,2.3-4.9,3.8-7.1.3-.5.9-.9.9-1.6-1.6-.4-3-1-4.5-1.6-.8-.3-1.1-.7-.5-1.6,5.7-8.6,13.3-13.8,23.8-14.7,4.2-.3,8.2.5,12.2,1.8.7.2,1.5.4,2.3.6,0,.9.2,1.5,1,2,0,0,.1.1.2.2,0,0-.1-.1-.2-.2-.1-1.4,2.2-1.4,1.4-3.1.9.3,1.3,1,1.8,1.4,2.3,1.9,4.3,4.3,6.8,6,.5.9,2,1,1.8,2.6-1.5-.5-3.1-1.1-4.6-1.6,0-.1-.2-.3-.3,0,0,0,.1.1.2.2,1.2,1.2,2.9,1.5,4.6,2.6-4.6.6-8.6.1-12.3-2.4-.4-.3-.7-.7-1.2-.6-.3,0-.4.3-.3.6.1.6.5,1,1.1,1.1.9,0,1.6.3,2.4.7,2.6,1.4,5.7.9,8.3,2.2,0,0,0,.1.1.2-3.4,1.3-6.8,1.4-10.3.5,3.1,1.8,6.4,1.3,9.6,1.1,0,1-1,1.7-1.2,2.7-2.7,1.4-4.6,3.3-5,6.4-.3.2-.6.3-.9.5M54,44.7s0,0,0-.1c0,0,0,.2,0,.2,0,0,0,0,0-.1M58.7,48h0c0,0,.1.1.1.1h0Z"/>
        <path class="cls-6" d="M85.2,41.5c1.4-1.7,3.4-2.7,5.3-3.6,4.6-2.2,9.5-3.4,14.6-3.6,6.2-.2,11.5,2.1,16.2,5.9,3.6,3,3.6,3,.5,6.3q-3,3.1-.3,6.5c2.6,3.3,2.6,3.4-1,5.7-7.7,4.9-15.9,8.2-25.3,7.6-4.7-.3-9.3-1.1-13.6-3.2-.3-.8-1-1-1.7-1.1.3-1.7-.9-2-2.1-2.5-1.4-.6-2.8-1.3-3.8-2.5,0,0,.1-.1.2-.2.7.2,1.3.4,2,.6.2.6.8.7,1.2,1,1.9.9,4.1,1.2,5.5,3.1.6.8,1.3.5,1.7-.6.4-1.2.1-1.6-1.1-1.8-1.6-.3-3.5,0-4.7-1.5,1.7.5,3.5.6,5.3.2-2.8-.4-5.6-.9-8.7-2.3,3,.1,5.6.9,8.3.4.7-.1,1.7,0,2.4.5.5.3,1,.6,1.7.3.2-.1.3-.3.2-.6-.4-.7-1.1-.7-1.7-.7-.4,0-.7,0-1.1,0-2.8,0-5.5-.5-8.1-1.3,2.2-.4,4.4.1,6.6-.7-3.1-.3-6.2,0-9.2-1,.6-.3,1.3-.3,1.9-.5,2.7-.9,5.3-1.3,8.1-.5.5.2,1.1,0,1.4-.5.2-.5.3-.9-.1-1.3-.5-.5-1.2-.5-1.6,0-1,1.1-2.3.9-3.5.8-1.4,0-2.8-.3-4.8-.5,2.2-.4,3.7-.9,4.9-2.2.2-.2.9-.3.4-.7-1-.8-.1-.7.3-.9,1.6-.7,3.1-1.5,4.4-2.8-5,.5-8.3,4.7-13.3,6.2,2.1-2.2,3.9-4.1,5.7-5.9.5,1.3,1-.4,1.5,0,1.8-.3,3.5-.6,5.2-1.1,1-.3,1.9-.6,2.7.5.3.4.9.7,1.4.3.3-.2.4-.5.3-.8-.2-.6-.8-.7-1.3-.7-.9-.1-1.8.3-2.6-.3"/>
        <path class="cls-3" d="M52.9,38.6c-2-2.6-3-5.7-3.6-8.9-.7-4.1-.6-8.2.1-12.3.4-2.4,1.5-4.4,3.1-6.2,2.3-2.6,4.9-5,7.6-7.2.9-.7,1.5-.8,2.4.1,2.2,2.3,4.2,4.8,7,6.5.9.5,1.4.5,2.2-.2,1.6-1.5,3.3-3,4.2-5.1.6-1.2,1.1-1.1,2-.4,4.7,3.5,6.7,8.1,6.1,13.8-.6,6-2.1,11.8-3.6,17.6-.1.4-.4.7-.6,1.1-.5.1-.9.3-1.4.3-2.2.4-2.5,1-1.2,2.9.3.4.4.7.2,1.1-1.7,2.4-3.2,5.1-6,6.5,0,0,0,0,0,0,.3-2.1,1.8-3.7,2.6-6-1.8,1.2-2.2,2.9-3.2,4.6-.3-2.4.2-4.3.4-6.2,0-1,0-2.2,1.4-2.7.4-.1.3-.8,0-1.1-.3-.4-.8-.9-1.4-.7-.7.2-.9.9-.9,1.6-.3,3.1-.7,6.1-1.6,9.2-1.1-2.5-.8-5.3-2.1-7.7v3.8c-1.6-2-1.8-3.2-.6-4.8.3-.4.4-.7.2-1.2-.1-.3-.4-.4-.7-.4-.5,0-.8.4-.9.8-.1.4-.1.8-.1,1.3,0,2,.7,3.9,1.4,5.7.1.4.7.9,0,1.2-.5.3-.9-.3-1.2-.6-1.3-1.7-3-3.1-3.1-5.5,0-.4-.3-.9-.6-1.3-.3-.4-.7-1-1.3-.5-.5.4-.7,1-.4,1.6.2.4.5.7.7,1,1.9,2.5,3.7,5,5.6,7.5,0,0-.1.1-.2.2-1.3-.1-1.8-1.6-3.1-1.6h0c0,0,0-.2,0-.3-2.6-2.7-5.9-4.5-8.2-7.5-.5-.6-1,0-1.4,0"/>
        <path class="cls-3" d="M79.8,62c.7.2,1.4.4,1.7,1.1-.6.9-.5,2-.3,3,1.5,6.2,1.9,12.5,1.6,18.8-.2,4.7-.6,9.5-2,14-.2.7-.5,1.5-.8,2.2-.9,1.6-1.9,3.1-4,3.2-2,0-3.1-1.4-4-2.9-.4-.7-.8-1.6-1.3-2.6-.4,1.3-.8,2.3-1.1,3.3-.3.9-.7,1.1-1.5.5-2.1-1.5-3.9-3.4-5.4-5.6-6.5-9.5-9.2-20-8.5-31.4,0-.5.1-.9.2-1.4.3-.1.6-.3.9-.5,3.9-1.9,7.7-4.1,11.1-6.8,0,1.7-.7,3.1-1.2,4.6-.2.6-.4,1.2.4,1.3.7.2.9-.5.9-1.1,0-1.8.6-3.4,1.1-5.1.1-.4.6-.9,0-1.2.6-1.1.8-.6.9.3.4,3,.3,6,.3,9,0,.5-.4,1.4.5,1.4.7,0,.6-.9.6-1.5,0-.3,0-.6-.2-.9-1.2-2.4,0-4.8,0-7.2.7.9.6,1.9.9,2.9.4.9.7,1.8,1.1,2.7-.3-2.2-.6-4.3-.6-6.5,2,2.6,4.4,4.6,7,6.4.7.5,1.3.9,1.9,0M62.8,64.9c-.5,0-1,.2-1,.8,0,.6.2,1.1.9,1.1.5,0,.8-.5.9-1,.1-.6-.2-.9-.8-.9"/>
        <path class="cls-4" d="M79.8,62c-.6,1-1.2.6-1.9,0-2.6-1.8-5-3.9-7-6.4,0,2.2.3,4.3.6,6.5-.4-.9-.7-1.8-1.1-2.7-.4-.9-.2-2-.9-2.9,0,2.4-1.2,4.8,0,7.2.1.3.2.6.2.9,0,.6.2,1.5-.6,1.5-.9,0-.5-.9-.5-1.4,0-3,0-6-.3-9,0-.8-.3-1.3-.9-.3-.3.3-.7.7-1,1,0,.1,0,.3,0,.4h0c-3.4,2.7-7.2,4.9-11.1,6.8.4-3.2,2.3-5.1,5-6.4,2.3-.8,4.4-1.8,5.9-3.9-1.6.4-3.3.2-4.7,1.2-3.3.2-6.6.7-9.6-1.1,3.5.9,6.9.8,10.3-.5.3,0,.5-.2.8-.3,0,0-.1-.2-.2-.2-.3,0-.5,0-.7.3-2.6-1.3-5.7-.8-8.3-2.2-.7-.4-1.5-.7-2.4-.7-.6,0-.9-.5-1.1-1.1,0-.3,0-.5.3-.6.6-.1.8.3,1.2.6,3.6,2.5,7.7,2.9,12.3,2.4-1.7-1.1-3.4-1.4-4.6-2.6,0,0,0,0,.1-.1,1.5.5,3,1.1,4.6,1.6.2-1.5-1.4-1.6-1.8-2.6.7-.3.1-.8.1-1.2,1.3,0,1.9,1.5,3.1,1.6,0,0,.2.2.2.2.2-.1,0-.2,0-.3-1.9-2.5-3.7-5-5.6-7.5-.2-.3-.5-.6-.7-1-.3-.6,0-1.2.4-1.6.6-.5,1,.1,1.3.5.3.4.6.8.6,1.3,0,2.4,1.8,3.9,3.1,5.5.3.4.6.9,1.2.6.7-.3,0-.8,0-1.2-.7-1.9-1.4-3.7-1.4-5.7,0-.4,0-.9.1-1.3.1-.4.4-.7.9-.8.3,0,.6.1.7.4.2.4,0,.8-.2,1.2-1.1,1.6-1,2.9.6,4.8v-3.8c1.3,2.4.9,5.2,2.1,7.7.8-3.1,1.2-6.2,1.6-9.2,0-.7.2-1.4.9-1.6.6-.2,1,.2,1.4.7.3.4.4,1,0,1.1-1.4.4-1.3,1.7-1.4,2.6-.1,1.9-.6,3.9-.4,6.2,1-1.7,1.4-3.4,3.2-4.6-.9,2.3-2.3,3.9-2.6,6-.5.2-.7.6-.7,1.1,0,.1-.2.3-.3.4,0,0,0,0,.1,0,0-.2,0-.3.1-.5.7,0,.8-.5.7-1.1,2.8-1.5,4.2-4.1,6-6.5.3-.4.1-.7-.2-1.1-1.4-1.8-1.1-2.5,1.2-2.9.5,0,.9-.2,1.4-.3.6,2.4-1.4,4-1.9,6.1-1.8,1.9-3.5,3.7-5.7,5.9,5-1.6,8.3-5.7,13.3-6.2-1.3,1.3-2.8,2.1-4.4,2.8-.4.2-1.3.2-.3.9.5.4-.2.5-.4.7-1.1,1.3-2.7,1.8-4.9,2.2,2,.2,3.4.4,4.8.5,1.2,0,2.5.3,3.5-.8.4-.4,1.1-.4,1.6,0,.4.4.4.9.1,1.3-.3.6-.9.7-1.4.5-2.8-.8-5.5-.4-8.1.5-.6.2-1.3.3-1.9.5,3,.9,6.1.7,9.2,1-2.1.8-4.4.3-6.6.7,2.6.8,5.3,1.3,8.1,1.3.4,0,.7,0,1.1,0,.7,0,1.3,0,1.7.7.2.3,0,.5-.2.6-.6.4-1.1,0-1.7-.3-.7-.5-1.7-.7-2.4-.5-2.7.5-5.2-.2-8.3-.4,3.1,1.3,5.9,1.8,8.7,2.3-1.8.3-3.5.2-5.3-.2-.8-.6-1.6-1.1-2.6-.2-.7-.2-1.3-.4-2-.6-.1-.1-.2-.3-.4,0,0,0,.1.2.2.2,1,1.2,2.4,1.9,3.8,2.5,1.2.5,2.4.8,2.1,2.5M71.8,50.1c.1,0,.3,0,.2-.2,0,0-.1.2-.2.2,0,0,0,.1-.1.2,0,0,.1-.1.2-.2M74.1,53.5c-.1,0-.2-.1-.3-.1,0,0-.2,0-.3.1,0,0,.2.1.3.1,0,0,.2,0,.3-.1M75.9,53.9c-.1,0-.2-.1-.3-.2-.1,0-.2,0-.3.1.1,0,.2.1.3.2.1,0,.2,0,.3-.1M79.6,47s0-.1,0-.1c0,0-.2,0-.3,0,0,0,0,.1,0,.1,0,0,.2,0,.3,0M66.9,43.8c0,0,0,.1,0,.2,0,.2.1.2.2,0,0,0,0-.1,0-.2,0,0,0,0-.1,0M70.5,54.9h0c0,0,0,0,0,0h-.1Z"/>
        <path class="cls-5" d="M62.5,46.4c0,.4.5.8-.1,1.2-2.5-1.7-4.5-4.1-6.8-6-.5-.4-.9-1.1-1.8-1.4.8,1.7-1.6,1.7-1.4,3.1h0c-.8-.4-1.1-1.1-1-2,.7-.8,1.4-1.6,1.6-2.6.5-.1,1-.7,1.4,0,2.2,3,5.6,4.9,8.2,7.5-.2.1-.3.2,0,.4h0Z"/>
        <path class="cls-5" d="M85.2,41.5c.8.6,1.7.2,2.6.3.5,0,1.1.1,1.3.7.1.3,0,.6-.3.8-.6.4-1.2,0-1.4-.3-.8-1.1-1.8-.8-2.7-.5-1.7.5-3.5.8-5.2,1.1,1.7-1.3,3.9-1.4,5.8-2.2"/>
        <path class="cls-2" d="M61.5,54.6c1.4-1,3.1-.8,4.7-1.2-1.5,2.1-3.6,3.1-5.9,3.9.2-1,1.1-1.6,1.2-2.7"/>
        <path class="cls-5" d="M54,44.7s0,0,0,.1c0,0,0-.2,0-.2,0,0,0,0,0,.1"/>
        <path class="cls-5" d="M52.3,43.2c0,0,.1.1.2.2,0,0-.1,0-.2-.2h0"/>
        <polygon class="cls-4" points="58.7 48 58.7 48.1 58.6 48.1 58.7 48"/>
        <path class="cls-4" d="M59.5,48.7c0,0-.2-.2-.2-.2.1-.2.2,0,.3,0,0,0,0,0-.1.1"/>
        <path class="cls-5" d="M76.1,57.4c.9-1,1.7-.4,2.6.2,1.2,1.6,3.1,1.2,4.7,1.5,1.2.2,1.5.6,1.1,1.8-.3,1.1-1.1,1.3-1.7.6-1.4-1.9-3.6-2.2-5.5-3.1-.5-.2-1-.4-1.2-1"/>
        <path class="cls-4" d="M62.5,46.5c-.3-.1-.2-.3,0-.4,0,.1,0,.2,0,.4"/>
        <path class="cls-5" d="M66.4,56.6c.3-.3.7-.7,1-1,.7.4.2.9,0,1.2-.5,1.7-1.1,3.3-1.1,5.1,0,.6-.1,1.2-.9,1.1-.7-.2-.6-.8-.4-1.3.5-1.5,1.3-3,1.2-4.6h0c.4-.1.3-.2,0-.4"/>
        <path class="cls-4" d="M62.8,64.9c.6,0,1,.3.8.9-.1.5-.4,1-.9,1-.7,0-.9-.6-.9-1.1,0-.6.5-.8,1-.8"/>
        <path class="cls-3" d="M70.7,49.4c0-.5.2-.9.7-1.1,0,0,0,0,0,0,0,.5,0,1-.7,1.1h0Z"/>
        <path class="cls-6" d="M62,52.9c.2-.2.4-.4.7-.3,0,0,.1.1.2.2-.3,0-.5.2-.8.3,0,0,0-.1-.1-.2"/>
        <path class="cls-6" d="M74.1,53.5c-.1,0-.2.1-.3.1,0,0-.2,0-.3-.1,0,0,.2-.1.3-.1,0,0,.2,0,.3.1"/>
        <path class="cls-6" d="M75.9,53.9c-.1,0-.2.1-.3.1-.1,0-.2,0-.3-.2.1,0,.2-.1.3-.1.1,0,.2,0,.3.2"/>
        <path class="cls-3" d="M70.7,49.4c0,.2,0,.3-.1.5,0,0,0,0-.1,0,0-.1.2-.3.3-.4h0Z"/>
        <path class="cls-6" d="M79.6,47c0,0-.2,0-.3,0,0,0,0,0,0-.1,0,0,.2,0,.3,0,0,0,0,0,0,.1"/>
        <path class="cls-3" d="M66.9,43.8s.1,0,.1,0c0,0,0,.1,0,.2,0,.2-.2.2-.2,0,0,0,0-.1,0-.2"/>
        <path class="cls-3" d="M65.8,47.8c.1.1.3.2,0,.3,0,0-.2-.1-.2-.2,0,0,.1-.1.2-.2"/>
        <path class="cls-6" d="M71.8,50.1c0,0,.1-.2.2-.2.2.2,0,.2-.2.2h0Z"/>
        <path class="cls-6" d="M71.8,50.1c0,0-.1.1-.2.2,0,0,0-.1.1-.2h0"/>
        <polygon class="cls-3" points="70.5 54.9 70.6 54.9 70.6 55 70.5 54.9"/>
        <path class="cls-3" d="M66.4,56.6c.2.1.4.3,0,.4,0-.1,0-.3,0-.4"/>
        <path class="cls-6" d="M73.9,57c0,0-.2-.2-.2-.2.1-.2.3,0,.4,0,0,0-.1.1-.2.2"/>
      </g>
    </g>
  </g>
</svg>