<?xml version="1.0" encoding="UTF-8"?>
<svg xmlns="http://www.w3.org/2000/svg" xmlns:xlink="http://www.w3.org/1999/xlink" version="1.1" viewBox="0 0 131.4 116.5">
  <defs>
    <style>
      .cls-1 {
        fill: none;
      }

      .cls-2 {
        fill: #f0a9b1;
      }

      .cls-3 {
        fill: #e7818f;
      }

      .cls-4 {
        clip-path: url(#clippath);
      }
    </style>
    <clipPath id="clippath">
      <rect class="cls-1" y="0" width="131.4" height="116.5"/>
    </clipPath>
  </defs>
  <!-- Generator: Adobe Illustrator 28.7.5, SVG Export Plug-In . SVG Version: 1.2.0 Build 176)  -->
  <g>
    <g id="Layer_1">
      <g class="cls-4">
        <path class="cls-3" d="M89.7,80.7c0,1,.4,1.8.9,2.6.4.7,1.1,1.9.5,2.2-1,.5-1.6,1.9-3.3,1.4-3.6-1-7.3-.8-11-.6-11.3.8-19.9-3.9-26.3-13-9.6-13.4-12.6-28-9-44.1.6-2.6.8-2.6,3-1.3,6.2,3.7,13,6.4,19.5,9.5.9.4,1.8.9,2.7,1.4-.4.9.1,1.6.5,2.4,2.2,4.1,4.4,8.1,6.6,12.2,4.6,8.4,9.2,16.7,13.9,25,.5.8.8,2,2,2.1"/>
        <path class="cls-2" d="M89.7,80.7c-1.2-.1-1.5-1.3-2-2.1-4.7-8.3-9.3-16.7-13.9-25-2.2-4.1-4.4-8.1-6.6-12.2-.4-.8-.9-1.5-.5-2.4,6.6,2.6,11.4,7.2,14.8,13.4,4,7.4,5.7,15.6,7.4,23.7.3,1.5,1,3,.9,4.7"/>
      </g>
    </g>
  </g>
</svg>