<?xml version="1.0" encoding="UTF-8"?>
<svg xmlns="http://www.w3.org/2000/svg" xmlns:xlink="http://www.w3.org/1999/xlink" version="1.1" viewBox="0 0 131.4 116.5">
  <defs>
    <style>
      .cls-1 {
        fill: none;
      }

      .cls-2 {
        fill: #eb8997;
      }

      .cls-3 {
        fill: #ef9ba6;
      }

      .cls-4 {
        fill: #f0a9b1;
      }

      .cls-5 {
        fill: #ba4858;
      }

      .cls-6 {
        fill: #ca5965;
      }

      .cls-7 {
        fill: #ec8f9c;
      }

      .cls-8 {
        clip-path: url(#clippath);
      }
    </style>
    <clipPath id="clippath">
      <rect class="cls-1" y="0" width="131.4" height="116.5"/>
    </clipPath>
  </defs>
  <!-- Generator: Adobe Illustrator 28.7.5, SVG Export Plug-In . SVG Version: 1.2.0 Build 176)  -->
  <g>
    <g id="Layer_1">
      <g class="cls-8">
        <path class="cls-2" d="M73.8,47.7c-.1-1,.5-1.6,1.1-2.2,7.7-6.6,16.5-10.7,26.9-10.4,4.7.1,9.2,1.5,13.4,3.8,1.3.8,1.3,1.4.6,2.5-1.6,2.3-3.5,4.3-5.4,6.4,2,.9,4,1.5,5.7,2.9,3,2.4,3.2,3.4,1.1,6.5-5,7.2-11.2,12.9-20.1,14.9-3.5.8-7.1,1.5-10.7.3.2-.5.4-1.1.5-1.6.1-1,0-1.9-1-2.4-.9-.4-1.9-.5-2.6.3-.7.8-.4,1.8.3,2.6.2.2.2.5.3.8-.2.6,0,1.1.6,1.4,6.4,3,9.2,8.9,11.8,15,1.4,3.4,2.2,7,2.5,10.7,0,1-.1,1.3-1.1,1.2-4.9-.7-10,0-14.7-2.2-1.3-2.2-2.6-4.3-4.3-6.2-3.1-3.4-6.2-6.9-9.1-10.4-3.1-3.7-6.3-7.2-10.5-9.8.4-.8,1-1.6.9-2.5,1.2-.2.4-1.5.9-2,4.5,2.3,9,4,13.8,4.5,1.3.1,2.5.4,3.5,1.4.7.8,1.7.7,2.5,0,.4-.4-.2-1.5,1.1-1.5.4,0-.2-.3-.3-.3-1.4-.5-2.7-1.1-4.2-.7-3.2.9-5.9-.9-9.5-1.6,2.3-.8,3.8.2,5.4,0,.7.5,1.4.4,2.1,0h-2.1c-1.4-1.2-3.3-.6-4.8-1.2,3.3.3,6.4-.9,9.6-1.2-4.5-.4-9.1,1.1-13.5-1,3.4-.7,6.9-1.4,10.5-1.8,2.3-.3,4.7-1.1,6.5,1.3.5.6,1.3.6,1.8-.2.5-.8.6-1.6,0-2.4-.5-.6-1.3-1.1-1.8-.4-.9,1.1-1.9.6-2.9.5-3-.4-6-.7-9.4-1.1,2.1-1.5,3.9-2.8,5.8-4.1.4,0,.7,0,.9-.4,1.6-.2,3.2-.7,4.3-1.7.8-.7,1.4-1.1,2.4-.7.8.3,1.3,0,1.5-.7.2-.8-.3-1.2-.9-1.6-.7-.4-1.1-.2-1.4.4-.6,1.3-1.6,1.5-2.8,1.3-.5,0-1.6,0-1.5.3.4,1.6-1.1,1.8-1.6,2.7-.4,0-.7,0-.9.4-.8-.1-1.5.4-2.2.7-1.3.5-2.3,1.6-3.9,1.5h0c.4-1.1,1.8-1.1,2.2-2.2.4,0,.8-.1,1-.6,0,0-.2-.2-.3-.2-.5,0-.7.3-.8.8-.8,0-1.9,0-.8-1.2.6-.7,1.4-1.2,2.1-1.9.8,0,1.6,0,2.5-.1-.8-.1-1.7-.6-2.4.1-1.8-.3-3,1.2-4.8,1.8.6-1.9,2.1-2.6,3.1-3.8.3-.4,1.1-.8.5-1.4-.4-.5-1-.5-1.6-.3-1.3.5-2.1,1.4-2.7,2.7-1.1,2.5-2.6,4.8-4.5,7.5.1-2.8,1-4.7,1.4-6.8.2-.9.9-2-.4-2.3-1.3-.3-1.2.9-1.4,1.9-.3,1.3-.2,2.8-1.1,4.1-.5-1.9,0-3.5.3-5.1,0-.5.3-1.3-.5-1.4-.8,0-.7.7-.7,1.3,0,1.6,0,3.1,0,4.7-.8-1.3-1.3-2.6-1.9-3.9-.4-.8-.7-2.2-1.7-1.8-1,.4-.2,1.7.2,2.5,1.3,2.6,2.3,5.3,2.4,8.4-2.1-1.3-3.2-3.5-5.1-4.8-.3-.2-.5-.4-.8-.5-1.3-2.2-3.2-3.5-5.7-3.7-3.3-.3-6.8.6-9.9-1.3-.5-2.5-2.1-4.4-3.3-6.5-2.9-5.2-5.6-10.3-5.1-16.5.2-2.8.8-5.6,1.9-8.2.6-1.6,1.3-1.9,2.8-1,2.3,1.4,2.4,1.3,2.7-1.3.2-1.8.6-3.6.6-5.4,0-1.6.8-1.8,2.1-1.5,12,2.8,22.6,7.6,29,19,3.1,5.5,4.6,11.2,4.4,17.4-1,.2-1.7.9-1.6,1.9,0,.6.9.9,1.5.8,1.2-.2,1.3-1.1,1.2-2.1,0-.1,0-.3,0-.4M64.1,43.8c-1,.6-2.4,1.1-2.3,2.5,0,1.2.9,2.3,2.4,2.3,1.5,0,2.1-1,2.1-2.2,0-1.3-1-2-2.2-2.6M53.4,49c-.1-1.3-1-2-2.1-2.1-1,0-2.2.4-2.1,1.7,0,1.1.8,2,2.1,2.1,1.1,0,1.9-.5,2.1-1.7M72.7,60.9c.6.3.9.2,1.2-.4-.6-.4-.9,0-1.2.4"/>
        <path class="cls-4" d="M50.1,78.5c-3.6,2.3-7.7,2.8-11.7,3.5-5.1.9-10.2.7-15.2-.8-2.6-.8-5.2-.6-7.7.1-3.2.9-6.1,0-9-1.4-1.1-.6-1.6-1.4-1.3-2.6.5-.3.4-.8.4-1.3h0c.8-.3,1.4-.7,2-1.3,4.4-3.9,9.4-6.9,14.6-9.5,5.7-2.9,12.1-2.5,18.3-3.1-.6,1.7.4,2.6,1.6,3.4,2.9,1.8,6,2.5,9.3,2.3,1.3,0,3.1-.5,3.7.9.5,1.2-.9,2.2-1.5,3.4-1.1,2.2-3.6,3.7-3.5,6.5"/>
        <path class="cls-3" d="M59,71.6c4.1,2.6,7.4,6.1,10.5,9.8,2.9,3.5,6,7,9.1,10.4,1.7,1.9,3,4.1,4.3,6.2-.9,1.8-1.7,3.5-1,5.6.3.9-.3,1.4-1.2,1.4-9.9.8-22.4-2.1-27.7-13.5-1.5-3.2-2.4-6.5-2.2-10,.4-.7.3-1.5.3-2.3,0-1,.5-1.7,1.5-1.8,3.5-.4,5.2-2.7,6.4-5.7"/>
        <path class="cls-7" d="M40.4,62c-6.2.7-12.6.3-18.3,3.1-5.2,2.6-10.3,5.5-14.6,9.5-.6.5-1.2,1-2,1.3,0-6.1,3-10.5,7.4-14.3,6-5.2,13.2-7.6,20.9-8.7,1-.1,2-.3,3-.5.5,1.8,1.4,3.2,3.7,2.6.8-.2,1.6.2,2.3.6,1.7,1,3.5,1.8,5.3,2.4,3.7,1.3,7.2,3.1,9.6,6.3.2.3,1.5.8,0,1.3-1.6-1.2-3.5-1.6-5.8-2.5.9,1.3,1.9,1.5,2.7,1.9.5.2,1.3.2,1.1,1-.1.6-.9.8-1.4.8-2.3,0-4.6.2-6.9-.2-2.6-.4-4.9-1.2-6-3.9-.2-.4-.6-.6-1.1-.6M47,61.2c-.8-1.2-3.1-.7-2.7-3,0,0-.4-.2-.6-.1-.8.4-1.5.7-2.2,1.3-.5.4-.5,1-.3,1.6.1.4.6.6.9.3,1.6-1.7,3.2-.5,4.9-.2M51.3,63c0,0-.1,0-.2,0-.2,0-.2.2,0,.2,0,0,.1,0,.2,0,0,0,0,0,0-.1"/>
        <path class="cls-5" d="M57.7,65.6c1.5-.5.2-1,0-1.3-2.5-3.2-5.9-5-9.6-6.3-1.8-.7-3.6-1.4-5.3-2.4-.7-.4-1.5-.8-2.3-.6-2.3.6-3.1-.8-3.7-2.6.2-.2.4-.5.6-.7,3.1,1.9,6.6,1,9.9,1.3,2.5.2,4.4,1.6,5.7,3.7,0,0-.1.2-.2.2-.8-.5-1.5-1-2.3-1.5-2.7-1.9-4.7-2-7.9-.6,4,1.8,7.9,3.2,12,4.3.1.1.3.3.4.4,0,0,.1.1.2.2,0,0,0-.1,0-.1,0,0-.1,0-.2,0-.1-.1-.3-.3-.4-.4-.3-.5-.7-1.1-1-1.6,0,0,.1-.1.2-.2,1.9,1.3,3,3.5,5.1,4.8-.2-3.1-1.1-5.8-2.4-8.4-.4-.8-1.2-2-.2-2.5,1-.4,1.3,1,1.7,1.8.6,1.3,1,2.6,1.9,3.9,0-1.6,0-3.1,0-4.7,0-.5-.1-1.4.7-1.3.8,0,.6.9.5,1.4-.2,1.6-.7,3.3-.3,5.1.9-1.3.8-2.8,1.1-4.1.2-1,.2-2.2,1.4-1.9,1.4.3.6,1.5.4,2.4-.4,2.1-1.3,4.1-1.4,6.8,1.9-2.7,3.4-5,4.5-7.5.6-1.2,1.4-2.2,2.7-2.7.6-.2,1.2-.2,1.6.3.6.7-.2,1-.5,1.4-.9,1.2-2.4,1.9-3.1,3.8,1.8-.6,3-2,4.8-1.8h0c-.7.6-1.4,1.2-2.1,1.8-1.2,1.3,0,1.1.8,1.2h0c-.4,1.1-1.8,1.1-2.2,2.2-.3,0-.4.2-.4.4-.2,0-.4,0-.6.1,0,0,.1.2.2.3.2-.1.3-.2.5-.3.3,0,.4-.2.4-.4,1.5.1,2.6-1,3.9-1.5.7-.3,1.3-.8,2.2-.7h0c-1.9,1.3-3.7,2.6-5.8,4.1,3.3.4,6.4.7,9.4,1.1,1,.1,2,.6,2.9-.5.6-.7,1.3-.3,1.8.4.6.8.5,1.6,0,2.4-.5.8-1.4.9-1.8.2-1.8-2.4-4.2-1.6-6.5-1.3-3.5.4-7,1.1-10.5,1.8,4.4,2.1,9,.5,13.5,1-3.2.3-6.3,1.5-9.6,1.2,1.6.7,3.4,0,4.8,1.2h0c-1.6,0-3.2-.9-5.4,0,3.5.7,6.2,2.5,9.5,1.6,1.5-.4,2.8.2,4.2.7.1,0,.7.3.3.3-1.2,0-.6,1.1-1.1,1.5-.8.8-1.8.9-2.5,0-1-1-2.2-1.3-3.5-1.4-4.9-.5-9.4-2.2-13.8-4.5-.5.5.3,1.8-.9,2-1.6-.1-1.1-2.9-3.3-2.3.3-.6,1-.6,1-1.2M67.2,62.4c-.3,0-.6.2-1,.2,0,0,0,.1.1.2.4.1.7,0,.9-.3.2,0,.4-.1.6-.2,0,0-.2-.2-.2-.2-.2,0-.3.2-.5.3M67.4,67.5c-.1,0-.3-.2-.4-.2-.1,0-.2,0-.4.2.1,0,.2.2.4.2.1,0,.2,0,.4-.2M66.9,60.3c-.1,0-.2.1-.4.2,0,0,.1.2.1.1.1,0,.2-.1.4-.2,0,0,0-.1-.1-.2M69.3,57.5h-.1c0,0,0,0,0,0h.1ZM68.8,61.9h0c0-.1-.2-.1-.2-.1h0Z"/>
        <path class="cls-6" d="M57.7,65.6c0,.6-.7.6-1,1.2,2.2-.7,1.7,2.1,3.2,2.3,0,1-.5,1.7-.9,2.5-1.2,3-2.9,5.3-6.4,5.7-1,.1-1.5.8-1.5,1.8,0,.8.1,1.6-.3,2.3-.1-1-.2-2.1-.8-3,0-2.8,2.4-4.3,3.5-6.5.6-1.1,2.1-2.1,1.5-3.4-.6-1.4-2.4-1-3.7-.9-3.4.2-6.5-.6-9.3-2.3-1.2-.8-2.2-1.7-1.6-3.4.5,0,.9.2,1.1.6,1.1,2.7,3.4,3.4,6,3.9,2.3.4,4.6.3,6.9.2.6,0,1.3-.2,1.4-.8.2-.8-.6-.8-1.1-1-.8-.4-1.8-.6-2.7-1.9,2.3.9,4.2,1.3,5.8,2.5"/>
        <path class="cls-5" d="M83.8,72c0-.3-.1-.6-.3-.8-.7-.8-1-1.7-.3-2.6.7-.8,1.7-.7,2.6-.3,1,.4,1.2,1.4,1,2.4,0,.6-.3,1.1-.5,1.6-.9-.1-1.7-.2-2.6-.3"/>
        <path class="cls-5" d="M73.8,47.7c0,.1,0,.3,0,.4,0,1,0,1.9-1.2,2.1-.7,0-1.5-.2-1.5-.8,0-1,.5-1.7,1.6-1.9.4,0,.8.2,1.2.2"/>
        <path class="cls-7" d="M5.4,75.9c0,.5.1,1-.4,1.3,0-.5-.2-1,.4-1.3"/>
        <path class="cls-5" d="M64.1,43.8c1.2.6,2.2,1.3,2.2,2.6,0,1.3-.6,2.2-2.1,2.2-1.5,0-2.4-1-2.4-2.3,0-1.4,1.3-1.9,2.3-2.5"/>
        <path class="cls-5" d="M75.9,56.8c.5-.9,2-1.1,1.6-2.7-.1-.4,1-.4,1.5-.3,1.2.1,2.3,0,2.8-1.3.3-.6.7-.8,1.4-.4.6.4,1.1.8.9,1.6-.2.8-.7,1-1.5.7-1-.4-1.6,0-2.4.7-1.2,1.1-2.7,1.6-4.3,1.7h0"/>
        <path class="cls-5" d="M53.4,49c-.2,1.2-1,1.7-2.1,1.7-1.3,0-2-1-2.1-2.1-.1-1.2,1.1-1.7,2.1-1.7,1.1,0,2,.7,2.1,2.1"/>
        <path class="cls-5" d="M72.5,54.2c.7-.7,1.6-.3,2.4-.1-.8,0-1.6,0-2.5.1h0"/>
        <path class="cls-5" d="M73.3,69h2.1c-.7.4-1.4.5-2.1,0h0"/>
        <path class="cls-5" d="M72.7,60.9c.3-.5.7-.7,1.2-.4-.3.5-.7.7-1.2.4"/>
        <path class="cls-5" d="M71.2,57.2c0-.5.2-.8.8-.8,0,0,.3.2.3.2-.2.5-.6.5-1,.6h0"/>
        <path class="cls-5" d="M53,56.6c.3.2.5.4.8.5,0,0-.1.1-.2.2-.3-.2-.6-.3-.8-.5,0,0,.1-.2.2-.2"/>
        <path class="cls-5" d="M75.1,57.2c.2-.4.5-.4.9-.4,0,0,0,0,0,0-.2.4-.5.4-.9.4h0"/>
        <path class="cls-5" d="M47,61.2c-1.7-.3-3.3-1.6-4.9.2-.2.3-.7,0-.9-.3-.2-.6-.2-1.2.3-1.6.7-.5,1.4-.9,2.2-1.3.1,0,.6.1.6.1-.4,2.2,1.9,1.8,2.7,3"/>
        <path class="cls-6" d="M51.3,63c0,0,0,.1,0,.1,0,0-.1,0-.2,0-.2,0-.2-.2,0-.2,0,0,.1,0,.2,0"/>
        <path class="cls-2" d="M52.8,56.9c.3.2.6.3.8.5.3.5.7,1.1,1,1.6h0c-4.1-1.1-8-2.5-12-4.3,3.2-1.4,5.2-1.2,7.9.6.8.5,1.5,1,2.3,1.5"/>
        <path class="cls-2" d="M67.3,62.5c-.2.3-.5.4-.9.3,0,0,0-.1-.1-.2.3,0,.6-.2,1-.2h0Z"/>
        <path class="cls-2" d="M67.4,67.5c-.1,0-.3.2-.4.2s-.2-.1-.4-.2c.1,0,.3-.2.4-.2.1,0,.2.1.4.2"/>
        <path class="cls-2" d="M68.6,59.8c-.2.1-.3.2-.5.3,0,0-.1-.2-.2-.3.2,0,.4,0,.6-.1,0,0,0,0,0,0"/>
        <path class="cls-2" d="M66.9,60.3c0,0,0,.1.1.2-.1,0-.2.1-.4.2,0,0,0,0-.1-.1.1,0,.2-.1.4-.2"/>
        <path class="cls-2" d="M67.2,62.4c.2-.1.3-.2.5-.3,0,0,.1.1.2.2-.2,0-.4.1-.6.2h0"/>
        <polygon class="cls-2" points="69.3 57.5 69.2 57.5 69.2 57.4 69.3 57.5"/>
        <path class="cls-2" d="M54.6,58.9c.1.1.3.3.4.4h0c-.1-.2-.3-.3-.4-.4h0"/>
        <path class="cls-2" d="M55.1,59.4c0,0,.1,0,.2,0,0,0,0,0,0,.1,0,0-.1-.1-.2-.2h0"/>
        <path class="cls-2" d="M69,59.4c0,.3-.2.4-.4.4,0,0,0,0,0,0,0-.3.2-.4.4-.4,0,0,0,0,0,0"/>
        <polygon class="cls-2" points="68.8 61.9 68.7 61.7 68.9 61.8 68.8 61.9"/>
      </g>
    </g>
  </g>
</svg>