<?xml version="1.0" encoding="UTF-8"?>
<svg xmlns="http://www.w3.org/2000/svg" xmlns:xlink="http://www.w3.org/1999/xlink" version="1.1" viewBox="0 0 131.4 116.5">
  <defs>
    <style>
      .cls-1 {
        fill: none;
      }

      .cls-2 {
        fill: #f6bec6;
      }

      .cls-3 {
        fill: #f6d2d2;
      }

      .cls-4 {
        clip-path: url(#clippath);
      }
    </style>
    <clipPath id="clippath">
      <rect class="cls-1" y="0" width="131.4" height="116.5"/>
    </clipPath>
  </defs>
  <!-- Generator: Adobe Illustrator 28.7.5, SVG Export Plug-In . SVG Version: 1.2.0 Build 176)  -->
  <g>
    <g id="Layer_1">
      <g class="cls-4">
        <path class="cls-2" d="M83.7,35.1c4,.1,7.9-.5,11.9.8,3.7,1.1,6.6,3.2,9.1,6,.8.9.8,1.9.7,3.1-.4,3.7-1.4,7.4.6,11,1,1.7-.3,3.1-1.4,4.2-3.8,3.8-8.3,6.7-13,9.3-8.4,4.7-17.5,7.8-27.1,8.7-11.7,1.1-22.5-1.1-31.9-8.9-5.1-4.3-10.6-8-16.9-10.5-.3-.1-.6-.4-1.1-.6.9-1,2-1.2,3-1.6,7.5-3.4,14.9-7.1,22.7-9.8.8-.3,1.7-.4,2.5-.7,0,.2,0,.3,0,.5h-.2c0,0,0,.2,0,.2v-.2c2.4-.2,4.6,0,6.9.3,5.4.7,10.7,1.9,16.3.8,3.2-.6,6.6-.7,9.6-2,3.7-1.6,7.3-3.4,10-6.5.5-.5.9-1.1,1.3-1.7.3-.4.8-.7.6-1.3-.2-.6-.8-.4-1.3-.5-.8-.1-1.7.3-2.5-.4"/>
        <path class="cls-3" d="M42.8,46.4c0-.2,0-.3,0-.5,2.4-1.5,5.1-1.9,7.7-2.7,9.1-2.6,18.2-5.3,27.5-7.4,1.9-.4,3.8-.9,5.8-.7.7.7,1.6.3,2.5.4.5,0,1.1-.1,1.3.5.2.6-.3.9-.6,1.3-.5.6-.8,1.2-1.3,1.7-2.8,3-6.4,4.9-10,6.5-3,1.3-6.4,1.3-9.6,2-5.6,1.1-10.9,0-16.3-.8-2.3-.3-4.5-.4-6.8-.3"/>
        <polygon class="cls-3" points="42.8 46.4 42.7 46.6 42.6 46.5 42.8 46.4"/>
      </g>
    </g>
  </g>
</svg>