<?xml version="1.0" encoding="UTF-8"?>
<svg xmlns="http://www.w3.org/2000/svg" xmlns:xlink="http://www.w3.org/1999/xlink" version="1.1" viewBox="0 0 131.4 116.5">
  <defs>
    <style>
      .cls-1 {
        fill: none;
      }

      .cls-2 {
        fill: #f4c7c7;
      }

      .cls-3 {
        fill: #f0b4b8;
      }

      .cls-4 {
        fill: #fae0df;
      }

      .cls-5 {
        clip-path: url(#clippath);
      }
    </style>
    <clipPath id="clippath">
      <rect class="cls-1" y="0" width="131.4" height="116.5"/>
    </clipPath>
  </defs>
  <!-- Generator: Adobe Illustrator 28.7.5, SVG Export Plug-In . SVG Version: 1.2.0 Build 176)  -->
  <g>
    <g id="Layer_1">
      <g class="cls-5">
        <path class="cls-3" d="M70,88c-1.4,2.1-1.7,4.6-2.6,6.8-1,2.6-1.1,2.7-3.2.7-8.4-7.8-13.9-17.3-16.5-28.5-1.9-8.1,0-15.8,3-23.3,1.8-4.5,4.4-8.7,6.7-12.9,1.9-3.4,3.8-6.8,5-10.6.4-1.2.8-1.6,1.9-.7,1.5,1.1,3.2,2,4.3,3.6,0,.7.3,1.3.8,1.8,2.8,7.4,1.7,14.8.2,22.3,1.1-.8,1.3-2,1.6-3.2.3.2.5.6.4,1-1.3,4.5-1.7,9.1-2.4,13.7-.6,4.4-1.2,8.9-.5,13.3.8,5.3,1.3,10.5,1.2,15.9"/>
        <path class="cls-2" d="M69.5,25c-.5-.5-.8-1.1-.8-1.8,5.7,4.5,9.2,10.6,11.7,17.3,3.4,9.2,4.4,18.8,3.8,28.5-.5,7.9-2.2,15.5-6,22.6-.7,1.4-1.2,1.9-2.7.8-2-1.3-3.8-2.9-5.6-4.4.2-5.3-.3-10.6-1.2-15.9-.7-4.4-.1-8.9.5-13.3.6-4.6,1.1-9.2,2.4-13.7.1-.4,0-.7-.4-1,1-3.8,1.1-7.6.7-11.4-.3-2.7-.3-5.7-2.6-7.8"/>
        <path class="cls-4" d="M69.5,25c2.3,2.1,2.3,5.1,2.6,7.8.4,3.8.2,7.6-.7,11.4-.4,1.1-.5,2.3-1.6,3.2,1.5-7.5,2.6-14.9-.2-22.3"/>
      </g>
    </g>
  </g>
</svg>