<?xml version="1.0" encoding="UTF-8"?>
<svg xmlns="http://www.w3.org/2000/svg" xmlns:xlink="http://www.w3.org/1999/xlink" version="1.1" viewBox="0 0 131.4 116.5">
  <defs>
    <style>
      .cls-1 {
        fill: none;
      }

      .cls-2 {
        fill: #f0a9b1;
      }

      .cls-3 {
        fill: #f4c7c7;
      }

      .cls-4 {
        clip-path: url(#clippath);
      }
    </style>
    <clipPath id="clippath">
      <rect class="cls-1" y="0" width="131.4" height="116.5"/>
    </clipPath>
  </defs>
  <!-- Generator: Adobe Illustrator 28.7.5, SVG Export Plug-In . SVG Version: 1.2.0 Build 176)  -->
  <g>
    <g id="Layer_1">
      <g class="cls-4">
        <path class="cls-2" d="M53.6,70.2c-3.3-2.9-5.5-6.7-7.7-10.4-4.2-7.5-7.4-15.4-9.3-23.8-.3-1.5-1-3.2.1-4.3,1.3-1.3,3.2-.5,4.7,0,2.7,1,5,2.6,7,4.6.7-.9,0-1.2-.4-1.6-1.5-1.6-2.8-3.3-3.8-5.2-1-2-.7-2.5,1.5-2.8,5.5-.9,10.5.8,15.1,3.5,13.8,8.2,23,20.2,29,34.9,2.1,5.2,3.8,10.6,5.3,16,.7,2.5.1,3.2-2.4,2.8-5.6-.8-11.3-1.7-16.7-3.4.1-1.7-1.5-2-2.3-2.9-5.4-5.8-12.5-7.1-20-7.5M51,37.9c0,0,.1.2.2.2,0,0,0-.1,0-.1,0,0-.1,0-.2,0-.1-.1-.3-.2-.4-.4,0,0,0,.2-.1.2.2,0,.4,0,.6.1"/>
        <path class="cls-3" d="M53.6,70.2c7.5.3,14.6,1.6,20,7.5.8.9,2.4,1.2,2.3,2.9-7.2-1.4-14.2-3.4-20.2-7.9-.9-.6-1.8-1.3-2-2.4"/>
      </g>
    </g>
  </g>
</svg>