<?xml version="1.0" encoding="UTF-8"?>
<svg xmlns="http://www.w3.org/2000/svg" xmlns:xlink="http://www.w3.org/1999/xlink" version="1.1" viewBox="0 0 131.4 116.5">
  <defs>
    <style>
      .cls-1 {
        fill: none;
      }

      .cls-2 {
        fill: #dc6d80;
      }

      .cls-3 {
        fill: #ba4858;
      }

      .cls-4 {
        fill: #f0b4b8;
      }

      .cls-5 {
        fill: #ca5965;
      }

      .cls-6 {
        fill: #fae0df;
      }

      .cls-7 {
        fill: #f6bec6;
      }

      .cls-8 {
        fill: #f6d2d2;
      }

      .cls-9 {
        clip-path: url(#clippath);
      }

      .cls-10 {
        fill: #f8d7d6;
      }
    </style>
    <clipPath id="clippath">
      <rect class="cls-1" y="0" width="131.4" height="116.5"/>
    </clipPath>
  </defs>
  <!-- Generator: Adobe Illustrator 28.7.5, SVG Export Plug-In . SVG Version: 1.2.0 Build 176)  -->
  <g>
    <g id="Layer_1">
      <g class="cls-9">
        <path class="cls-6" d="M93.3,48.3c9.9-.6,18.5,2.6,25.5,9.7,1.9,1.9,2.4,5.8,1,8.1-1.1,1.9-3.1,1.7-4.9,2-1.2.2-2.4,0-3.6,0-.5,0-1,0-1.2.4-.3.6.4.7.7,1,1.7,1.7,3.5,3.3,4.5,5.6,1.1,2.5.5,5.6-1.6,7.3-3,2.3-6.4,2.9-10,2.5-9.2-1.1-17.8-4.3-26.5-7-.9-.3-1.8-.2-2.6-.8-1-2.8-1.4-5.8-2.7-8.6,1.2,0,2.4,0,3.6.3.6,0,1.1.2,1.5-.5.3-.6,0-1.1-.5-1.5-.9-.7-1.8-1.3-2.8-2-.1-.1-.2-.2-.3-.3-.3-.6-.7-1.1,0-1.3-2.9-.5-6-1.1-9.5-1.7,1.5-.8,2.7-.7,3.9-.8,3.8-.2,7.7-.7,11.4,1,.7.3,1.5.5,2.2-.2.2-.2.4-.5.3-.7-.4-.8-1.1-.9-1.9-.9-1.1,0-2.2-.2-3.3-.2-2.1,0-4.2-.2-6.3-.7,1.1-.4,1.7-1.2,1.5-2.4,2.6-.2,5,.5,7.4,1.1,3.1.7,6.4.6,9,2.9.3.2.7.3,1.1.3.8,0,1.6-.2,1.6-1.2,0-1-.7-1.3-1.5-1.1-1,.1-1.9.2-2.9-.1-1.8-.5-3.5-.9-5.3-1.3-2.2-.4-4.4-.7-6.5-1.1,0-.2,0-.4,0-.6,3.3.3,6.2-1.9,9.6-.7.4.1.8.2,1.2.1,1-.3,1.5-.9,1.4-2-.1-1.2-1-.8-1.7-.8-.7,0-1.4.4-2.1.7-1.7.7-3.4,1.2-5.6.8,1.9-.8,3.5-1.5,5.1-2.2,2.9-1.3,5.8-2.6,9.2-1.5,1.3.4,2-.5,1.5-1.7"/>
        <path class="cls-6" d="M41.1,44.4c-1.2,0-2-.7-2.6-1.5-3.2-4.2-6.7-8.3-8.4-13.4-2.2-6.4-1.9-12.7,1.3-18.7.8-1.5,2-1.7,3.5-1.3,1.9.5,3.3,1.9,5.4,2.7-.5-1.4-1-2.6-1.3-3.8-.6-1.9.1-2.8,2.1-2.8,3.4,0,6.1,1.7,8.8,3.4,6.7,4.4,12,10.1,15.9,17.1.8,1.4,1.2,3.1,1.8,4.6-.8.2-.9-.4-1.3-.9-.2-.3-.9-.4-1.4-.6-.3,0-.4.2-.3.4,0,.5.5.8.9,1,1.4.5.7,1.1.2,1.7-.4.2-.4.6-.3,1,0,0,.2,0,.2,0,0-.1,0-.3.1-.4.2-.1.4-.4.5-.4.4.2.3.7.3,1-2.5.7-2.8,2.6-2.6,4.8.1,1.6,0,3.2-.7,4.6-.4-1.7-.7-3.4-1.1-5.2,0-.8.2-1.5.6-2.2.3-.7,0-1.2-.5-1.6-.4-.3-.7-.3-1.1,0-.6.5-.3,1,0,1.5.3.8.6,1.6.8,2.4,0,.5,0,1,0,1.5.7,3.1.7,6.3.5,9.4-.1,1.4-.1,2.9-1.2,4.5-.6-5.4-.5-10.5-3.1-15.1,1.6,5.1,1.9,10.3,1.9,15.9-.3-.4-.5-.5-.5-.7-.4-4.8-2.5-9-4.4-13.3-.2-.5-.3-1.1-.9-1.1-.4,0-.7.3-.9.7-.3.6.2.9.5,1.3,2.7,3.5,3.5,7.7,4.1,11.9-1.8-3.7-3.4-7.6-5.8-10.9,2.2,4.8,4.4,9.6,5.8,14.7-.6-.4-1.1-.9-1.5-1.4-3.1-3.3-5.5-7.1-8-10.9,0,0-.3-.3-.3-.3-.2.2-.1.3,0,.5.9,2.3,2.4,4.3,3.5,6.6-.7-.4-1.2-.9-1.9-1.2-1.1-.6-1.7-1.9-3.1-2h0c.2-.7,0-.8-.7-.7h0c.1-.4,0-.5-.3-.3h0c.1-.4,0-.5-.4-.3h0c.2-1-.7-1.4-1.1-2.1-1.2-1.9-1.8-1.9-3,0M47.7,43.1c0-.1,0-.3-.1-.4,0,0-.1.1-.1.2,0,.2,0,.3.3.2,0,.2,0,.4,0,.6,0,0,.2,0,.2,0-.1-.2-.2-.3-.3-.5M56.6,35.9c1.3.4,1.2-.6,1.3-1.1.1-1-.4-1.7-1.4-1.8-.9,0-2.1.2-2,1.3,0,1.2,1.1,1.8,2.2,1.6M48.3,40.2c-.4-1.1-1.3-1.4-2.1-1.4-.9,0-1.3.8-1.3,1.7,0,1.2,1.5.6,1.9,1.3.5-.5,1-1.1,1.5-1.6"/>
        <path class="cls-6" d="M67.9,35.2c.1-2.4,1.3-4.3,2.4-6.3.6-1.1.7-2.5.6-3.8-.2-7.5,4.1-12.2,10.1-15.6,3.6-2,7.5-2.8,11.7-2.1,2.1.4,2.6.9,2.6,3,0,2.7.2,5.5-.3,8.5,1.6-1.1,2.2-2.6,3.3-3.7.5-.5.8-1.2,1.3-1.8.5-.6.9-1.3,1.8-1.1.9.2,1.2,1,1.5,1.7.6,2.1.6,4.3.3,6.5-.8,7.4-3.2,14.4-6.4,21.2-.9,1.8-2,3.5-3.3,5-.4.5-.8,1-.8,1.7-1.3-.7-2.2.6-3.3.7-3.1.2-5.9,1.4-8.6,2.7-.6.3-1.2.7-2.3.3,2.4-1.4,4.5-2.6,6.6-3.8.6-.3,1.5-.7.9-1.5-.4-.7-1.1,0-1.6.2-3.1,1.7-5.9,3.9-9.2,5.3-.8,0-1.8.1-2.3-.9,2.8-2.5,5.4-5.1,6.8-8.7.3-.7.7-.6,1.3-.4,1,.3,1.3-.5,1.5-1.2.2-.8-.4-1.3-1.1-1.5-.7-.2-1.7.1-1.7.7,0,2.1-1.8,2.8-3,3.9-2.6,2.4-5.1,4.9-8.2,6.7-.1-.2-.3-.3-.4-.5.6-.7,1.2-1.3,1.7-2,3.2-4.3,6.1-8.8,6.6-14.4.7,0,1.4,0,1.6-.8.2-.7-.5-1-.9-1.4-.5-.4-1-.7-1.7-.2-.8.6-1.1,1.2,0,1.8.3.2.7.4,1,.7-.2.2-.4.4-.5.7-.9,4.2-3.1,7.8-5.5,11.3-1.2,1.7-2.6,3.2-3.9,4.8l-.4-.3c.3-1.7,1-3.2,1.9-4.7,1.8-2.9,2.9-6.2,4.2-9.4.2-.4.2-.9.3-1.3,0-.3,0-.6-.4-.7-.4-.1-.7.1-.8.5-.2.8-.4,1.7-.6,2.5-.5,2.5-1.8,4.6-3.2,6.7.2-3,.3-5.9.3-8.8"/>
        <path class="cls-10" d="M71.7,75c-1.2,5.6-.4,11.5-2.4,17-2.6,7.2-6.6,13-14.3,15.4-2.7.9-5.4.9-7.9-.5-1.2-.7-2.6-1.5-2.5-3,0-1.4,1.5-1.9,2.7-2.4.8-.3,1.6-.6,2.3-1.3-5.4,1-6.8-1.2-8.1-3.5-.9-1.5-1.1-3.3-1.4-5.1-.4-2.7-.3-5.3-.3-8,0-.1,0-.2,0-.4,2.3-.2,3.4-1.8,4.5-3.5,3-4.7,6.1-9.3,9.9-13.5,1.2-1.3,2.7-2.4,3.5-4.2,1.4-.3,2.4.6,3.4,1.3,4.5,3,7.4,7.5,10.7,11.7"/>
        <path class="cls-6" d="M39.8,83.2c0,.1,0,.2,0,.4-2.8.5-5.6.9-8.5.7-3.3-.2-6.6-.6-9.8-1.4-1.8-.5-2.4-1.4-2-3.3.3-1.5.7-3,1.7-4.2.7-.9.8-1.4-.5-1.8-2.1-.6-4.1-1.8-6-2.8-1.8-.9-1.9-1.5-1.1-3.4,1.2-2.8,3.1-5,5.4-7,4-3.6,8.5-6.6,13.6-8.3,2.1-.7,4.2-1.4,6.5-1.4,4,5.4,10.5,6.5,16,9.4-1.5.9-2.8,2.2-3.9,3.6-3.3,1.7-5.4,4.4-7.2,7.5-2.2,3.7-3.3,7.9-4.1,12.1"/>
        <path class="cls-3" d="M51.1,63.7c1.1-1.4,2.4-2.7,3.9-3.6-5.4-2.9-11.9-4.1-16-9.4.7-.3,1.4-.3,2.1-.3.4.1.9.2,1.3.3,3.6.9,7.4,1.4,10.7,3.4,0,.3.3.4.6.5,0,.4.2.7.3,1.2-.6,0-1.1-.2-1.6-.2,0,0,0,0,0-.1,0,0,0,0,0,0,0,0,0,.1.1.2.9.8,1.9,1.4,3,1.8.3.7.7,1.2,1.5,1.3.1.1.2.2.4.3,0,0,0,0,.1,0,0,0,0,0-.1,0-.1-.1-.2-.2-.3-.4,0-.8-.6-1.2-1.3-1.4,0-1.3-.9-2-1.7-2.8,0-.3-.2-.5-.5-.6-.7-.8-1.6-1.4-2.5-2-1.5-1.2-3.4-2-4.3-3.8,1.4.1,2,1.4,3.1,2,.6.4,1.2.9,1.9,1.2-1.1-2.2-2.5-4.3-3.5-6.6,0,0,.2-.1.3-.2,2.4,3.8,4.9,7.6,8,10.9.5.5.9,1,1.5,1.4-1.4-5.1-3.6-9.9-5.8-14.7,2.4,3.4,4,7.2,5.8,10.9-.7-4.2-1.5-8.4-4.1-11.9-.3-.4-.9-.7-.5-1.3.2-.4.5-.7.9-.7.6,0,.7.7.9,1.1,1.9,4.3,3.9,8.5,4.4,13.3,0,.1.2.2.5.7,0-5.6-.3-10.8-1.9-15.9,2.7,4.5,2.5,9.7,3.1,15.1,1.1-1.6,1.1-3.1,1.2-4.5.2-3.1.2-6.3-.5-9.4-.1-.5,0-1,0-1.5h.1s.1,0,.1,0c.4,1.7.7,3.4,1.1,5.2.2,3.9-.1,7.7-1.4,11.4-.5,1.6-1.2,3.2-1,5,.2.6-.2,1-.6,1.3,1.5,1.2,3.4,1.5,4.9,2.5,2.4,1.6,4.6,3.5,6.8,5.3,1.2,2.7,1.7,5.8,2.7,8.6-1.4,0-1.6-1.6-2.7-2.1-3.3-4.2-6.2-8.7-10.7-11.7-1-.7-2-1.6-3.4-1.3-1.5,0-2.7.7-4,1.1-.8.2-1.5,1-2.5.6M51.5,54.5c0,0-.1.1-.1.2,0,0,0,.1,0,.1,0,0,.2,0,.2,0,0,0-.1-.1-.2-.2M58.1,53.5c0,.1,0,.2,0,.3,0,.2.1.2.2,0,0,0,0-.1,0-.2,0,0,0-.1-.2-.2"/>
        <path class="cls-5" d="M71.8,68.5c-2.3-1.8-4.5-3.7-6.8-5.3-1.5-1-3.3-1.3-4.9-2.5.4-.2.8-.6.6-1.3,0,0,0,0,0,0,.1-.1.2-.2.4-.4,1.1-1.6,3.1-2.2,4.2-3.8.5-.1.9-.3,1.5-.5-.8-.3-1.7.1-2.4-.4.2-.7,1.2-1,.9-1.8.6-.2.9-1,1.7-1.1h0c0,.5-.2,1.2.7.6.3-.2.5-.7.9-.2.3.3,0,.8-.3,1-.5.3-.7.8-.6,1.4.2.3.6.3.9.2,2.3-.7,4.6-1.2,6.7-2.6,3.2-1.5,6.1-3.6,9.2-5.3.5-.3,1.2-.9,1.6-.2.5.8-.4,1.2-.9,1.5-2.1,1.2-4.2,2.4-6.6,3.8,1.1.4,1.7,0,2.3-.3,2.8-1.2,5.5-2.4,8.6-2.7,1.1,0,2-1.5,3.3-.7.2,0,.4.1.5.2.5,1.2-.2,2.2-1.5,1.7-3.4-1.1-6.3.2-9.2,1.5-1.6.7-3.2,1.4-5.1,2.2,2.2.4,3.9,0,5.6-.8.7-.3,1.4-.6,2.1-.7.7,0,1.6-.5,1.7.8,0,1.1-.5,1.7-1.4,2-.4,0-.8,0-1.2-.1-3.4-1.3-6.4,1-9.6.7,0,.2,0,.4,0,.6,2.2.3,4.4.6,6.5,1.1,1.8.3,3.6.8,5.3,1.3,1,.3,1.9.2,2.9.1.8-.1,1.6.2,1.5,1.1,0,.9-.8,1.2-1.6,1.2-.4,0-.9,0-1.1-.3-2.5-2.4-5.9-2.3-9-2.9-2.4-.5-4.9-1.2-7.4-1.1-.4-.3-.8-.6-1.3-.4h-.4c-1.8-.7-3.3.3-4.8.9,1.2.1,2.4.3,3.2,1.4-1,.2-2,.4-3,.7,1.7.5,3.3-.3,4.9-.1,2.1.5,4.2.6,6.3.7,1.1,0,2.2.2,3.3.2.8,0,1.5.2,1.9.9.1.3,0,.5-.3.8-.7.7-1.5.5-2.2.2-3.7-1.7-7.6-1.2-11.4-1-1.1,0-2.4,0-3.9.8,3.5.6,6.6,1.2,9.5,1.7-.7.2-.3.7,0,1.3,0,0-.2.2-.3.2-1.8-1.7-4.2-1.6-6.4-2,2,1,3.6,2.4,5.4,3.6.4.3.8,1,1.4.5.7-.6,0-1.1-.1-1.7.1-.1.2-.2.3-.3.9.7,1.9,1.3,2.8,2,.5.4.8.8.5,1.5-.3.6-.8.6-1.5.5-1.2-.2-2.4-.2-3.6-.3M77.2,52.7c.7,0,1.2,0,1.3-.6-.5-.1-.8.2-1.3.6"/>
        <path class="cls-3" d="M67.6,54.5c0-.6,0-1.1.6-1.4.4-.2.6-.7.3-1-.4-.5-.6,0-.9.2-.8.6-.7-.1-.7-.6v-.2c0,0,0,0,0,.1-.8,0-1.1.8-1.7,1.1,0,0,0,0,0-.1,0,0,0,0,0,0,0,0,0,0,.1.1.3.8-.7,1.1-.9,1.8.7.5,1.5,0,2.4.4-.6.2-1,.3-1.5.5-.6,0-1.2,0-1.7.1,0-.2,0-.3,0-.5.4-1.3.8-2.6,1.3-3.9,2-5.7,2.1-11.5,1.7-17.4,0-.4,0-.8-.3-1,0,0-.3.3-.5.4,0-.2,0-.4,0-.6.5-.6,1.2-1.2-.2-1.7-.4-.1-.8-.5-.9-1,0-.2,0-.5.3-.4.5.1,1.1.2,1.4.6.4.5.5,1.1,1.3.9.6,1.4,0,3,.3,4.4,0,2.9-.1,5.8-.3,8.8,1.4-2.1,2.7-4.2,3.2-6.7.2-.8.4-1.7.6-2.5,0-.4.3-.6.8-.5.3,0,.4.4.4.7,0,.4,0,.9-.3,1.3-1.4,3.1-2.4,6.4-4.2,9.4-.9,1.4-1.6,3-1.9,4.7l.4.3c1.3-1.6,2.7-3.1,3.9-4.8,2.4-3.5,4.7-7.1,5.5-11.3,0-.2.3-.5.5-.7h0c-.5,5.6-3.4,10-6.6,14.4-.5.7-1.1,1.3-1.7,2-.2.2-.6.5-.4.8.3.3.5,0,.7-.3,3.1-1.8,5.6-4.3,8.2-6.7,1.2-1.1,2.9-1.8,3-3.9,0-.6,1-1,1.7-.7.7.2,1.2.8,1.1,1.5-.2.7-.4,1.5-1.5,1.2-.5-.1-1-.2-1.3.4-1.4,3.6-4,6.2-6.8,8.7-1.9.9-3.2,2.7-5.3,3.3M72.6,49.3c-.1.1-.2.3-.4.4-.2.1-.4.3-.6.4-.2.2-.4.3-.6.5,0,.1-.3.3-.2.3.2.2.3,0,.5,0,.2-.1.4-.3.7-.4.2-.1.4-.3.6-.4.1,0,.3-.2.4-.3.1-.1.2-.2.4-.3,1.4-.9,2.5-2.1,3.5-3.4.2-.2.5-.5.7-.7.1-.2.3-.3.2-.5-.2-.2-.3,0-.5.1-.4.1-.6.4-.7.7-1.2,1.1-2.5,2.2-3.5,3.5,0,0-.2.2-.2.2M66.2,50.7s0,0-.1-.1c0,0,0,.1,0,.2,0,0,0,0,0,.1,0,0,0-.1.1-.2M78.2,44.3c0,0,0-.1-.1-.2,0,0-.1,0,0,.1,0,0,0,.1,0,.2,0,0,0,0,.1-.1"/>
        <path class="cls-10" d="M46.7,47.9c.9,1.9,2.8,2.6,4.3,3.8.8.7,1.7,1.3,2.5,2,0,0-.2.2-.3.3-3.3-2-7.1-2.5-10.7-3.4-.4-.1-.9-.2-1.3-.3.9-1.5,1.3-3.1,1-4.8,1.4-1,2.2.4,3.1,1h0c0,.2,0,.4.4.3h0c0,.3,0,.4.3.3h0c0,.5.2.7.7.7h0Z"/>
        <path class="cls-3" d="M45.3,46.5c-1-.6-1.7-1.9-3.1-1-.3-.4-.7-.7-1-1.1,1.2-1.9,1.8-1.9,3,0,.4.7,1.3,1.1,1.1,2.1"/>
        <path class="cls-7" d="M70.3,58.9c-1.6-.2-3.1.6-4.9.1,1.1-.2,2-.4,3-.7-.8-1.2-2-1.3-3.2-1.4,1.5-.6,3-1.6,4.8-1,0,.3.2.3.4,0,.5-.1.9.2,1.3.4.3,1.3-.3,2-1.5,2.4"/>
        <path class="cls-5" d="M73.3,64.5c.1.1.2.2.3.3-.1.1-.2.2-.3.3,0-.1-.2-.3-.3-.4,0,0,.2-.2.3-.2"/>
        <path class="cls-8" d="M63.5,55.5c.6,0,1.2,0,1.7-.1-1.1,1.6-3.1,2.2-4.2,3.8-.1.1-.2.2-.4.4,0,0,0,0,0,0-.1-1.8.5-3.4,1-5,1.3-3.7,1.6-7.5,1.4-11.4.8-1.5.8-3.1.7-4.6-.2-2.2,0-4.1,2.6-4.8.4,5.9.3,11.8-1.7,17.4-.5,1.3-.9,2.6-1.3,3.9-.2.2-.3.4-.1.6,0,0,.1,0,.2-.1"/>
        <path class="cls-5" d="M56.6,35.9c-1.1.1-2.1-.4-2.2-1.6,0-1.1,1.1-1.4,2-1.3,1,0,1.5.8,1.4,1.8,0,.5,0,1.5-1.3,1.1"/>
        <path class="cls-3" d="M48.3,40.2c-.5.5-1,1-1.5,1.6-.4-.7-1.9,0-1.9-1.3,0-.8.4-1.7,1.3-1.7.8,0,1.7.3,2.1,1.4"/>
        <path class="cls-5" d="M62,37.9h-.1s-.1,0-.1,0c-.3-.8-.5-1.6-.8-2.4-.2-.5-.5-1.1,0-1.5.4-.3.7-.2,1.1,0,.6.4.8,1,.5,1.6-.4.7-.7,1.4-.6,2.2"/>
        <path class="cls-8" d="M65.6,32.4c0,.2,0,.4,0,.6,0,.1,0,.3-.1.4,0,0-.2,0-.2,0,0-.4,0-.7.3-1"/>
        <path class="cls-3" d="M46.6,47.9c-.5,0-.7-.2-.7-.7.6-.1.9,0,.7.7"/>
        <path class="cls-3" d="M47.7,43.1c.1.2.2.3.3.5,0,0-.2,0-.2,0,0-.2,0-.4,0-.6h0Z"/>
        <path class="cls-3" d="M47.7,43c-.2,0-.3,0-.3-.2,0,0,0-.1.1-.2,0,.1,0,.3.1.4h0"/>
        <path class="cls-3" d="M46,47.2c-.3,0-.4,0-.3-.3.4-.2.5,0,.3.3"/>
        <path class="cls-3" d="M45.6,46.8c-.3,0-.4-.1-.4-.4.4-.2.5,0,.4.4"/>
        <path class="cls-3" d="M48.2,44.6c-.1-.2-.2-.3,0-.5,0,0,.2.2.3.3,0,0-.2.2-.3.2"/>
        <path class="cls-4" d="M67.6,54.5c2.1-.6,3.4-2.4,5.3-3.3.5,1,1.4.8,2.3.9-2,1.4-4.4,2-6.7,2.6-.3,0-.7.1-.9-.2"/>
        <path class="cls-5" d="M76.4,33.8h0c-.3-.2-.7-.4-1-.6-1.1-.6-.7-1.2,0-1.8.6-.5,1.2-.2,1.7.2.4.4,1,.7.9,1.4-.2.8-.9.9-1.6.8"/>
        <path class="cls-4" d="M51.1,63.7c1,.3,1.7-.4,2.5-.6,1.3-.4,2.6-1.1,4-1.1-.7,1.7-2.3,2.8-3.5,4.2-3.7,4.2-6.9,8.8-9.9,13.5-1.1,1.7-2.2,3.4-4.5,3.5.9-4.2,2-8.3,4.1-12.1,1.8-3.1,3.9-5.8,7.2-7.5"/>
        <path class="cls-2" d="M53.9,54.3c.8.8,1.8,1.4,1.7,2.8,0,0-.1.1-.2.2-1.1-.4-2.1-1-3-1.8h0c.5,0,1,.1,1.6.2,0-.4-.2-.8-.3-1.2,0,0,.1-.1.2-.2"/>
        <path class="cls-2" d="M55.6,57.1c.7.2,1.2.6,1.3,1.4h0c-.8,0-1.2-.6-1.5-1.3,0,0,.1,0,.2-.2"/>
        <path class="cls-2" d="M53.4,53.7c.3,0,.4.3.5.6,0,0-.1.1-.2.2-.3,0-.5-.2-.6-.5,0,0,.2-.2.3-.3"/>
        <path class="cls-2" d="M51.5,54.5c0,0,.1.1.2.2,0,0-.1,0-.2,0,0,0-.1,0,0-.1,0,0,0-.1.1-.2"/>
        <path class="cls-6" d="M58.1,53.5c0,0,.1.1.2.2,0,0,0,.1,0,.2,0,.2-.2.2-.2,0,0,0,0-.2,0-.3"/>
        <path class="cls-2" d="M57.3,58.9s0,0,.1,0c0,0,0,0-.1,0h0Z"/>
        <path class="cls-2" d="M57.3,58.9c-.1-.1-.2-.2-.4-.3h0c.1.1.2.2.3.3h0"/>
        <path class="cls-2" d="M52.5,55.4c0,0,0-.1-.1-.2,0,0,0,0,0,0,0,0,0,0,0,.1h0"/>
        <path class="cls-8" d="M73,64.8c0,.1.2.3.3.4.2.5.9,1.1.1,1.7-.7.5-1-.2-1.4-.5-1.8-1.2-3.4-2.6-5.4-3.6,2.2.4,4.6.3,6.4,2"/>
        <path class="cls-6" d="M77.2,52.7c.5-.5.8-.8,1.3-.6,0,.7-.6.6-1.3.6"/>
        <path class="cls-3" d="M60.7,59.5c.1-.1.2-.2.4-.4-.1.1-.2.2-.4.4"/>
        <path class="cls-6" d="M70.4,56.1c-.2.3-.3.3-.4,0,.1,0,.2,0,.4,0"/>
        <path class="cls-6" d="M72.8,49.1c1-1.3,2.3-2.4,3.5-3.5.1.1.3.3.4.4-1,1.3-2.1,2.5-3.5,3.4-.1-.1-.3-.2-.4-.3"/>
        <path class="cls-6" d="M77.4,45.3c-.2.2-.5.5-.7.7-.1-.1-.3-.3-.4-.4.2-.3.4-.6.7-.7.1.1.2.3.3.4"/>
        <path class="cls-6" d="M68.5,50.6c-.2.2-.5.6-.7.3-.3-.3.2-.5.4-.8.1.2.3.3.4.5"/>
        <path class="cls-6" d="M71.9,50.4c-.2.1-.4.3-.7.4,0,0-.2-.2-.3-.3.2-.2.4-.3.6-.5.1.1.2.2.3.4"/>
        <path class="cls-6" d="M72.5,50c-.2.1-.4.3-.6.4,0-.1-.2-.2-.3-.4.2-.1.4-.3.6-.4,0,.1.2.2.3.3"/>
        <path class="cls-5" d="M63.5,55.5c0,0-.2.1-.2.1-.2-.3,0-.4.1-.6,0,.2,0,.3,0,.5"/>
        <path class="cls-5" d="M65.2,52.7s0,0-.1-.1c0,0,0,0,0,0,0,0,0,0,0,.1h0Z"/>
        <path class="cls-5" d="M66.9,51.6c0,0,.1,0,.2-.1,0,0,0,.1-.1.2h0"/>
        <path class="cls-6" d="M71.2,50.8c-.2.1-.3.3-.5,0,0,0,.2-.2.2-.3,0,0,.2.2.3.3"/>
        <path class="cls-6" d="M66.2,50.7c0,0,0,.1-.1.2,0,0,0,0,0-.1,0,0,0-.1,0-.2,0,0,0,0,.1.1"/>
        <path class="cls-6" d="M72.2,49.7c.1-.1.2-.3.4-.4.1.1.2.3.3.4-.1,0-.3.2-.4.3,0-.1-.2-.2-.3-.3"/>
        <path class="cls-6" d="M72.6,49.3c0,0,.2-.2.2-.2.1.1.3.2.4.3-.1.1-.2.2-.4.3-.1-.1-.2-.3-.3-.4"/>
        <path class="cls-6" d="M77.1,44.9c.2-.1.3-.3.5-.1.2.2,0,.4-.2.5-.1-.1-.2-.3-.3-.4"/>
        <path class="cls-6" d="M78.2,44.3s0,0-.1.1c0,0,0-.1,0-.2,0,0,0,0,0-.1,0,0,0,.1.1.2"/>
      </g>
    </g>
  </g>
</svg>