<?xml version="1.0" encoding="UTF-8"?>
<svg xmlns="http://www.w3.org/2000/svg" xmlns:xlink="http://www.w3.org/1999/xlink" version="1.1" viewBox="0 0 131.4 116.5">
  <defs>
    <style>
      .cls-1 {
        fill: none;
      }

      .cls-2 {
        fill: #dc6d80;
      }

      .cls-3 {
        fill: #ef9ba6;
      }

      .cls-4 {
        fill: #f0a9b1;
      }

      .cls-5 {
        fill: #f4c7c7;
      }

      .cls-6 {
        fill: #f0afb6;
      }

      .cls-7 {
        fill: #ba4858;
      }

      .cls-8 {
        fill: #f0b4b8;
      }

      .cls-9 {
        fill: #ca5965;
      }

      .cls-10 {
        fill: #fae0df;
      }

      .cls-11 {
        fill: #f6bec6;
      }

      .cls-12 {
        fill: #f6d2d2;
      }

      .cls-13 {
        clip-path: url(#clippath);
      }

      .cls-14 {
        fill: #f8d7d6;
      }
    </style>
    <clipPath id="clippath">
      <rect class="cls-1" y="0" width="131.4" height="116.5"/>
    </clipPath>
  </defs>
  <!-- Generator: Adobe Illustrator 28.7.5, SVG Export Plug-In . SVG Version: 1.2.0 Build 176)  -->
  <g>
    <g id="Layer_1">
      <g class="cls-13">
        <path class="cls-10" d="M100.2,31.3c3.5-2,6.7-.6,9.7,1,4,2.1,7.5,4.8,10.8,7.9,1.3,1.2,2.8,2.2,4.3,3.3,1,.7,1,1.2.3,2.1-1.8,2.7-4.6,3.9-7.3,5.2-.6.3-1.4.4-2,1.2,1.1.9,2.6.8,3.8,1.1,2.2.5,4.3,1.1,6.3,2.1,1.6.8,1.7,1.7,0,2.7-3.8,2.3-7.8,4.2-11.9,5.8-4.1,1.6-8.2,3-12.6,3.8-1.7.3-1,1.1-.3,1.9,5.7,7.1,10.3,14.8,12.4,23.8,1.4,5.8-1.6,11.4-6.9,13.4-2.8,1.1-4.8-.4-6.8-1.7-1.8-1.2-3.7-2.3-5.1-4-.9-1.1-1.4-.8-2.1.3-.8,1.4-.8,2.8-.7,4.2.2,1.8-.4,2.5-2.4,2.5-9,.2-16.5-3.7-23.5-8.7-6.8-4.8-9-12.4-11.7-19.7,1.6-1.7,2.4-3.8,2.7-6.1,1,2.6,1.7,5.3,3.2,7.7.8,1.3,1.5,2.7,3.1,3.1.8.2,1.7.3,2.1-.5.5-.8-.5-1-.9-1.5-.7-.9-1.4-1.9-2.9-.9-.7.4-.8-.4-1-.7-1.3-2.5-2.2-5.2-2.3-8,0-1.3.3-2.3,1.8-2.5.7,1.4,1.6,2.7,2.9,4-.1-2.2-.9-3.9-1.3-5.8-.1-.6-.6-1.6.3-1.7,2.1-.3,4.1-1.4,6.4-.1,3.1,1.7,6.2,3.8,9.9,3.9-.9.5-1.7,1-1.4,2.1.3,1.1,1.4,1.1,2.4,1,.9,0,1.6-.5,1.7-1.4.1-1.1-.4-2-1.7-2.1-1.3-.8-3-.5-4.3-1.1.7-.9,2.8.3,2.7-1.8,0-1.4.6-1.4,1.8-1.1,5.1,1.4,10.5,1.5,15.7,1.8,1.2,0,2.3,0,4,0-3.7-3.6-7.8-5.1-12-6.4-2-.6-1.3-1.3-.6-2.1,2.9-3.5,4.2-7.8,5.6-12,1.3-4,2.4-8,4.8-11.6.9-1.4,2.2-2.7,2.5-4.5"/>
        <path class="cls-5" d="M100.2,31.3c-.3,1.8-1.6,3.1-2.5,4.5-2.4,3.6-3.4,7.6-4.8,11.6-1.4,4.2-2.6,8.5-5.6,12-.7.8-1.4,1.5.6,2.1,4.2,1.2,8.3,2.8,12,6.4-1.6,0-2.8,0-4,0-5.3-.3-10.6-.4-15.7-1.8-1.2-.3-1.8-.3-1.8,1.1.1,2.1-2,.9-2.7,1.8-.5-.3-1.1-.6-1.6-.8.2-1.4-1.8-1.8-1.3-3.3.4,0,.8-.1,1.1-.2.2.3.3.6.7.4.2,0,.2-.4.3-.7,1.3-.2,2.7-.3,4-.8,1.3-.5,1.8-1.8,1.5-3-.3-1.1-1.5-.8-2.4-.9-1.5-.2-1.5.9-1.4,1.9.1,1.2-.7,1.4-1.6,1.6-3.3.6-6.7,1.3-10,2-.9.2-1.8.4-2.9-.4,1-1,2-1.9,3-2.8,4.3-3.7,8.1-7.8,11.3-12.5.7-1.1,1.1-2.3,2.9-2,.7.1,1.4-.5,1.6-1.3.1-.9-.8-.9-1.3-1.2-.4-.2-.8-.4-1.2-.5-1.3-.3-2,.3-1.5,1.5.5,1.1-.1,1.7-.6,2.5-2.8,4.3-6.4,7.8-10.2,11.2-.8.7-1.6,1.7-2.9,1.7,1.9-4.5,2.2-10.1,7.4-12.7.6-.3,1-.9.4-1.6-.7-.8-1.2,0-1.6.4-1.4,1.3-2.7,2.7-3.4,4.4-1.3,3.1-2.9,6.1-4.6,9.1-1.1-1.1,0-2,.4-3,1.3-4,1.4-8.4,3.6-12.2.4-.7,0-1.4-.5-1.7-1.4-.8-1-1.6-.3-2.6.5-.8,1.5-1.8,0-2.5-1.2-.6-2.7-1.3-3.9.3-1,1.4-.6,2.7,1,2.8,1.8,0,2,1,1.9,2.4-.2,3.8-1.5,7.5-2.2,11.2,0,.4-.1,1.1-.9.8.7-3,.8-6,1-9.1.1-2.1-.6-2.6-2.5-2-.9.3-.9-.7-1.6-.8,1,4.3.2,8.5-.5,12.7-.5-1.6-.7-3.2-.8-4.9-.1-3.3-.1-6.5-.3-9.8,0-1.2-.5-2.4.6-3.4.4-.3.4-.9,0-1.3-.5-.5-1.1-.4-1.6,0-.8.7-1.1,1.6-.7,2.6,1.5,4,.8,8.2,1.1,12.3-1.1-1.4-1.4-3.1-2.2-4.7-.8-1.6-.8-3.5-2.5-4.6h0c0-2-1.6-2.1-3.1-2.3,0-.5,0-1.1,0-1.6.1-5.5,2-10.5,4.1-15.4,2-4.6,4.3-8.9,7.6-12.8,4.6-5.4,10.3-7.4,17.2-6.1,1.1.2,1.4.8,1.6,1.9.5,2.8.2,5.6.4,8.8,1.8-3.3,4.2-5.5,7.4-6.8,1.6-.6,2.6-.4,3.6,1.1,4.2,6.3,6.1,13.1,6.3,20.6,0,.8-.5,1.9.4,2.4.7.4,1.1-.8,1.7-1,.7-.3,1.5-.6,2.2-.9M72.9,43.3c-.8-1.7.5-1.7,1-2.3.6-.9,1.4-2,0-2.7-1.2-.6-2.5-.1-3.4.8-.9,1-.2,2,.7,2.8.4.4.9.7,1.8,1.4M68.6,44.8c.9,0,1-.8,1.2-1.5,0-.4,0-.9-.4-.8-.9.1-1.1,1-1.4,1.7-.2.4.2.6.7.6"/>
        <path class="cls-10" d="M47.6,39.6c0,.5,0,1.1,0,1.6-2.2.5-4-1.1-6.2-1,.4.5.8.8.9,1.2.8,2.2,2,3.6,4.6,3,.5-.1.8.2,1,.7.7,2.4,2.1,4.6,2.4,7.1-1.5.3-1.5-1.1-1.9-1.9-1.6-2.7-2-3.2-3.7-3.7,2.2,2.7,2.9,6,4.2,9,.4,1,1.4,1.9.9,3.2-2.2-2-4.4-4.1-6.6-6.1-.5-.6-1.1-1.2-1.5-1.8-.7-1-2.4-1.9-.3-3.3.6-.4.2-1.5-.6-2-1.6-1.1-2.7.2-3.9,1-.6.4-.3,1.2.2,1.4,2.3,1.1,3.5,3.4,5.5,4.8,1.9,2.8,4.2,5,7.2,6.5h0c-.1.4,0,.5.4.4h0c0,.4.2.5.4.6,0,.2.1.2.3.2.2.2.4.3.6.5h0c.2.4.4.7.9.4h0c0,1.3,1.8,1.3,2.1,2.7-3.6-1.2-7.2-2.2-10.6-3.7-.4-.5-.9-.7-1.5-.9-.9-1.3-2.7-1.5-3.5-2.8,0,0,0,0,0,0h0c-1.7,1-3-.2-4.4-.9-1-.5-1.9-1.1-3-.4-3.4.7-6.8,1.3-9.6,3.5-.4,0-.8,0-1.2,0,0-2.4-2.1-3.6-3.3-5.2-6.8-9-10.9-19.3-13.4-30.2-.3-1.4,0-1.6,1.3-1.6,2.4-.1,4.7.4,7.1,0,1.1-.1,1.3-.5,1.3-1.5,0-1.9,0-3.8,0-5.6,0-3.3,1.7-4.7,4.8-4.1,3.5.7,6.6,2.3,9.2,4.6,6.1,5.4,11.1,11.7,13.8,19.6.9,2.8,2.8,4.9,6.1,4.9"/>
        <path class="cls-12" d="M52,82.2c-1.2,2.6-3.7,3.7-6.1,4.8-3.5,1.6-7.3,2.1-11.1,2.6-4,.5-8,.7-12,.9-2.3.1-4.6-.3-6.8-.8-6.3-1.6-6.2-3.8-5.1-8.7.5-2.3,1.5-4.3,2.8-6.3.5-.7,1-1.4.9-2.4,1.3-.7,2.7-.3,4.1-.6,3.5-.8,6.3-3.3,9.9-3.6,2.3-.2,4.6-1,6.9-1.7,1.3-.4,2.6-.7,3.4-1.9,1.2.6,2.3,1.1,3.5,1.7,4.2,2.2,8.5,1.2,13.1.5-1.4,2.5-1.7,5.1-2.3,7.6-.6,2.7-.3,5.5-1.3,8.1"/>
        <path class="cls-7" d="M52,82.2c.9-2.6.7-5.4,1.3-8.1.5-2.5.9-5.1,2.3-7.6-4.6.8-8.9,1.7-13.1-.5,0-.1,0-.3,0-.4,4.2,1.5,8.4,1.2,13.1-.1-4.5-1.1-8.4-2.5-11.9-4.9,0,0,.2-.2.3-.3,3.4,1.5,6.9,2.5,10.6,3.7-.3-1.4-2-1.3-2.1-2.6.3-.2.6-.4.9-.5,1.2.9,2.2,2.3,3.8,2.7,0,.2.1.4.3.1,0,0-.2-.1-.2-.2-1.8-3.3-4.6-6-6.1-9.6h0c0-.3-.1-.6-.2-.9-.2-.3-.1-.8-.7-.9h0c-.3-2.6-1.7-4.7-2.4-7.1-.1-.4-.5-.8-1-.7-2.6.6-3.8-.8-4.6-3-.1-.4-.6-.8-.9-1.2,2.2,0,4.1,1.5,6.2,1,1.4.2,3,.3,3.1,2.3-.7-.1-1-1.2-1.8-.9-.7.3-.5,1.1-.3,1.5,2,5,3.4,10.3,6.8,14.7.3.8.8,1.5,1.6,1.8.2.5.3,1.1.9,1.3.1-.7-.3-1.1-.6-1.5-.3-.9-.7-1.8-1.3-2.6-1.8-4.8-3.5-9.5-5.3-14.3,1.7,1,1.8,3,2.5,4.6.7,1.5,1.1,3.2,2.2,4.7-.3-4.1.5-8.3-1.1-12.3-.4-.9,0-1.9.7-2.6.5-.4,1.1-.5,1.6,0,.5.4.5,1,0,1.3-1.2,1-.7,2.2-.6,3.4.2,3.3.2,6.5.3,9.8,0,1.6.3,3.3.8,4.9.7-4.2,1.5-8.4.5-12.7.7,0,.7,1,1.6.8,1.9-.6,2.6,0,2.5,2-.2,3-.4,6.1-1,9.1-.2,2.2-.4,4.5-.6,7.1.6-.8,1-1.2,1.4-1.7,0,.4,0,.8,0,1.3,0,0,0,.1-.1.2,0,0,.1,0,.2-.1.8,0,.6-1,1.3-1.1.3-.1.5-.3.4-.7h0c1.3,0,2-1,2.9-1.7,3.8-3.4,7.4-6.9,10.2-11.2.5-.8,1.1-1.4.6-2.5-.5-1.2.2-1.8,1.5-1.5.4,0,.8.3,1.2.5.5.3,1.5.3,1.3,1.2-.1.8-.9,1.4-1.6,1.3-1.7-.3-2.1,1-2.9,2-3.2,4.7-7,8.9-11.3,12.5-1,.9-2,1.8-3,2.8,1,.8,2,.6,2.9.4,3.3-.6,6.7-1.3,10-2,.9-.2,1.7-.4,1.6-1.6,0-1,0-2,1.4-1.9.9,0,2.2-.2,2.4.9.3,1.2-.2,2.6-1.5,3-1.3.4-2.7.5-4,.8-.3,0-.7.2-1,.2-.4,0-.8.1-1.1.2-1.3.3-2.7.2-4.1,1.1,2,.5,3.6,1.4,5.3,2.2.5.3,1.1.6,1.6.8,1.4.6,3,.3,4.3,1.1-.3,0-.7.2-1,.3-3.8,0-6.8-2.2-9.9-3.9-2.3-1.3-4.3-.2-6.4.1-.9.1-.4,1.1-.3,1.7.3,1.8,1.1,3.5,1.3,5.8-1.4-1.3-2.2-2.6-2.9-4-.3-.9-.4-1.9-1.4-3,0,2.5-1.8,4.2-1.7,6.4-.3,2.3-1.1,4.3-2.7,6.1-1,.8-1.7,2-2.9,2.6M59.2,46.5c.1,4.1-.7,8.3-.3,12.4-.5-4.2,3.1-8.2.3-12.4"/>
        <path class="cls-11" d="M38.9,64.4c-.8,1.2-2.1,1.5-3.4,1.9-2.3.7-4.5,1.5-6.9,1.7-3.7.3-6.4,2.9-9.9,3.6-1.4.3-2.8-.1-4.1.6-2.1-.6-4.2-1.1-6.2-1.7-2.4-.7-2.4-1-.7-2.9,2.4-2.6,5.2-4.6,8.3-6.3,1.6-.9,3.2-1.7,4.8-2.6.4,0,.8,0,1.2,0,1.4.5,2.8,1.1,4.2,1.5,2.8.9,5.6,1.6,8.6,1.2,1.8-.2,3.1-2,5-1.5,0,.1,0,.3,0,.4,0,.1,0,.3,0,.4-1-.1-2,.2-2.3,1.1-.4,1.2.9,1.6,1.5,2.4"/>
        <path class="cls-9" d="M57.6,73.5c0-2.2,1.7-3.9,1.7-6.5,1,1,1.1,2.1,1.4,3-1.5.2-1.8,1.2-1.8,2.5.1,2.9,1,5.5,2.3,8,.2.4.4,1.2,1,.7,1.4-.9,2.1,0,2.9.9.4.4,1.4.7.9,1.5-.5.8-1.3.7-2.1.5-1.7-.4-2.4-1.8-3.1-3.1-1.4-2.4-2.1-5.1-3.2-7.7"/>
        <path class="cls-9" d="M79.1,70.4c.3,0,.7-.2,1-.3,1.3.1,1.8,1,1.7,2.1,0,.9-.8,1.3-1.7,1.4-.9,0-2,0-2.4-1-.3-1.1.6-1.7,1.4-2.1"/>
        <path class="cls-9" d="M61.5,61.8c-.4.5-.7.9-1.4,1.7.2-2.6.4-4.8.6-7.1.8.3.8-.3.9-.8.7-3.7,2-7.4,2.2-11.2,0-1.4,0-2.3-1.9-2.4-1.7,0-2-1.4-1-2.8,1.2-1.6,2.6-.9,3.9-.3,1.4.7.5,1.8,0,2.5-.7,1-1.1,1.8.3,2.6.5.3,1,.9.5,1.7-2.2,3.8-2.3,8.2-3.6,12.2-.3.9-1.5,1.8-.4,3h0c0,.3,0,.6,0,.8h0"/>
        <path class="cls-9" d="M61.5,63.1c0-.4,0-.8,0-1.3,0,0,0,0,0,0,.4-.2.6-.5,0-.8h0c1.7-3,3.3-6,4.6-9.1.7-1.8,2-3.2,3.4-4.4.4-.4.9-1.2,1.6-.4.6.7.2,1.3-.4,1.6-5.3,2.6-5.5,8.1-7.4,12.7h0c-.5,0-.6.3-.4.7-.6.1-.5,1.2-1.3,1.1h0Z"/>
        <path class="cls-9" d="M72.9,43.3c-.9-.7-1.4-1-1.8-1.4-.8-.8-1.6-1.8-.7-2.8.8-.9,2.2-1.4,3.4-.8,1.5.7.7,1.8,0,2.7-.4.6-1.7.7-1,2.3"/>
        <path class="cls-10" d="M74.1,68.2c-1.7-.7-3.3-1.7-5.3-2.2,1.3-.9,2.8-.8,4.1-1.1-.6,1.5,1.5,2,1.3,3.3"/>
        <path class="cls-9" d="M68.6,44.8c-.5,0-.9-.2-.7-.6.3-.7.5-1.6,1.4-1.7.5,0,.4.5.4.8-.1.7-.3,1.5-1.2,1.5"/>
        <path class="cls-10" d="M74,64.6c.3,0,.7-.2,1-.2-.1.2-.1.6-.3.7-.4.2-.5-.2-.7-.4"/>
        <path class="cls-6" d="M39.8,60.1c-2-.6-3.2,1.2-5,1.5-3.1.4-5.9-.3-8.6-1.2-1.4-.5-2.8-1-4.2-1.5,2.9-2.1,6.3-2.7,9.6-3.5-1,1.4-.2,2.3.8,3.1.8.7,1.6.2,2.3-.3,1.6-1.2,4.2-.8,5.6.9-.2.3-.3.6-.5,1"/>
        <path class="cls-2" d="M53.3,60.9c-.3.2-.6.4-.9.5,0,0,0,0,0,0-.2-.4-.5-.5-.9-.5h0c-.2-.1-.4-.3-.6-.4-.2,0-.3,0-.3-.2-.1-.2-.3-.4-.5-.6h0c-.1-.1-.3-.3-.4-.4h0c0-.1,0-.3,0-.4.5-1.3-.5-2.2-.9-3.2-1.3-3-2-6.3-4.2-9,1.6.5,2.1,1,3.7,3.7.4.7.4,2.1,1.9,1.9,0,0,0,0,0,0-.2.3-.2.6,0,.9.2.4.4.8.9.9h0c-.1.4-.1.9-.7.4-.5-.4-1-.8-1.4-1.3,0,0-.2-.1-.2-.2,0,0,.1.2.2.2.5,3.1,2.4,5.5,4.4,7.8"/>
        <path class="cls-9" d="M40.3,59.1c-1.4-1.7-3.9-2.1-5.6-.9-.7.5-1.5,1-2.3.3-1-.8-1.8-1.8-.8-3.1,1.1-.7,2,0,3,.4,1.4.6,2.7,1.9,4.4.9h0c.9,1.3,2.6,1.5,3.5,2.8,0,.2,0,.4,0,.5-.9.1-1.2-1.1-2.2-.8"/>
        <path class="cls-9" d="M42.6,52.7c-2-1.4-3.1-3.8-5.5-4.8-.5-.2-.8-1-.2-1.4,1.1-.8,2.3-2.1,3.9-1,.7.5,1.2,1.6.6,2-2.1,1.5-.3,2.3.3,3.3.4.7,1,1.2,1.5,1.8-.2,0-.4,0-.6,0"/>
        <path class="cls-7" d="M42.6,52.7c.2,0,.4,0,.6,0,2.2,2,4.4,4.1,6.6,6.1,0,.1,0,.3,0,.4-3-1.5-5.3-3.8-7.2-6.5"/>
        <path class="cls-7" d="M42.4,59.9c0-.2,0-.4,0-.5.5.2,1.1.4,1.5.9,0,0-.2.2-.3.3-.4-.2-.8-.4-1.2-.7"/>
        <path class="cls-7" d="M51.5,60.9c.4,0,.7,0,.9.4-.5.2-.7,0-.9-.4"/>
        <polyline class="cls-9" points="38.9 56.6 38.9 56.5 38.9 56.6 38.9 56.6"/>
        <path class="cls-7" d="M50.9,60.5c.2.2.4.3.6.5-.2-.2-.4-.3-.6-.5"/>
        <path class="cls-7" d="M50.2,59.6c.2.2.3.4.5.6-.3-.1-.5-.3-.5-.6"/>
        <path class="cls-7" d="M49.8,59.2c.1.1.3.3.4.4-.4,0-.6,0-.4-.4"/>
        <path class="cls-9" d="M38.9,64.4c-.6-.7-1.9-1.2-1.5-2.4.3-1,1.3-1.2,2.3-1.1,0,.3,0,.6,0,.9-.9,1-.2,1.7.5,2.3.7.6,1.5,1,2.2,1.5,0,.1,0,.3,0,.4-1.2-.6-2.3-1.1-3.5-1.7"/>
        <path class="cls-8" d="M42.4,65.6c-.7-.5-1.5-1-2.2-1.5-.7-.6-1.4-1.3-.5-2.3.7-.2,1.4.6,2.2,0-.5-1-1.3-1.2-2.1-1.4,0-.1,0-.3,0-.4.2-.3.3-.6.5-1,.9-.2,1.3,1,2.2.8.4.2.8.4,1.2.7,3.5,2.3,7.4,3.8,11.9,4.9-4.7,1.3-8.9,1.6-13.1.1"/>
        <path class="cls-14" d="M55.3,58.9c-3.5-4.3-4.8-9.7-6.8-14.7-.2-.5-.4-1.2.3-1.5.8-.4,1.1.7,1.8.9,0,0,0,0,0,0,1.8,4.8,3.5,9.5,5.3,14.3,0,.4-.2.8-.6,1"/>
        <path class="cls-11" d="M53.3,60.9c-2-2.3-3.9-4.6-4.4-7.8h0c.5.4,1,.8,1.4,1.2.6.5.6,0,.7-.4,1.5,3.5,4.3,6.2,6.1,9.6h-.1c-1.6-.3-2.6-1.7-3.8-2.6"/>
        <path class="cls-4" d="M59.2,46.5c2.9,4.2-.7,8.2-.3,12.4-.4-4.1.4-8.2.3-12.4"/>
        <path class="cls-3" d="M55.3,58.9c.4-.2.5-.6.6-1,.6.8,1,1.7,1.3,2.6-.1,0-.2.2-.3.3-.9-.3-1.3-1-1.6-1.8"/>
        <path class="cls-3" d="M57.3,60.4c.3.5.7.9.6,1.5-.6-.2-.7-.8-.9-1.3.1,0,.2-.2.3-.2"/>
        <path class="cls-11" d="M51.1,54c-.5,0-.7-.4-.9-.9.2,0,.5,0,.7,0,0,.3.1.6.2.9"/>
        <path class="cls-10" d="M50.9,53.1c-.2,0-.5,0-.7,0-.1-.3-.2-.6,0-.9.5,0,.5.5.7.9"/>
        <path class="cls-11" d="M57.2,63.5c0,0,.2.2.2.2-.2.2-.3,0-.3-.1,0,0,.1-.1.1-.1"/>
        <path class="cls-9" d="M61.6,63.1c0,0-.1,0-.2.1,0,0,0-.1.1-.2,0,0,0,0,0,0"/>
        <path class="cls-5" d="M62.8,62c-.1-.4,0-.7.4-.7,0,.4-.2.5-.4.7"/>
        <path class="cls-6" d="M39.8,60.5c.8.2,1.6.3,2.1,1.4-.8.5-1.5-.2-2.2,0,0-.3,0-.6,0-.9,0-.1,0-.3,0-.4"/>
        <path class="cls-7" d="M61.6,61c.5.3.3.5,0,.8,0-.3,0-.5,0-.8"/>
        <path class="cls-11" d="M48.9,53.1c0,0-.1-.2-.2-.2,0,0,.2.1.2.2,0,0,0,0,0,0"/>
      </g>
    </g>
  </g>
</svg>