<?xml version="1.0" encoding="UTF-8"?>
<svg xmlns="http://www.w3.org/2000/svg" xmlns:xlink="http://www.w3.org/1999/xlink" version="1.1" viewBox="0 0 131.4 116.5">
  <defs>
    <style>
      .cls-1 {
        fill: none;
      }

      .cls-2 {
        fill: #eb8997;
      }

      .cls-3 {
        fill: #f0a9b1;
      }

      .cls-4 {
        fill: #f0afb6;
      }

      .cls-5 {
        clip-path: url(#clippath);
      }
    </style>
    <clipPath id="clippath">
      <rect class="cls-1" y="0" width="131.4" height="116.5"/>
    </clipPath>
  </defs>
  <!-- Generator: Adobe Illustrator 28.7.5, SVG Export Plug-In . SVG Version: 1.2.0 Build 176)  -->
  <g>
    <g id="Layer_1">
      <g class="cls-5">
        <path class="cls-2" d="M95.2,73.2c0,1.6-1,2.7-2.3,3.4-2.3,1.4-4.7,2-7.4,2.3-9.7.8-18.5-2.2-27.3-5.7-5.3-2.1-10.5-4.2-14.4-8.5-2.4-2.6-4.2-5.5-4.8-9-.3-1.8-1.1-3.5-2.4-4.8-2.1-2.1-.8-4.6-1.1-6.9,0,0,.6-.2,1-.3.2,1,1.1.9,1.7,1.1,1.9.7,3.8,1.3,5.7,2,4.3,1.7,8.7,3.3,13.1,4.6,4.5,3.7,9.5,6.2,15.3,7.6,7.9,1.9,15,5.4,20.6,11.5.8.9,1.2,2.2,2.5,2.6"/>
        <path class="cls-4" d="M95.2,73.2c-1.3-.5-1.7-1.8-2.5-2.6-5.6-6.1-12.8-9.7-20.6-11.5-5.8-1.4-10.8-3.9-15.3-7.6,0-.9-.7-1.4-1.1-2.1-2.8-4-2.8-4.7.7-8.2.6-.6,1.9-1.2,1.6-2.2-.4-1.3.4-1.9,1-2.7,7.2-.8,13.5,1.7,19.5,5.3,7.1,4.3,12.7,10.1,15.8,17.9,1.8,4.4,2.6,9,.9,13.7"/>
        <path class="cls-3" d="M59,36.3c-.5.8-1.4,1.3-1,2.7.3.9-.9,1.5-1.6,2.2-3.5,3.6-3.6,4.2-.7,8.2.4.6,1.1,1.2,1.1,2.1-4.5-1.3-8.8-2.9-13.1-4.6-1.9-.7-3.8-1.3-5.7-2-.6-.2-1.5-.1-1.7-1.1,3.8-5.2,9.8-4.9,15.2-6.1,2.5-.6,5-.8,7.4-1.3"/>
      </g>
    </g>
  </g>
</svg>