<?xml version="1.0" encoding="UTF-8"?>
<svg xmlns="http://www.w3.org/2000/svg" xmlns:xlink="http://www.w3.org/1999/xlink" version="1.1" viewBox="0 0 131.4 116.5">
  <defs>
    <style>
      .cls-1 {
        fill: none;
      }

      .cls-2 {
        fill: #eb8997;
      }

      .cls-3 {
        clip-path: url(#clippath);
      }
    </style>
    <clipPath id="clippath">
      <rect class="cls-1" y="0" width="131.4" height="116.5"/>
    </clipPath>
  </defs>
  <!-- Generator: Adobe Illustrator 28.7.5, SVG Export Plug-In . SVG Version: 1.2.0 Build 176)  -->
  <g>
    <g id="Layer_1">
      <g class="cls-3">
        <path class="cls-2" d="M38.7,78c.2-9,3.8-16.6,9.5-23.3,6.4-7.6,14-13.4,24.1-15.1,3.5-.6,6.9-.5,10.4.2,1.2.2,1.6.7,1.2,1.9-.4,1.1-.7,2.2-1,3.3-.4,1.4,0,2.2,1.6,2.1,2.4-.2,4.7.4,7,1.1,1,.3,1.3.7,1,1.9-3.8,10.9-9.3,20.8-18.5,28.1-7.2,5.7-15.4,5.9-23.9,3.4-.8-.2-1.7-.4-2.5-.8-2.2-1.1-4.3-1.1-6.5.3-2.2,1.3-2.3,1.1-2.3-1.4,0-.6,0-1.2,0-1.7"/>
      </g>
    </g>
  </g>
</svg>