<?xml version="1.0" encoding="UTF-8"?>
<svg xmlns="http://www.w3.org/2000/svg" xmlns:xlink="http://www.w3.org/1999/xlink" version="1.1" viewBox="0 0 131.4 116.5">
  <defs>
    <style>
      .cls-1 {
        fill: none;
      }

      .cls-2 {
        fill: #f0afb6;
      }

      .cls-3 {
        clip-path: url(#clippath);
      }
    </style>
    <clipPath id="clippath">
      <rect class="cls-1" y="0" width="131.4" height="116.5"/>
    </clipPath>
  </defs>
  <!-- Generator: Adobe Illustrator 28.7.5, SVG Export Plug-In . SVG Version: 1.2.0 Build 176)  -->
  <g>
    <g id="Layer_1">
      <g class="cls-3">
        <path class="cls-2" d="M84.6,33.9c5,.3,10,.6,14.9,1.1,2.3.2,2.4.6,1.5,2.7-1.9,4.4-4.8,8-7.7,11.8-5,6.7-9.4,13.9-14.8,20.4-5.2,6.3-11,11.7-18.8,14.5-.6.2-1.2.4-1.9.5-3.8.8-4.4.4-5.2-3.3-.3-1.4-.7-2.8-.5-4.3.2-1.6-.2-2.2-1.9-1.2-2.2,1.3-4.5,2.2-7.2,1.9-3-.3-3.7-1.2-3.3-4.2,1.8-12.2,8.7-21.2,17.7-29,5.5-4.7,11.5-8.5,18.7-10.1,2.8-.6,5.6-.9,8.4-.9"/>
      </g>
    </g>
  </g>
</svg>