<?xml version="1.0" encoding="UTF-8"?>
<svg xmlns="http://www.w3.org/2000/svg" xmlns:xlink="http://www.w3.org/1999/xlink" version="1.1" viewBox="0 0 131.4 116.5">
  <defs>
    <style>
      .cls-1 {
        fill: none;
      }

      .cls-2 {
        fill: #eb8997;
      }

      .cls-3 {
        fill: #f6bec6;
      }

      .cls-4 {
        clip-path: url(#clippath);
      }
    </style>
    <clipPath id="clippath">
      <rect class="cls-1" y="0" width="131.4" height="116.5"/>
    </clipPath>
  </defs>
  <!-- Generator: Adobe Illustrator 28.7.5, SVG Export Plug-In . SVG Version: 1.2.0 Build 176)  -->
  <g>
    <g id="Layer_1">
      <g class="cls-4">
        <path class="cls-2" d="M45.7,33.6c-.9-2.6-1.8-5.2-2.8-8.1,4.4,1.2,8.5,2.3,12.5,3.7,5.7,2.1,11.1,4.6,15.8,8.5,5.1,4.3,8.7,9.7,11.2,15.8,3.2,7.7,5,15.7,4.8,24.1,0,3.8-.8,7.5-2.6,10.9-.8,1.6-1.7,1.9-3.1.5-1.8-1.7-3.8-3.1-5.2-5.2-.3-.6-.7-1.2-.7-1.8-1-7.6-5.1-13.9-9-20.1-4.6-7.2-10-13.8-15.3-20.4-2-2.5-3.3-5.5-5.6-7.9"/>
        <path class="cls-3" d="M45.7,33.6c2.3,2.3,3.6,5.3,5.6,7.9,5.3,6.6,10.7,13.2,15.3,20.4,4,6.3,8.1,12.5,9,20.1,0,.6.5,1.2.7,1.8-.9,3.5-.9,7.1-.2,10.6.2,1.2.1,1.3-1.1,1.2-8.2-.6-13.2-5.6-17.1-12.2-5.1-8.6-7.7-18-9.4-27.8-1.2-7.3-2-14.7-3-22"/>
      </g>
    </g>
  </g>
</svg>